<svg width="252" height="12" viewBox="0 0 252 12" fill="none" xmlns="http://www.w3.org/2000/svg">
<path d="M228.325 0.485992C228.472 0.600992 228.729 0.509997 228.896 0.283997C228.896 0.283997 228.896 0.28399 228.916 0.30899C229.129 0.57399 229.307 0.197984 229.386 0.264984C229.67 0.507984 229.862 0.483008 230.173 0.277008C230.255 0.223008 230.634 0.528996 230.901 0.576996C231.099 0.611996 231.099 0.612 231.099 0.612C231.351 0.528 231.721 0.484998 231.921 0.516998C232.121 0.548998 232.945 0.699994 233.307 0.774994C233.307 0.774994 233.307 0.774987 233.592 0.536987C233.626 0.507987 233.725 0.502989 233.778 0.519989C234.121 0.630989 234.458 0.83801 234.8 0.84201C235.075 0.84501 235.075 0.845001 235.075 0.845001C235.338 0.661001 235.523 0.797994 235.486 1.14999C235.486 1.14999 235.486 1.14999 236.013 0.73999C236.453 0.39699 236.453 0.397003 236.453 0.397003C236.884 0.557003 237.474 0.611005 237.765 0.518005C238.055 0.425005 238.925 0.869008 239.235 0.846008C239.545 0.824008 240.586 1.14199 240.897 1.20499C240.897 1.20499 240.897 1.205 240.876 0.826996C240.875 0.804996 241.067 0.737003 241.102 0.759003C241.505 1.02 241.505 1.01999 241.505 1.01999C241.994 0.939989 242.54 0.990005 242.72 1.13C242.9 1.27 243.532 0.971992 243.69 1.04199C243.848 1.11199 244.45 1.21799 244.657 1.11499C244.865 1.01099 246.022 1.04399 246.675 1.06699C246.675 1.06699 246.675 1.06701 247.241 1.30301C247.425 1.38001 247.778 1.14601 248.063 1.11801C248.27 1.09801 248.27 1.09799 248.27 1.09799C248.511 1.16299 248.795 1.165 248.9 1.103C248.9 1.103 248.9 1.10301 248.912 1.11301C249.432 1.52701 249.432 1.52701 249.432 1.52701C250.051 1.30701 250.632 1.35199 250.723 1.62799C250.814 1.90299 251.309 2.559 251.433 2.539C251.557 2.52 251.896 2.53099 251.918 2.60699C251.94 2.68299 251.79 2.97101 251.587 3.07901C251.384 3.18801 251.362 4.06201 251.036 4.51901C251.036 4.51901 251.036 4.519 251.146 5.086C251.171 5.217 251.171 5.21701 251.171 5.21701C251.159 5.42101 251.081 5.53701 250.997 5.47501C250.913 5.41301 250.688 5.40999 250.61 5.54999C250.61 5.54999 250.61 5.55 250.615 5.552C251.181 5.78 250.511 6.16299 250.78 6.42499C250.811 6.45499 250.81 6.54601 250.778 6.57501C250.348 6.95601 250.348 6.95599 250.348 6.95599C250.33 7.24499 249.867 7.56299 249.319 7.66299C249.319 7.66299 249.319 7.663 248.833 7.293C248.753 7.232 248.753 7.23199 248.753 7.23199C248.436 7.36299 247.925 7.478 247.616 7.487C247.308 7.496 246.27 7.41601 245.983 7.47601C245.983 7.47601 245.983 7.47601 245.717 7.48001C245.457 7.48401 245.457 7.48401 245.457 7.48401C245.178 7.43401 244.851 7.38999 244.729 7.38699C244.607 7.38399 244.151 7.35699 244.003 7.39899C243.855 7.44099 242.871 7.477 242.152 7.474C241.433 7.471 239.198 7.45699 238.784 7.40799C238.37 7.35899 237.265 7.704 237.167 7.703C237.167 7.703 237.167 7.70299 237.078 7.70999C236.534 7.75099 236.534 7.75101 236.534 7.75101C235.949 7.65201 235.249 7.62901 234.978 7.70001C234.707 7.77101 233.827 7.55298 233.601 7.58398C233.375 7.61498 232.575 7.67499 232.306 7.61499C232.037 7.55499 230.721 7.69198 230.084 7.70898C230.084 7.70898 230.084 7.70898 229.498 7.70898C228.912 7.70898 228.325 7.70898 227.739 7.70898C227.378 7.70898 226.812 7.822 226.699 7.685C226.433 7.366 226.078 7.81401 225.879 7.53201C225.841 7.47801 225.629 7.47699 225.506 7.49399C225.233 7.53299 224.835 7.717 224.722 7.633C224.331 7.344 224.331 7.34399 224.331 7.34399C224.042 7.54999 223.644 7.655 223.446 7.578C223.248 7.501 222.815 7.45499 222.581 7.38699C222.347 7.31899 221.631 7.589 221.429 7.479C221.227 7.369 220.516 7.738 220.292 7.78C220.068 7.822 219.224 7.47399 218.805 7.39999C218.805 7.39999 218.805 7.4 218.358 7.672C218.04 7.866 218.04 7.866 218.04 7.866C217.416 7.775 216.799 7.65301 216.668 7.59601C216.537 7.53901 215.944 7.46099 215.625 7.40799C215.306 7.35499 214.076 7.838 213.515 8.047C213.515 8.047 213.515 8.04699 213.12 7.49899C213.085 7.44999 212.807 7.44301 212.738 7.49701C212.307 7.83801 211.813 7.26399 211.371 7.58099C211.231 7.68099 210.963 7.71901 210.767 7.69901C210.393 7.66201 210.029 7.51 209.66 7.505C209.338 7.501 209.338 7.50101 209.338 7.50101C208.988 7.60001 208.537 7.66199 208.335 7.63699C208.133 7.61299 207.411 7.59801 207.24 7.51901C207.07 7.43901 206.406 7.73799 206.185 7.82199C205.964 7.90499 205.376 7.55801 205.163 7.64301C204.95 7.72801 203.994 7.66299 203.609 7.60199C203.609 7.60199 203.609 7.60199 203.258 7.60199C202.917 7.60199 202.575 7.70699 202.235 7.70099C201.602 7.68999 201.602 7.69 201.602 7.69C200.911 7.609 199.79 7.55299 199.111 7.56699C199.111 7.56699 199.111 7.56701 198.542 7.72501C198.043 7.86301 198.043 7.86301 198.043 7.86301C197.534 7.75901 196.638 7.68998 196.053 7.70898C196.053 7.70898 196.053 7.70898 195.512 7.70898C194.971 7.70898 194.43 7.70898 193.888 7.70898C193.346 7.70898 192.806 7.70898 192.264 7.70898C191.722 7.70898 191.182 7.70898 190.64 7.70898C190.098 7.70898 189.557 7.693 189.017 7.715C188.68 7.728 188.68 7.728 188.68 7.728C188.312 7.808 187.957 7.88299 187.891 7.89499C187.825 7.90699 187.321 7.84101 186.912 7.77301C186.503 7.70501 184.21 7.87301 184.045 7.82001C183.88 7.76701 183.424 7.78301 183.256 7.76001C183.088 7.73701 182.252 7.91199 181.819 7.92899C181.819 7.92899 181.819 7.92899 181.413 7.92899C181.007 7.92899 180.601 7.92899 180.195 7.92899C179.744 7.92899 179.293 7.92899 178.842 7.92899C178.436 7.92899 178.03 7.92899 177.624 7.92899C177.218 7.92899 176.812 7.92899 176.406 7.92899C176 7.92899 175.594 7.92899 175.188 7.92899C174.782 7.92899 174.782 7.92899 174.782 7.92899C174.337 7.93499 173.015 7.969 171.844 8.005C170.673 8.041 167.225 8.284 166.781 8.439C166.781 8.439 166.781 8.439 166.649 8.341C166.314 8.093 166.314 8.09299 166.314 8.09299C166.086 8.24899 165.626 8.24399 165.293 8.08099C165.293 8.08099 165.293 8.08099 164.877 8.34399C164.652 8.48599 164.18 8.36899 163.819 8.36899C163.233 8.36899 163.233 8.36899 163.233 8.36899C162.589 8.36099 161.839 8.40701 161.565 8.47101C161.291 8.53501 160.317 8.29 160.026 8.121C160.026 8.121 160.026 8.121 159.819 8.384C159.519 8.765 159.519 8.76498 159.519 8.76498C159.281 8.55198 158.818 8.41398 158.491 8.45898C158.163 8.50398 157.088 8.57099 156.833 8.55399C156.578 8.53699 155.571 8.69399 155.105 8.62799C155.105 8.62799 155.105 8.62798 154.68 8.59698C154.233 8.56398 154.233 8.564 154.233 8.564C153.736 8.581 153.115 8.64799 152.854 8.71399C152.593 8.77899 151.828 8.82399 151.42 8.98499C151.42 8.98499 151.42 8.985 150.946 8.836C150.554 8.712 150.056 8.811 149.605 8.811C149.154 8.811 149.154 8.811 149.154 8.811C148.659 8.816 148.043 8.90798 147.786 9.01498C147.786 9.01498 147.786 9.01498 147.553 9.01498C147.32 9.01498 147.32 9.01498 147.32 9.01498C147.066 8.91098 145.981 8.85 144.909 8.879C143.836 8.908 140.868 9.20099 140.691 9.42499C140.691 9.42499 140.691 9.425 140.369 9.103C140.295 9.029 139.863 9.217 139.589 9.245C139.323 9.273 139.323 9.27301 139.323 9.27301C139.028 9.26901 138.575 9.13501 138.318 8.97501C138.06 8.81501 137.13 9.24001 136.834 9.24301C136.538 9.24601 135.512 9.24701 135.214 9.24301C134.916 9.23901 133.853 9.31399 133.512 9.38199C133.512 9.38199 133.512 9.382 133.202 9.383C132.911 9.384 132.615 9.24799 132.328 9.26199C131.769 9.28899 131.769 9.289 131.769 9.289C131.158 9.268 130.221 9.261 129.688 9.272C129.155 9.283 127.568 9.50901 127.237 9.44501C127.237 9.44501 127.237 9.44499 126.938 9.42999C126.505 9.40899 126.505 9.409 126.505 9.409C126.031 9.463 125.447 9.463 125.206 9.409C124.965 9.355 124.148 9.68601 123.825 9.72101C123.502 9.75701 122.317 9.71501 121.945 9.72101C121.573 9.72701 119.964 9.72701 119.192 9.78101C118.419 9.83501 115.729 9.91299 114.935 9.92099C114.141 9.92899 111.916 9.96099 111.752 10.042C111.588 10.124 110.855 9.917 110.641 9.888C110.427 9.859 109.642 10.15 109.265 10.172C108.888 10.195 107.363 10.163 106.742 10.173C106.121 10.183 104.004 10.167 103.406 10.232C102.808 10.297 100.247 10.35 99.0557 10.35C99.0557 10.35 99.0558 10.35 97.9738 10.35C96.8468 10.35 96.8468 10.35 96.8468 10.35C95.6068 10.348 94.3238 10.353 93.9958 10.361C93.9958 10.361 93.9958 10.361 93.7508 10.565C93.5198 10.757 93.3168 10.14 92.9958 10.525C92.9308 10.602 92.9307 10.602 92.9307 10.602C92.6407 10.554 92.2217 10.58 91.9987 10.659C91.7757 10.738 90.9308 10.448 90.4268 10.559C90.4268 10.559 90.4268 10.559 89.9638 10.561C86.4458 10.576 86.4458 10.576 86.4458 10.576C82.5768 10.577 79.0078 10.499 78.5148 10.402C78.5148 10.402 78.5147 10.402 78.1377 10.739C78.0797 10.79 78.0798 10.79 78.0798 10.79C77.9198 10.767 77.5567 10.717 77.2747 10.677C76.9927 10.638 76.1698 10.65 76.0698 10.726C75.9698 10.802 75.5378 10.627 75.4188 10.674C75.2998 10.721 74.7338 10.757 74.4528 10.731C74.4528 10.731 74.4528 10.731 74.1968 10.702L72.9697 10.773C72.7017 10.778 72.7017 10.778 72.7017 10.778C72.4077 10.781 72.1178 10.708 72.0588 10.617C71.9998 10.526 71.4467 10.711 71.1887 10.719C71.1887 10.719 71.1887 10.719 70.9477 10.694C70.8297 10.682 70.6778 10.549 70.6148 10.578C69.6918 10.993 69.6918 10.993 69.6918 10.993C68.6198 10.876 66.8508 10.784 65.7598 10.789C65.7598 10.789 65.7598 10.789 64.7678 10.789C64.1368 10.789 63.5047 10.789 62.8737 10.789C62.2877 10.789 62.2877 10.789 62.2877 10.789C61.6487 10.805 60.8768 10.779 60.5708 10.731C60.2648 10.683 59.1678 11.134 58.6918 11.287C58.6918 11.287 58.6917 11.287 58.3737 10.833C58.3357 10.778 58.0858 10.752 58.0068 10.797C57.5558 11.055 57.5557 11.055 57.5557 11.055C57.0487 10.945 56.2107 10.904 55.6937 10.963C55.6937 10.963 55.6937 10.963 55.2237 10.999C54.6877 11.04 54.1428 11.009 53.6018 11.009C53.1058 11.009 52.6098 11.009 52.1138 11.009C51.5728 11.009 51.0318 11.009 50.4898 11.009C49.9938 11.009 49.4978 11.009 49.0018 11.009C48.4608 11.009 47.9198 11.009 47.3778 11.009C46.8818 11.009 46.8818 11.009 46.8818 11.009C46.3368 11.014 45.5548 10.969 45.1438 10.908C44.7328 10.847 43.5617 11.164 43.4137 11.112C43.2657 11.06 42.3458 10.995 41.7078 10.964C41.0698 10.933 39.2197 11.197 38.9947 11.187C38.7697 11.177 38.0687 11.167 37.9047 11.071C37.7407 10.975 37.0007 11.224 36.7877 11.252C36.5747 11.28 35.8748 11.064 35.5998 11.131C35.3248 11.198 34.3777 11.247 34.1197 11.281C33.8627 11.315 33.0148 11.095 32.8218 11.135C32.6288 11.175 31.6977 11.218 31.2017 11.215C30.7057 11.212 28.6857 11.167 27.8137 11.084C27.8137 11.084 27.8137 11.084 27.0687 11.441C26.9347 11.505 26.9347 11.505 26.9347 11.505C26.7217 11.469 26.1908 11.448 25.7548 11.46C25.7548 11.46 25.7548 11.46 25.4758 11.321C25.0188 11.093 25.0188 11.093 25.0188 11.093C24.6868 11.271 24.1728 11.378 23.8778 11.33C23.8778 11.33 23.8778 11.33 23.5438 11.426C23.1828 11.53 23.1828 11.53 23.1828 11.53C22.7168 11.483 22.1738 11.473 21.9748 11.507C21.7758 11.541 20.3248 11.224 19.0888 11.148C19.0888 11.148 19.0888 11.148 18.0568 11.64C17.6888 11.816 17.6887 11.816 17.6887 11.816C17.2777 11.734 16.7188 11.669 16.4458 11.673C16.1728 11.677 15.2367 11.684 14.9697 11.703C14.7027 11.722 14.0728 11.599 13.9618 11.637C13.8508 11.676 13.2288 11.683 12.8818 11.677C12.5348 11.672 11.3858 11.65 11.0998 11.624C10.8138 11.598 9.96074 11.667 9.71874 11.6C9.47674 11.533 8.92275 11.841 8.85275 11.781C8.78275 11.721 8.45677 11.574 8.36477 11.655C8.27277 11.736 7.71477 11.881 7.42077 11.889C7.42077 11.889 7.42074 11.889 7.14974 11.889C6.65374 11.889 6.15777 11.887 5.66177 11.89C5.38677 11.891 5.38674 11.891 5.38674 11.891C5.26374 11.714 5.12177 11.569 5.07177 11.569C5.02177 11.569 4.87875 11.646 4.86275 11.742C4.84775 11.839 4.14576 11.836 3.67376 11.773C3.67376 11.773 3.67377 11.773 3.24377 11.77C2.91077 11.768 2.91076 11.768 2.91076 11.768C2.51876 11.758 2.25677 11.733 2.32977 11.712C2.40277 11.691 2.54675 11.515 2.43475 11.384C2.32275 11.252 2.25475 10.757 2.30575 10.597C2.35675 10.438 2.39676 9.953 2.23476 9.953C2.07276 9.953 1.71177 10.005 1.74377 10.068C1.77577 10.131 1.78976 10.305 1.70876 10.327C1.62876 10.349 1.37876 10.231 1.23376 10.116C1.08876 10.001 0.379746 9.759 0.240746 9.63C0.101746 9.501 -0.153259 8.96601 0.123741 8.90601C0.400741 8.84601 0.717764 9.54101 0.902764 9.67801C0.902764 9.67801 0.902768 9.67799 1.13177 9.67899C1.21177 9.67899 1.31576 9.566 1.36276 9.487C1.38876 9.443 1.38876 9.44299 1.38876 9.44299C1.33676 9.36299 1.23775 9.316 1.16775 9.34C1.09775 9.364 0.871758 9.35901 0.871758 9.26001C0.871758 9.16101 1.09977 8.83198 1.37777 8.76498C1.65577 8.69798 2.45376 8.39799 2.45376 8.26599C2.45376 8.13399 2.55177 7.718 2.67077 7.866C2.79077 8.014 3.26676 8.25801 3.45876 8.07401C3.45876 8.07401 3.45877 8.074 3.52377 7.905C3.60977 7.681 3.66675 7.731 3.84875 7.836C3.97575 7.909 3.97576 7.909 3.97576 7.909C4.17676 7.918 4.71176 7.92898 5.16576 7.93298C5.61976 7.93798 6.70876 7.574 6.60876 7.534C6.50876 7.494 6.85075 7.242 7.58675 7.061C7.58675 7.061 7.58674 7.061 8.38274 7.353C8.53474 7.409 8.69474 7.46301 8.85674 7.48001C8.97174 7.49201 8.97176 7.492 8.97176 7.492C9.16976 7.437 9.23475 7.284 9.11675 7.151C8.99875 7.018 8.80374 6.63801 8.94274 6.60001C8.94274 6.60001 8.94277 6.60001 9.05877 6.61401C9.19477 6.63101 9.37076 6.77301 9.44176 6.73901C9.89476 6.52301 9.89477 6.52301 9.89477 6.52301C10.1728 6.78001 10.4888 7.00101 10.5978 7.01401C10.7068 7.02701 11.1498 7.00399 11.0448 6.90799C10.9398 6.81199 11.0468 6.58199 11.2688 6.41299C11.4908 6.24399 12.3178 6.21001 12.4708 6.22601C12.6248 6.24201 13.2488 6.20701 13.4748 6.23401C13.7008 6.26101 14.3728 6.212 14.6858 6.297C14.9988 6.382 15.6268 5.81699 15.7978 5.83499C15.9678 5.85399 16.2838 6.176 16.3148 6.215C16.3458 6.254 16.4708 6.301 16.5218 6.233C16.5218 6.233 16.5218 6.23301 16.5228 6.17001C16.5308 5.56801 16.5308 5.56799 16.5308 5.56799C17.0528 5.65799 17.7558 5.851 18.0928 5.996C18.0928 5.996 18.0928 5.996 18.5148 5.793C18.8968 5.609 18.8968 5.60901 18.8968 5.60901C19.4228 5.55301 20.0308 5.438 20.2478 5.353C20.4648 5.268 20.9878 5.62799 21.0888 5.59299C21.0888 5.59299 21.0888 5.59299 21.1208 5.53799C21.1788 5.43799 21.1788 5.43799 21.1788 5.43799C21.2958 5.40299 21.6138 5.43201 21.8848 5.50101C21.8848 5.50101 21.8848 5.50099 22.1338 5.49899C22.4998 5.49499 22.4997 5.495 22.4997 5.495C22.8857 5.413 23.3308 5.32199 23.4898 5.29199C23.6478 5.26299 24.3468 5.231 24.6478 5.198C24.9488 5.165 26.0048 5.10399 26.3238 5.14999C26.6418 5.19599 27.6768 4.878 27.9898 4.849C28.3038 4.82 29.2117 4.97401 29.3567 4.88101C29.5017 4.78801 30.0798 4.974 30.2218 4.88C30.3628 4.786 30.8528 4.97001 30.9408 4.89801C31.0288 4.82601 31.3527 4.69798 31.4567 4.77798C31.5607 4.85798 31.9698 5.01699 32.1518 4.96799C32.3338 4.91899 33.0437 4.87501 33.3267 4.89801C33.6097 4.92201 34.4597 4.83399 34.6717 4.85199C34.8837 4.86999 35.5538 4.78999 35.7088 4.73199C35.8638 4.67299 36.5007 4.59699 36.7927 4.54099C37.0847 4.48499 37.9488 4.87599 38.1338 4.93399C38.3188 4.99299 38.5388 4.52299 38.6388 4.48099C38.6388 4.48099 38.6387 4.481 38.6937 4.505C39.1147 4.69 39.1148 4.69 39.1148 4.69C39.5428 4.553 39.9317 4.42299 39.9777 4.39899C39.9777 4.39899 39.9777 4.39899 40.0077 4.40799C40.2427 4.47599 40.5088 4.64601 40.6998 4.60101C40.9288 4.54701 40.9288 4.547 40.9288 4.547C41.1288 4.587 41.3898 4.562 41.5088 4.491C41.6268 4.42 42.2017 4.484 42.4557 4.573C42.4557 4.573 42.4558 4.573 42.6968 4.617C42.8608 4.647 42.8607 4.647 42.8607 4.647C43.0517 4.612 43.4227 4.568 43.6847 4.547C43.9467 4.527 44.8868 4.54201 45.2258 4.72101C45.2258 4.72101 45.2258 4.721 45.6268 4.427C45.8548 4.26 46.3238 4.53598 46.6258 4.26498C46.6548 4.23898 46.8688 4.369 47.0058 4.401C47.6058 4.541 47.6058 4.54099 47.6058 4.54099C48.2688 4.46599 48.9328 4.32199 49.0828 4.22299C49.2328 4.12299 49.7778 4.29999 49.8988 4.18399C50.0198 4.06799 50.4947 4.36398 50.5727 4.38998C50.6517 4.41598 51.0107 4.43901 51.2797 4.49301C51.5487 4.54701 52.5528 4.30599 53.0328 4.26099C53.0328 4.26099 53.0328 4.26099 53.3848 4.55399C53.4368 4.59799 53.4368 4.59799 53.4368 4.59799C53.5838 4.62599 53.8048 4.553 53.9288 4.436C54.0528 4.319 54.3748 4.22498 54.5798 4.19598C54.7838 4.16698 55.7718 4.24299 56.3038 4.33899C56.3038 4.33899 56.3037 4.33899 56.7277 3.97699C56.8357 3.88499 57.1938 4.02099 57.3798 3.95099C57.7978 3.79399 57.7978 3.79401 57.7978 3.79401C58.1578 3.96201 58.5748 4.113 58.7228 4.13C58.8708 4.146 59.4197 4.03499 59.6197 4.10199C59.6197 4.10199 59.6197 4.102 59.8007 4.185C60.0337 4.292 60.1448 3.76501 60.4418 4.10901C60.4698 4.14201 60.7758 3.97499 60.9548 3.97299C61.2068 3.96999 61.2067 3.97 61.2067 3.97C61.4797 4.032 61.7817 4.10601 61.8787 4.13501C61.9757 4.16401 62.5707 4.092 62.9307 4.116C63.2907 4.14 64.2328 3.79301 64.3298 3.83301C64.4268 3.87401 64.9108 4.10099 65.1648 4.27499C65.1648 4.27499 65.1648 4.275 65.4158 3.936C65.7968 3.42 65.7967 3.42001 65.7967 3.42001C66.3547 3.63601 67.0677 3.86501 67.3827 3.92801C67.6977 3.99101 68.7528 3.738 68.9978 3.647C69.2418 3.556 69.9118 3.552 70.1518 3.496C70.1518 3.496 70.1518 3.49599 70.3088 3.58899C70.4838 3.69199 70.4838 3.69199 70.4838 3.69199C70.6328 3.85299 70.9157 3.854 71.1117 3.694C71.1117 3.694 71.1118 3.69399 71.2738 3.56699C71.3018 3.54499 71.3018 3.54501 71.3018 3.54501C71.3978 3.51401 71.5728 3.553 71.6898 3.633C71.8068 3.712 72.2367 3.86201 72.3617 3.77301C72.4867 3.68401 73.5088 3.687 73.7118 3.737C73.9138 3.787 74.3898 3.75699 74.5868 3.80099C74.7838 3.84499 75.2227 3.73799 75.3867 3.74899C75.5507 3.75999 76.1398 3.68801 76.3468 3.58701C76.5538 3.48701 77.4398 3.79101 77.8548 3.85001C77.8548 3.85001 77.8547 3.84998 78.1237 3.52798C78.1527 3.49398 78.2978 3.51399 78.3858 3.52499C78.9358 3.59499 78.9358 3.595 78.9358 3.595C79.5388 3.665 80.2617 3.61499 80.5427 3.48199C80.8237 3.34899 81.8708 3.71299 82.2268 3.70499C82.2268 3.70499 82.2267 3.70499 82.5127 3.64099C82.7787 3.58199 82.7788 3.582 82.7788 3.582C83.0738 3.573 83.5557 3.514 83.8487 3.452C84.1417 3.389 84.9178 3.73898 85.0178 3.76498C85.0178 3.76498 85.0178 3.76499 85.0868 3.73999C85.8798 3.44899 85.8798 3.44901 85.8798 3.44901C86.7968 3.49001 87.7358 3.52001 87.9658 3.51401C88.1958 3.50901 89.0508 3.578 89.4148 3.789C89.4148 3.789 89.4148 3.78901 89.7268 3.33301C89.8638 3.13201 89.8638 3.13199 89.8638 3.13199C90.2488 3.22999 90.6518 3.40299 90.7598 3.51599C90.8678 3.62899 91.4488 3.336 91.6058 3.302C91.7628 3.269 92.2598 3.502 92.4118 3.521C92.4118 3.521 92.4117 3.52099 92.4827 3.46899C92.8577 3.19299 92.8577 3.19299 92.8577 3.19299C93.2257 3.35599 93.7388 3.51998 93.9968 3.55798C94.2548 3.59598 94.9917 3.42701 95.1717 3.34601C95.3517 3.26501 95.9737 3.43201 96.0677 3.40601C96.1617 3.38001 96.5027 3.227 96.6057 3.134C96.7087 3.041 97.1107 3.18899 97.2077 3.07999C97.2077 3.07999 97.2077 3.08001 97.5117 3.20401C97.8477 3.34101 97.8477 3.341 97.8477 3.341C98.3487 3.261 99.0198 3.14101 99.3388 3.07501C99.6578 3.00901 100.503 3.18601 100.646 3.15701C100.789 3.12801 101.371 3.199 101.636 3.271C101.636 3.271 101.636 3.27101 101.882 3.29001C101.972 3.29701 101.972 3.297 101.972 3.297C102.11 3.163 102.251 3.16001 102.283 3.29001C102.315 3.42001 102.579 3.74198 102.776 3.63998C102.973 3.53798 103.595 3.24901 103.756 3.18201C103.917 3.11501 105.046 3.10298 105.245 3.13998C105.444 3.17698 106.089 2.90499 106.337 2.88199C106.586 2.85899 107.429 2.89501 107.645 2.96701C107.861 3.03901 108.948 2.93899 109.509 2.92999C109.509 2.92999 109.509 2.93 109.856 2.75C110.167 2.589 110.167 2.58899 110.167 2.58899C110.363 2.71999 110.601 2.88499 110.697 2.95599C110.793 3.02699 111.637 2.89199 112.069 2.77899C112.5 2.66599 113.831 2.69501 114.01 2.75101C114.189 2.80701 114.861 2.81101 115.113 2.76901C115.365 2.72701 116.247 2.66399 116.508 2.68399C116.769 2.70399 117.469 2.53001 117.613 2.47101C117.757 2.41201 118.16 2.63399 118.208 2.64899C118.208 2.64899 118.208 2.64901 118.243 2.63901C118.478 2.57001 118.706 2.45199 118.945 2.43399C119.156 2.41799 119.394 2.56999 119.596 2.54099C119.905 2.49599 119.905 2.496 119.905 2.496C120.251 2.47 120.717 2.41099 120.939 2.36499C121.162 2.31899 121.678 2.54699 121.727 2.45099C121.727 2.45099 121.727 2.45099 121.798 2.38199C121.85 2.33099 121.85 2.33099 121.85 2.33099C121.944 2.30399 122.3 2.33201 122.642 2.39401C122.984 2.45601 124.504 2.285 124.762 2.341C124.762 2.341 124.762 2.34099 124.968 2.42599C125.228 2.53299 125.228 2.53299 125.228 2.53299C125.443 2.41499 125.815 2.38 126.055 2.457C126.055 2.457 126.055 2.45701 126.229 2.40601C126.536 2.31601 126.536 2.31601 126.536 2.31601C126.839 2.13901 127.231 2.041 127.408 2.099C127.584 2.157 128.244 2.13599 128.465 2.06799C128.686 1.99999 129.134 2.01901 129.317 1.98901C129.501 1.95901 130.012 2.04099 130.173 2.08499C130.333 2.12899 130.802 2.03601 130.865 2.10501C130.928 2.17401 131.323 2.29799 131.602 2.22299C131.88 2.14799 133.517 2.18401 134.081 2.16501C134.645 2.14601 135.697 1.86701 135.913 1.81601C135.913 1.81601 135.913 1.816 136.194 1.879C136.734 2 136.734 2 136.734 2C137.377 1.985 138.101 1.975 138.342 1.978C138.342 1.978 138.342 1.97801 138.584 1.88901C138.897 1.77401 138.897 1.77399 138.897 1.77399C139.309 1.76599 139.813 1.79901 140.016 1.84601C140.22 1.89301 140.926 1.797 141.101 1.827C141.101 1.827 141.101 1.82701 141.265 1.85901C141.419 1.88901 141.419 1.88901 141.419 1.88901C141.581 1.91401 142.139 1.88799 142.658 1.83099C142.658 1.83099 142.658 1.83099 143.122 1.76199C143.516 1.70399 143.516 1.70401 143.516 1.70401C143.955 1.65201 144.346 1.60899 144.385 1.60699C144.424 1.60499 144.693 1.66399 144.933 1.70499C145.173 1.74499 145.948 1.78901 146.148 1.84601C146.348 1.90301 146.85 2.094 146.919 1.995C146.988 1.896 147.334 1.777 147.48 1.771C147.626 1.766 148.158 1.52901 148.463 1.51401C148.768 1.49901 149.971 1.47901 150.449 1.45801C150.927 1.43701 152.377 1.557 152.595 1.595C152.813 1.633 153.45 1.38499 153.596 1.42999C153.743 1.47499 154.017 1.468 154.112 1.495C154.207 1.522 154.906 1.406 155.478 1.28C155.478 1.28 155.478 1.28 156.009 1.332C156.398 1.37 156.398 1.37 156.398 1.37C156.72 1.233 157.231 1.19701 157.533 1.29001C157.533 1.29001 157.533 1.28999 157.817 1.30899C158.105 1.32799 158.105 1.328 158.105 1.328C158.425 1.234 158.856 1.27001 159.063 1.40601C159.269 1.54301 160.185 1.05499 160.667 0.972992C160.667 0.972992 160.667 0.972997 161.071 1.228C161.106 1.25 161.254 1.20098 161.299 1.15298C161.371 1.07798 161.371 1.078 161.371 1.078C161.413 0.972003 161.579 0.84499 161.739 0.79599C161.9 0.74699 162.46 0.959008 162.669 1.01401C162.878 1.06901 163.66 1.039 163.862 1.09C164.065 1.141 164.506 1.06001 164.659 1.04001C164.812 1.02001 165.508 1.10101 165.793 1.14801C166.078 1.19501 167.078 0.989995 167.402 1.05099C167.402 1.05099 167.402 1.05101 167.529 0.958008C167.936 0.658008 168.076 1.17299 168.329 1.08899C168.592 1.00199 168.592 1.00198 168.592 1.00198C168.842 0.826984 169.229 0.649985 169.453 0.609985C169.677 0.569985 170.51 0.658998 170.727 0.697998C170.944 0.736998 171.716 0.719992 171.924 0.653992C172.132 0.587992 172.88 0.716999 173.081 0.792999C173.282 0.868999 174.048 0.790003 174.452 0.716003C174.452 0.716003 174.452 0.715985 174.871 0.859985C175.163 0.959985 175.588 0.946003 175.817 0.634003L176.678 0.507996C177.573 0.796996 178.509 0.738004 179.386 0.548004C179.727 0.474004 180.038 0.948986 180.377 0.497986C180.48 0.360986 181.049 0.429012 181.4 0.450012C181.597 0.462012 181.597 0.462006 181.597 0.462006C181.808 0.552006 182.058 0.595998 182.155 0.559998C182.251 0.523998 182.509 0.421007 182.707 0.307007C182.905 0.193007 183.453 0.592984 183.64 0.570984C183.826 0.548984 184.283 0.364994 184.373 0.343994C184.463 0.323994 184.874 0.52 185.075 0.638C185.075 0.638 185.075 0.638008 185.262 0.639008C185.45 0.640008 185.633 0.492993 185.83 0.442993C186.156 0.359993 186.156 0.359985 186.156 0.359985C186.497 0.466985 186.856 0.575013 186.955 0.601013C187.054 0.627013 187.306 0.541004 187.426 0.479004C187.546 0.417004 187.972 0.563992 188.078 0.541992C188.078 0.541992 188.078 0.541988 188.158 0.493988C188.266 0.429988 188.361 0.270985 188.446 0.277985C188.676 0.295985 188.904 0.437995 189.123 0.425995C189.406 0.409995 189.675 0.260011 189.961 0.230011C190.214 0.203011 190.214 0.203003 190.214 0.203003C190.489 0.253003 190.89 0.225998 191.105 0.141998C191.105 0.141998 191.105 0.14199 191.326 0.29599C191.47 0.39599 191.47 0.395996 191.47 0.395996C191.713 0.411996 192.196 0.449988 192.543 0.480988C192.89 0.511988 193.944 0.306008 194.172 0.402008C194.4 0.498008 195.671 0.358998 196.479 0.516998C196.479 0.516998 196.479 0.517002 197.235 0.233002C197.458 0.149002 197.815 0.146992 198.029 0.235992C198.397 0.389992 198.397 0.389984 198.397 0.389984C198.746 0.294984 199.202 0.125984 199.41 0.0149841C199.41 0.0149841 199.41 0.0149983 199.597 0.0169983C199.784 0.0189983 199.973 0.149985 200.153 0.234985C200.257 0.283985 200.257 0.283997 200.257 0.283997C200.354 0.349997 200.97 0.444011 201.626 0.493011C202.282 0.542011 203.936 0.0470095 203.978 0.0660095C204.02 0.0850095 204.101 0.172006 204.156 0.212006C204.211 0.252006 204.721 0.202004 205.02 0.160004C205.319 0.118004 206.333 0.0379861 206.605 0.0669861C206.877 0.0949861 207.78 0.365991 208.006 0.459991C208.232 0.553991 208.958 0.32301 209.134 0.44101C209.31 0.55901 210.12 0.148 210.483 0C210.483 0 210.483 1.2219e-05 210.895 0.325012C211.073 0.466012 211.073 0.466003 211.073 0.466003C211.613 0.335003 212.462 0.216987 212.958 0.204987C212.958 0.204987 212.958 0.20499 213.407 0.22699C213.874 0.24999 213.874 0.25 213.874 0.25C214.376 0.354 215.054 0.281996 215.38 0.0899963C215.38 0.0899963 215.38 0.0899983 215.812 0.391998C216.147 0.626998 216.536 -0.0419871 216.986 0.282013C217.362 0.553013 217.691 0.495999 218.014 0.223999C218.036 0.205999 218.108 0.209999 218.145 0.223999C218.452 0.333999 218.452 0.333984 218.452 0.333984C218.791 0.370984 219.175 0.430987 219.307 0.467987C219.439 0.503987 220.044 0.293995 220.335 0.231995C220.335 0.231995 220.335 0.232004 220.585 0.242004C221.101 0.263004 221.101 0.263 221.101 0.263C221.667 0.253 222.613 0.228984 223.204 0.208984C223.204 0.208984 223.204 0.209013 223.744 0.226013C224.082 0.236013 224.082 0.235992 224.082 0.235992C224.451 0.320992 224.904 0.413993 225.09 0.442993C225.276 0.470993 225.735 0.33799 225.882 0.29599C226.029 0.25499 226.497 0.449987 226.625 0.467987C226.625 0.467987 226.625 0.467988 226.645 0.437988C226.922 0.0239883 226.922 0.0239868 226.922 0.0239868C227.245 0.252987 228.178 0.370992 228.325 0.485992Z" fill="#6FB2A5"/>
</svg>
