<?xml version="1.0" encoding="UTF-8"?>
<svg version="1.1" xmlns="http://www.w3.org/2000/svg" width="512" height="512">
<path d="M0 0 C17.23681914 11.85031316 23.82605807 35.66060581 31.45188904 54.23121643 C34.28890001 61.12485623 37.25635192 67.96165671 40.2734375 74.77832031 C40.61246094 75.5565918 40.95148438 76.33486328 41.30078125 77.13671875 C41.59509033 77.80348633 41.88939941 78.47025391 42.19262695 79.15722656 C42.8125 80.93359375 42.8125 80.93359375 42.8125 83.93359375 C43.50214844 83.8871875 44.19179687 83.84078125 44.90234375 83.79296875 C45.84207031 83.756875 46.78179687 83.72078125 47.75 83.68359375 C48.66652344 83.6371875 49.58304687 83.59078125 50.52734375 83.54296875 C58.27339969 84.46402177 64.58943692 88.85518565 70.75 93.37109375 C71.47598389 93.88897461 72.20196777 94.40685547 72.94995117 94.94042969 C76.75934985 97.66767318 80.50846283 100.45750932 84.2109375 103.328125 C92.7201735 109.84312679 100.74618896 114.5346697 110.81445312 118.2565918 C126.01403416 123.87845735 135.62238915 132.44509647 142.8125 146.93359375 C147.54603974 158.8564194 150.32065974 171.44965099 153.31665039 183.89038086 C154.13462124 187.28603452 154.96207272 190.6792754 155.79101562 194.07226562 C156.31564618 196.23033706 156.83975457 198.38853551 157.36328125 200.546875 C157.61008133 201.5613118 157.85688141 202.5757486 158.11116028 203.6209259 C158.33527084 204.55337631 158.55938141 205.48582672 158.7902832 206.4465332 C158.98838089 207.26732864 159.18647858 208.08812408 159.39057922 208.93379211 C159.8125 210.93359375 159.8125 210.93359375 159.8125 212.93359375 C160.6478125 212.84658203 160.6478125 212.84658203 161.5 212.7578125 C166.91005203 212.43796145 170.36548629 213.26747226 174.98828125 216.05859375 C181.87096674 223.13287434 181.4360521 231.44084446 181.33398438 240.67895508 C181.3125128 242.99471362 181.33386074 245.30738203 181.359375 247.62304688 C181.356732 249.11328801 181.35160759 250.60352724 181.34375 252.09375 C181.35184692 252.77623306 181.35994385 253.45871613 181.36828613 254.16188049 C181.26431675 259.55761739 179.75739051 262.56855611 176.8125 266.93359375 C172.89696328 270.47622221 170.51930982 272.05384553 165.28448486 272.08076477 C163.85454697 272.09149773 163.85454697 272.09149773 162.39572144 272.10244751 C160.82167038 272.10648087 160.82167038 272.10648087 159.21582031 272.1105957 C157.5619783 272.1204525 157.5619783 272.1204525 155.87472534 272.13050842 C152.21335793 272.15027503 148.5520316 272.16191157 144.890625 272.171875 C143.64223595 272.17595053 142.39384689 272.18002605 141.10762787 272.18422508 C135.18200397 272.202946 129.25639319 272.21750831 123.33074689 272.22583705 C116.49469947 272.23560431 109.6589763 272.26190915 102.82304311 272.30233794 C96.89958045 272.33616546 90.976197 272.34798451 85.05263519 272.35204124 C82.53442944 272.35691789 80.01622742 272.36856232 77.49808502 272.38707924 C73.9740458 272.41138184 70.45085488 272.41052136 66.92675781 272.40356445 C65.88548737 272.41637451 64.84421692 272.42918457 63.77139282 272.44238281 C57.7803215 272.3992539 54.38263204 271.90844955 49.8125 267.93359375 C43.64614488 261.10060564 44.52703302 253.87196648 44.46240234 245.19311523 C44.44589039 243.57057301 44.41866311 241.94810209 44.38037109 240.32592773 C43.99942204 224.08259146 43.99942204 224.08259146 48.3840332 218.29541016 C51.87089325 214.97124243 56.01116295 212.70180768 60.8125 211.93359375 C57.17835455 206.44060379 51.95409586 203.37533477 46.5625 199.80859375 C44.57408533 198.47285484 42.58580506 197.13691584 40.59765625 195.80078125 C39.61684082 195.14561523 38.63602539 194.49044922 37.62548828 193.81542969 C5.05845252 172.02869894 5.05845252 172.02869894 -2.1171875 157.53515625 C-2.46716293 156.82888596 -2.81713837 156.12261566 -3.17771912 155.39494324 C-6.18384949 149.1866503 -8.52610879 142.85788649 -10.60675049 136.27963257 C-11.53725617 133.33797556 -12.49685261 130.40595259 -13.45300293 127.47254944 C-14.01511492 125.74658135 -14.57567875 124.02010848 -15.1348877 122.29319763 C-18.03815794 113.34044002 -21.0191028 104.41409354 -24.00390625 95.48828125 C-24.52464772 93.93045712 -25.04538439 92.37263139 -25.56611633 90.81480408 C-26.61988433 87.66279786 -27.67386838 84.51086397 -28.72799683 81.35897827 C-29.25616983 79.7796852 -29.78433756 78.20039036 -30.3125 76.62109375 C-30.57372272 75.83999363 -30.83494545 75.05889351 -31.10408401 74.25412369 C-32.62778983 69.6972402 -34.14991153 65.1398328 -35.66991997 60.58171463 C-36.14001781 59.17292159 -36.610674 57.76431472 -37.08192635 56.35590744 C-37.73586643 54.4013909 -38.38791878 52.44625385 -39.03955078 50.4909668 C-39.40750763 49.38931686 -39.77546448 48.28766693 -40.15457153 47.15263367 C-43.6982551 36.10902396 -45.94704722 23.14141988 -40.640625 12.2109375 C-30.89683647 -3.05956979 -16.65307365 -9.38903762 0 0 Z M-23.1875 13.93359375 C-28.17735246 20.58673036 -28.8436725 25.817912 -28.1875 33.93359375 C-27.31949562 37.94108004 -26.04603805 41.76036864 -24.70703125 45.6328125 C-24.34259415 46.73020248 -23.97815704 47.82759247 -23.60267639 48.95823669 C-22.41693753 52.51780118 -21.20871091 56.06927166 -20 59.62109375 C-19.17233865 62.09108109 -18.34634367 64.56162739 -17.52197266 67.03271484 C-15.86573437 71.99413028 -14.20238474 76.95307688 -12.53466797 81.91064453 C-9.5628938 90.77024532 -6.71237117 99.66754469 -3.86270142 108.56695557 C7.9856004 146.79382419 7.9856004 146.79382419 35.875 174.18359375 C37.53914824 175.31497806 39.20320923 176.44649072 40.8671875 177.578125 C41.6931543 178.13838379 42.51912109 178.69864258 43.37011719 179.27587891 C48.99876439 183.09620223 54.61001373 186.94053213 60.19580078 190.82324219 C61.57323136 191.76926367 62.97029114 192.68659989 64.37109375 193.59765625 C71.42574343 198.37188042 74.70634481 205.16820578 77.8125 212.93359375 C99.5925 212.93359375 121.3725 212.93359375 143.8125 212.93359375 C142.55843904 205.40922798 141.27298327 198.13910913 139.421875 190.77734375 C139.19477844 189.86835327 138.96768188 188.95936279 138.73370361 188.02282715 C138.25568928 186.11983906 137.77493355 184.21753758 137.29150391 182.31591797 C136.56487464 179.44298257 135.85847954 176.56553085 135.15234375 173.6875 C130.13866965 153.4367777 130.13866965 153.4367777 116.8125 137.93359375 C110.43737799 134.14739324 104.09638548 131.20649699 96.9375 129.24609375 C89.12554042 126.81455666 83.29465127 121.58895168 76.96386719 116.59765625 C73.3038827 113.7666923 69.53157981 111.09874665 65.75 108.43359375 C65.06010986 107.94181641 64.37021973 107.45003906 63.65942383 106.94335938 C54.62002109 100.16373695 54.62002109 100.16373695 43.8125 98.93359375 C39.47520205 101.1856523 36.67852629 103.37219615 34.8125 107.93359375 C34.25260631 111.75953396 34.29379459 114.72526849 35.83203125 118.30859375 C38.62963224 122.0166566 42.07716108 124.3088526 45.875 126.93359375 C47.50670245 128.08566556 49.13820728 129.23801732 50.76953125 130.390625 C51.60564941 130.97666504 52.44176758 131.56270508 53.30322266 132.16650391 C57.25072458 134.94642402 61.15506829 137.78527245 65.0625 140.62109375 C69.33851456 143.71997183 73.61944239 146.80855454 77.94921875 149.83203125 C78.5927832 150.28360596 79.23634766 150.73518066 79.89941406 151.20043945 C81.09159935 152.03512643 82.28731759 152.86480114 83.48730469 153.68823242 C86.4910575 155.79552701 88.97320551 157.72447503 90.8125 160.93359375 C90.75 164.55859375 90.75 164.55859375 89.8125 167.93359375 C87.52597436 169.96606098 86.2131877 169.95026426 83.18359375 169.82421875 C78.51216267 168.59005156 75.37346423 166.08007628 71.5625 163.18359375 C69.95854506 161.99450602 68.35437213 160.80571228 66.75 159.6171875 C65.93273437 159.00601074 65.11546875 158.39483398 64.2734375 157.76513672 C60.40052489 154.88273688 56.48060697 152.06655706 52.5625 149.24609375 C51.81935547 148.70742676 51.07621094 148.16875977 50.31054688 147.61376953 C46.82385501 145.08783792 43.32575968 142.5849035 39.78125 140.140625 C22.84513634 128.42482956 22.84513634 128.42482956 20.8125 118.93359375 C19.99211573 110.53731522 20.19504494 103.17848957 24.8125 95.93359375 C25.9571875 94.60328125 25.9571875 94.60328125 27.125 93.24609375 C29.10033908 91.05875798 29.10033908 91.05875798 28.63891602 88.33300781 C27.60446308 84.07784603 26.01668444 80.240344 24.27734375 76.23046875 C23.92039932 75.39380676 23.5634549 74.55714478 23.19569397 73.69512939 C22.05326321 71.02194228 20.90165307 68.35281863 19.75 65.68359375 C19.00268011 63.9364438 18.25593034 62.18904986 17.50976562 60.44140625 C13.86826382 51.92902182 10.17920994 43.43710695 6.4453125 34.96484375 C6.12396835 34.23046082 5.80262421 33.49607788 5.47154236 32.73944092 C1.57538707 23.94888811 -3.25081894 15.40193428 -12.1875 10.93359375 C-16.84846733 10.51928554 -19.49529075 11.01869171 -23.1875 13.93359375 Z M59.8125 228.93359375 C59.531011 233.40628338 59.58068566 237.8906011 59.5625 242.37109375 C59.541875 243.63759766 59.52125 244.90410156 59.5 246.20898438 C59.49484375 247.41619141 59.4896875 248.62339844 59.484375 249.8671875 C59.4750293 250.98150146 59.46568359 252.09581543 59.45605469 253.24389648 C59.57368164 254.13149658 59.69130859 255.01909668 59.8125 255.93359375 C62.89324674 257.98742491 63.51866702 258.1840169 66.99415588 258.18756104 C67.84521912 258.19320068 68.69628235 258.19884033 69.57313538 258.20465088 C70.50363205 258.20060242 71.43412872 258.19655396 72.39282227 258.19238281 C73.86632645 258.19763977 73.86632645 258.19763977 75.36959839 258.20300293 C78.62277249 258.21181916 81.87572987 258.20597186 85.12890625 258.19921875 C87.38427268 258.20056532 89.63963883 258.20250578 91.89500427 258.20501709 C96.62363445 258.20796812 101.35218913 258.20367094 106.08081055 258.19433594 C112.15306124 258.18293494 118.22513527 258.18950518 124.29737949 258.20148087 C128.95465943 258.20869444 133.61189721 258.20641396 138.26917839 258.20122528 C140.50876829 258.19988773 142.74836198 258.20154016 144.98794746 258.20618439 C148.11259283 258.21124205 151.23694857 258.20355032 154.36157227 258.19238281 C155.29409317 258.19643127 156.22661407 258.20047974 157.18739319 258.20465088 C158.4597583 258.19619141 158.4597583 258.19619141 159.75782776 258.18756104 C160.86643079 258.18642996 160.86643079 258.18642996 161.99742985 258.18527603 C164.06348221 258.08480179 164.06348221 258.08480179 165.8125 255.93359375 C166.10770182 253.13349354 166.10770182 253.13349354 166.04296875 249.8671875 C166.04103516 248.65998047 166.03910156 247.45277344 166.03710938 246.20898438 C166.02486328 244.94248047 166.01261719 243.67597656 166 242.37109375 C165.99935547 241.10072266 165.99871094 239.83035156 165.99804688 238.52148438 C166.52563043 232.85273882 166.52563043 232.85273882 164.8125 227.93359375 C163.4614268 227.83613064 162.10531627 227.80727796 160.75073242 227.80661011 C159.8757309 227.80379028 159.00072937 227.80097046 158.09921265 227.79806519 C157.13190216 227.80008942 156.16459167 227.80211365 155.16796875 227.80419922 C154.15505768 227.8024469 153.14214661 227.80069458 152.09854126 227.79888916 C148.73234369 227.79446853 145.36619816 227.79740938 142 227.80078125 C139.67211904 227.80010827 137.34423814 227.7991383 135.01635742 227.79788208 C130.13036431 227.79640482 125.24438944 227.79856057 120.35839844 227.80322266 C114.07977344 227.80891995 107.80119118 227.8056411 101.52256775 227.79965019 C96.71349767 227.79604534 91.90443781 227.79718282 87.09536743 227.79977798 C84.77959183 227.80044746 82.46381531 227.79961811 80.14804077 227.79729843 C76.91767909 227.79477314 73.68738767 227.79861076 70.45703125 227.80419922 C69.00606552 227.80116287 69.00606552 227.80116287 67.52578735 227.79806519 C66.65078583 227.80088501 65.7757843 227.80370483 64.87426758 227.80661011 C64.10955643 227.80698713 63.34484528 227.80736416 62.55696106 227.80775261 C60.78352957 227.74443173 60.78352957 227.74443173 59.8125 228.93359375 Z " fill="#000000" transform="translate(52.1875,231.06640625)"/>
<path d="M0 0 C9.22973719 4.79011677 13.97085842 12.78757525 17.1875 22.4375 C18.75379961 36.85822063 14.77167897 48.88679177 10.0625 62.375 C9.332255 64.5274867 8.60450979 66.68082294 7.87915039 68.83496094 C6.39559224 73.22957694 4.89869164 77.6192745 3.39013672 82.00537109 C1.30702512 88.07068422 -0.72926168 94.15064691 -2.74609375 100.23828125 C-3.05542847 101.17167831 -3.36476318 102.10507538 -3.68347168 103.0667572 C-4.28963642 104.89620512 -4.89569761 106.72568735 -5.50164795 108.5552063 C-7.1281254 113.45742911 -8.7674519 118.35536158 -10.41098022 123.25189209 C-11.83410911 127.49530903 -13.2422231 131.74311205 -14.6328125 135.99731445 C-14.93976547 136.93138123 -15.24671844 137.865448 -15.56297302 138.82781982 C-16.14927587 140.61301596 -16.73211479 142.3993553 -17.3106842 144.18707275 C-25.78016094 169.90229826 -42.01162874 181.99156842 -63.99487305 196.54418945 C-76.63269862 204.15622994 -76.63269862 204.15622994 -86.8125 214.4375 C-86.13703125 214.66824219 -85.4615625 214.89898437 -84.765625 215.13671875 C-79.48859212 217.06603857 -75.81715594 218.42974009 -72.8125 223.4375 C-72.45776611 223.98744629 -72.10303223 224.53739258 -71.73754883 225.10400391 C-70.41028721 228.45210803 -70.50726413 231.72446081 -70.51171875 235.2734375 C-70.50743362 236.03040924 -70.5031485 236.78738098 -70.49873352 237.56729126 C-70.49300104 239.16594444 -70.49248199 240.7646237 -70.49682617 242.36328125 C-70.49998035 244.79733291 -70.47653527 247.23016149 -70.45117188 249.6640625 C-70.44889803 251.22135264 -70.44819578 252.77864603 -70.44921875 254.3359375 C-70.440009 255.05800385 -70.43079926 255.78007019 -70.42131042 256.52401733 C-70.47021221 261.92044972 -71.61674442 266.08530381 -75.34765625 270.08203125 C-79.3291358 273.12669208 -81.36982604 274.55911006 -86.34051514 274.58467102 C-87.77045303 274.59540398 -87.77045303 274.59540398 -89.22927856 274.60635376 C-90.80332962 274.61038712 -90.80332962 274.61038712 -92.40917969 274.61450195 C-94.0630217 274.62435875 -94.0630217 274.62435875 -95.75027466 274.63441467 C-99.41164207 274.65418128 -103.0729684 274.66581782 -106.734375 274.67578125 C-107.98276405 274.67985678 -109.23115311 274.6839323 -110.51737213 274.68813133 C-116.44299603 274.70685225 -122.36860681 274.72141456 -128.29425311 274.7297433 C-135.13030053 274.73951056 -141.9660237 274.7658154 -148.80195689 274.80624419 C-154.72541955 274.84007171 -160.648803 274.85189076 -166.57236481 274.85594749 C-169.09057056 274.86082414 -171.60877258 274.87246857 -174.12691498 274.89098549 C-177.6509542 274.91528809 -181.17414512 274.91442761 -184.69824219 274.9074707 C-185.73951263 274.92028076 -186.78078308 274.93309082 -187.85360718 274.94628906 C-193.8446785 274.90316015 -197.24236796 274.4123558 -201.8125 270.4375 C-206.34901235 265.41055388 -206.98165106 261.56846645 -207.05078125 254.98828125 C-207.06288887 253.89111031 -207.06288887 253.89111031 -207.07524109 252.77177429 C-207.08906363 251.22262935 -207.09979397 249.67345419 -207.10766602 248.12426758 C-207.11915732 246.55028269 -207.13956404 244.9763359 -207.16918945 243.40258789 C-207.47800261 226.99063528 -207.47800261 226.99063528 -202.8125 220.4375 C-200.98828125 218.5625 -200.98828125 218.5625 -199.125 217.4375 C-198.22201172 216.8496875 -198.22201172 216.8496875 -197.30078125 216.25 C-194.71164533 215.40456786 -192.86338448 215.35508449 -190.15698242 215.38671875 C-188.93769295 215.39771606 -188.93769295 215.39771606 -187.69377136 215.40893555 C-187.07295181 215.41836182 -186.45213226 215.42778809 -185.8125 215.4375 C-185.58030762 214.37305664 -185.34811523 213.30861328 -185.10888672 212.21191406 C-182.72819575 201.36127599 -180.22634284 190.54482368 -177.56787109 179.75878906 C-177.14616875 178.03866162 -176.72953323 176.31728442 -176.31787109 174.59472656 C-172.84850763 160.08747509 -169.26989317 145.63703075 -158.8125 134.4375 C-157.99072266 133.53644531 -157.99072266 133.53644531 -157.15234375 132.6171875 C-149.79483718 125.40521403 -139.2261728 120.65483026 -129.4375 117.75 C-120.56320934 114.72557807 -113.21257608 108.01495641 -105.8125 102.4375 C-102.61529179 100.04710578 -99.40445666 97.67621849 -96.1875 95.3125 C-95.46618896 94.76859619 -94.74487793 94.22469238 -94.00170898 93.66430664 C-87.67977682 89.0140357 -81.83506768 85.94915371 -73.8125 86.25 C-72.389375 86.29060547 -72.389375 86.29060547 -70.9375 86.33203125 C-70.23625 86.36683594 -69.535 86.40164063 -68.8125 86.4375 C-68.7204126 85.78998779 -68.6283252 85.14247559 -68.53344727 84.4753418 C-67.56231658 80.38330686 -65.93868697 76.6871929 -64.27734375 72.83203125 C-63.92039932 71.99395432 -63.5634549 71.15587738 -63.19569397 70.29240417 C-62.43712862 68.51372942 -61.67628388 66.73602529 -60.91333008 64.95922852 C-59.77412123 62.30617488 -58.64126154 59.65049149 -57.50976562 56.99414062 C-53.87149679 48.46849284 -50.18876145 39.96266974 -46.44140625 31.484375 C-46.11953842 30.75285721 -45.79767059 30.02133942 -45.46604919 29.26765442 C-39.83384793 16.59304096 -33.02261769 5.38405706 -19.96484375 -0.52734375 C-13.17276319 -2.75770478 -6.6650414 -2.5869398 0 0 Z M-26.7734375 25.28515625 C-33.4711414 37.14037476 -38.25358758 50.11558954 -43.42167664 62.69287109 C-45.11678759 66.80187628 -46.87197552 70.87805079 -48.68359375 74.9375 C-49.32373413 76.37971924 -49.32373413 76.37971924 -49.97680664 77.85107422 C-50.76104903 79.60743557 -51.55520751 81.35941633 -52.36108398 83.10595703 C-54.3291324 87.52226714 -54.3291324 87.52226714 -54.69140625 92.27734375 C-53.80270627 94.46157082 -52.85383191 96.04511007 -51.375 97.875 C-46.02024601 104.50850121 -46.08293049 112.29704015 -46.8125 120.4375 C-49.48548815 133.87881183 -62.089155 140.47895704 -72.63549805 147.56079102 C-77.44594303 150.79216645 -82.13155603 154.10651387 -86.6875 157.6875 C-90.98621846 161.04192781 -95.3102465 164.33545435 -99.75 167.5 C-100.76964844 168.23347656 -101.78929687 168.96695313 -102.83984375 169.72265625 C-106.60114537 171.89244786 -109.83044126 172.86605324 -114.125 171.9375 C-115.8125 170.4375 -115.8125 170.4375 -116.8125 167.125 C-116.8125 162.52010392 -115.93707299 161.73456519 -112.8125 158.4375 C-110.36180795 156.46691214 -107.7887708 154.70248935 -105.1875 152.9375 C-103.65684815 151.878621 -102.12692421 150.81868917 -100.59765625 149.7578125 C-99.41453857 148.94038574 -99.41453857 148.94038574 -98.20751953 148.10644531 C-93.54810208 144.85957704 -88.96166319 141.51133984 -84.3684082 138.171875 C-80.82706294 135.60114941 -77.27569947 133.05290875 -73.671875 130.5703125 C-73.02887451 130.12381348 -72.38587402 129.67731445 -71.72338867 129.21728516 C-70.53385837 128.39367958 -69.33906444 127.57759837 -68.13793945 126.77099609 C-64.71791055 124.39234385 -62.57737273 122.22537311 -60.8125 118.4375 C-60.27614101 113.61026908 -60.29232099 111.45859214 -62.5 107.125 C-65.83728511 103.24653352 -68.07485274 101.66275057 -73.1875 101 C-80.47902425 101.88001155 -86.40120799 107.1840132 -92.1875 111.4375 C-93.78507663 112.59386001 -95.38273485 113.75010731 -96.98046875 114.90625 C-100.09041246 117.16757444 -103.17270158 119.460237 -106.23828125 121.78125 C-114.10129689 127.65098894 -120.99827134 131.6534648 -130.43359375 134.375 C-139.38927442 137.19112155 -147.52328267 142.8453916 -152.32180786 151.00352478 C-155.97317302 158.15731278 -158.38818528 165.07859036 -160.2421875 172.87890625 C-160.5222464 174.0090062 -160.8023053 175.13910614 -161.09085083 176.30345154 C-161.67363863 178.66560122 -162.24974296 181.02940933 -162.81933594 183.39477539 C-163.69357979 187.02524756 -164.58714158 190.65053829 -165.484375 194.27539062 C-166.05058517 196.58045777 -166.61572851 198.88578729 -167.1796875 201.19140625 C-167.4452243 202.27571426 -167.71076111 203.36002228 -167.98434448 204.47718811 C-168.22524811 205.47930832 -168.46615173 206.48142853 -168.71435547 207.51391602 C-169.03362503 208.8352932 -169.03362503 208.8352932 -169.35934448 210.18336487 C-169.91104491 212.54448712 -169.91104491 212.54448712 -169.8125 215.4375 C-148.0325 215.4375 -126.2525 215.4375 -103.8125 215.4375 C-101.8325 211.4775 -99.8525 207.5175 -97.8125 203.4375 C-95.23828125 200.42578125 -95.23828125 200.42578125 -92.8125 198.4375 C-92.06355469 197.81230469 -91.31460938 197.18710937 -90.54296875 196.54296875 C-83.48313007 191.21826707 -76.18411687 186.31823286 -68.8125 181.4375 C-44.57697615 165.33670498 -35.67070931 151.71211974 -26.6875 124.25 C-25.93326576 121.96245455 -25.17736845 119.67546192 -24.42153931 117.38844299 C-23.85975362 115.68797727 -23.29855501 113.98731751 -22.73788452 112.28648376 C-20.28898186 104.86168778 -17.81593286 97.44504413 -15.33742905 90.03009224 C-14.65633735 87.99244882 -13.9754865 85.95472509 -13.29470825 83.91697693 C-9.55996328 72.73828805 -9.55996328 72.73828805 -7.82659912 67.55606079 C-6.53631365 63.69810701 -5.24856098 59.8393118 -3.9609375 55.98046875 C-3.57184204 54.81832855 -3.18274658 53.65618835 -2.78186035 52.45883179 C2.61822723 37.50353107 2.61822723 37.50353107 1 22.0625 C-2.22313393 17.39451293 -5.17647261 13.98667237 -10.8125 12.8125 C-17.96544127 13.00582274 -23.04578294 19.87188896 -26.7734375 25.28515625 Z M-191.8125 231.4375 C-192.06630234 235.91081958 -191.99772721 240.3953346 -192 244.875 C-192.01224609 246.14150391 -192.02449219 247.40800781 -192.03710938 248.71289062 C-192.03904297 249.92009766 -192.04097656 251.12730469 -192.04296875 252.37109375 C-192.04707764 253.48540771 -192.05118652 254.59972168 -192.05541992 255.74780273 C-192.08837172 258.58871961 -192.08837172 258.58871961 -189.8125 260.4375 C-187.9331061 260.74013835 -187.9331061 260.74013835 -185.75782776 260.69146729 C-184.90958435 260.69710693 -184.06134094 260.70274658 -183.18739319 260.70855713 C-182.25487228 260.70450867 -181.32235138 260.70046021 -180.36157227 260.69628906 C-179.38098846 260.6997937 -178.40040466 260.70329834 -177.3901062 260.70690918 C-174.13630167 260.71573909 -170.88271314 260.70987241 -167.62890625 260.703125 C-165.37450621 260.7044714 -163.12010644 260.70641171 -160.8657074 260.70892334 C-156.13529706 260.7118764 -151.40496214 260.70757149 -146.67456055 260.69824219 C-140.60350057 260.68685412 -134.53261753 260.69340196 -128.46156406 260.70538712 C-123.80424155 260.71260635 -119.14696114 260.71031737 -114.48963737 260.70513153 C-112.25087399 260.70379487 -110.01210681 260.70544331 -107.77334785 260.71009064 C-104.64640269 260.71515612 -101.51974589 260.70744485 -98.39282227 260.69628906 C-96.99707726 260.70236176 -96.99707726 260.70236176 -95.57313538 260.70855713 C-94.29654053 260.70009766 -94.29654053 260.70009766 -92.99415588 260.69146729 C-91.88498731 260.69033621 -91.88498731 260.69033621 -90.75341129 260.68918228 C-88.48797365 260.54116331 -88.48797365 260.54116331 -85.8125 258.4375 C-85.37832439 255.64206226 -85.37832439 255.64206226 -85.484375 252.37109375 C-85.49210937 250.5602832 -85.49210937 250.5602832 -85.5 248.71289062 C-85.520625 247.44638672 -85.54125 246.17988281 -85.5625 244.875 C-85.57023437 242.96944336 -85.57023437 242.96944336 -85.578125 241.02539062 C-85.07790118 235.35565959 -85.07790118 235.35565959 -86.8125 230.4375 C-88.1635732 230.34003689 -89.51968373 230.31118421 -90.87426758 230.31051636 C-91.7492691 230.30769653 -92.62427063 230.30487671 -93.52578735 230.30197144 C-94.49309784 230.30399567 -95.46040833 230.3060199 -96.45703125 230.30810547 C-97.46994232 230.30635315 -98.48285339 230.30460083 -99.52645874 230.30279541 C-102.89265631 230.29837478 -106.25880184 230.30131563 -109.625 230.3046875 C-111.95288096 230.30401452 -114.28076186 230.30304455 -116.60864258 230.30178833 C-121.49463569 230.30031107 -126.38061056 230.30246682 -131.26660156 230.30712891 C-137.54522656 230.3128262 -143.82380882 230.30954735 -150.10243225 230.30355644 C-154.91150233 230.29995159 -159.72056219 230.30108907 -164.52963257 230.30368423 C-166.84540817 230.30435371 -169.16118469 230.30352436 -171.47695923 230.30120468 C-174.70732091 230.29867939 -177.93761233 230.30251701 -181.16796875 230.30810547 C-182.61893448 230.30506912 -182.61893448 230.30506912 -184.09921265 230.30197144 C-184.97421417 230.30479126 -185.8492157 230.30761108 -186.75073242 230.31051636 C-187.51544357 230.31089338 -188.28015472 230.31127041 -189.06803894 230.31165886 C-190.84147043 230.24833798 -190.84147043 230.24833798 -191.8125 231.4375 Z " fill="#000000" transform="translate(485.8125,228.5625)"/>
<path d="M0 0 C0.80595108 -0.02146591 1.61190216 -0.04293182 2.442276 -0.06504822 C5.10087126 -0.1283827 7.7585212 -0.16068357 10.41772461 -0.18725586 C11.79335477 -0.20609235 11.79335477 -0.20609235 13.19677544 -0.22530937 C18.0644787 -0.29108777 22.93171535 -0.33308796 27.79980469 -0.35546875 C31.78819606 -0.377371 35.77259171 -0.43951517 39.75976562 -0.54003906 C81.29178622 -1.56720876 81.29178622 -1.56720876 96.91246033 12.12043762 C114.33082003 26.65813675 141.81396485 33.6351376 163.48022461 38.80493164 C164.22393311 38.9829834 164.9676416 39.16103516 165.73388672 39.34448242 C167.7404423 39.81460145 169.75275783 40.25994415 171.76538086 40.70336914 C174.75756836 41.66040039 174.75756836 41.66040039 176.75756836 44.66040039 C177.01483727 47.08202267 177.01483727 47.08202267 177.0249939 50.01170349 C177.03778885 51.67840088 177.03778885 51.67840088 177.05084229 53.37876892 C177.04993591 54.5989119 177.04902954 55.81905487 177.0480957 57.07617188 C177.05481293 58.36121613 177.06153015 59.64626038 177.06845093 60.97024536 C177.08614742 64.50230865 177.09080858 68.03427503 177.0920825 71.56637836 C177.09350567 73.78120662 177.09777902 75.99601042 177.10307693 78.2108326 C177.12160811 85.96267373 177.12974605 93.71444606 177.12817383 101.46630859 C177.12698023 108.64665895 177.14791941 115.82670488 177.17966115 123.00697845 C177.20603695 129.19839724 177.21653191 135.38971819 177.21526301 141.58119255 C177.21475841 145.26625207 177.22015426 148.95104277 177.24161911 152.63604546 C177.44707016 190.59746577 168.45558356 223.34088094 144.75756836 253.66040039 C143.66702148 255.06612305 143.66702148 255.06612305 142.55444336 256.50024414 C118.26792246 286.94575685 76.89216554 325.52288569 36.7043457 330.93701172 C31.54140362 331.15009151 27.38047216 329.82981957 22.69506836 327.91040039 C21.93411865 327.60529541 21.17316895 327.30019043 20.38916016 326.98583984 C4.3012976 320.32273372 -11.171113 311.92472419 -25.24243164 301.66040039 C-25.78480469 301.26675293 -26.32717773 300.87310547 -26.88598633 300.4675293 C-43.40813408 288.36547679 -58.54777144 274.75885649 -71.24243164 258.66040039 C-72.0584082 257.64977539 -72.87438477 256.63915039 -73.71508789 255.59790039 C-80.00764201 247.71849648 -85.35211242 239.47452867 -90.24243164 230.66040039 C-90.5957959 230.02763184 -90.94916016 229.39486328 -91.31323242 228.74291992 C-95.50195201 221.13286501 -98.89250773 213.43374556 -101.55493164 205.16040039 C-101.785271 204.45044922 -102.01561035 203.74049805 -102.25292969 203.0090332 C-102.99164973 200.57464568 -103.61910303 198.12705317 -104.24243164 195.66040039 C-104.49663879 194.69833679 -104.75084595 193.73627319 -105.01275635 192.74505615 C-108.12905644 178.966442 -107.70116926 164.95668022 -107.67833972 150.90939617 C-107.67521795 147.93898546 -107.68137135 144.96862094 -107.68737847 141.99821687 C-107.70133072 134.99706188 -107.69993371 127.99602924 -107.68847656 120.99487305 C-107.67693481 113.78267884 -107.69119282 106.57085387 -107.71787304 99.35870814 C-107.74000932 93.14093822 -107.74667418 86.92328448 -107.74079663 80.70547795 C-107.73742924 77.00213681 -107.7398306 73.29903377 -107.75704765 69.59572601 C-107.77535163 65.48130113 -107.76135178 61.3676033 -107.74414062 57.25317383 C-107.75380859 56.03034195 -107.76347656 54.80751007 -107.7734375 53.54762268 C-107.76360336 52.42933578 -107.75376923 51.31104889 -107.74363708 50.15887451 C-107.7434278 49.18780636 -107.74321852 48.2167382 -107.74300289 47.21624374 C-107.09734261 43.91959711 -105.82217899 42.74328014 -103.24243164 40.66040039 C-100.81079102 39.76660156 -100.81079102 39.76660156 -98.08618164 39.20336914 C-96.567948 38.87127441 -96.567948 38.87127441 -95.01904297 38.5324707 C-93.93776123 38.3065625 -92.85647949 38.0806543 -91.74243164 37.84790039 C-63.80212389 31.54028904 -34.40370864 20.37817538 -11.61061096 2.60862732 C-7.64287324 0.31360299 -4.46038864 0.03595493 0 0 Z M-16.24243164 23.66040039 C-18.02987864 24.73152118 -19.82680463 25.78734838 -21.64086914 26.81274414 C-22.86410889 27.504729 -22.86410889 27.504729 -24.11206055 28.21069336 C-44.10195961 39.27896528 -65.65761147 47.82500779 -88.01586914 52.73266602 C-88.8117041 52.90785767 -89.60753906 53.08304932 -90.42749023 53.2635498 C-91.0264209 53.3945105 -91.62535156 53.52547119 -92.24243164 53.66040039 C-92.33635257 69.64746383 -92.40664259 85.63443621 -92.44968033 101.62170982 C-92.4702049 109.04681052 -92.498129 116.47173867 -92.54418945 123.89672852 C-92.58437015 130.3770497 -92.60993763 136.85724577 -92.61878562 143.33768809 C-92.62394828 146.76120623 -92.63586377 150.18436682 -92.66535187 153.60776901 C-93.00823196 198.41455675 -75.96144818 233.36058666 -44.97216797 265.16503906 C-38.73895355 271.45259563 -32.28516874 277.28039905 -25.24243164 282.66040039 C-24.70602051 283.07854004 -24.16960937 283.49667969 -23.61694336 283.92749023 C-10.39586237 294.20222315 3.8665387 302.47463515 18.94506836 309.72290039 C20.09313965 310.2780835 20.09313965 310.2780835 21.2644043 310.84448242 C29.83354927 314.93679714 29.83354927 314.93679714 39.08178711 314.92993164 C40.74661133 314.20870117 40.74661133 314.20870117 42.44506836 313.47290039 C43.07026367 313.20316406 43.69545898 312.93342773 44.33959961 312.65551758 C69.79664937 301.36448055 92.19766148 286.30199302 112.28198242 267.07299805 C113.6488385 265.7644889 115.02695816 264.4677731 116.40600586 263.17211914 C123.27025288 256.55689054 129.11723525 249.32112084 134.75756836 241.66040039 C135.18569824 241.08193359 135.61382812 240.5034668 136.05493164 239.9074707 C151.8160983 218.30636426 162.1559569 192.84603864 161.98461914 165.93701172 C161.98491119 164.71620911 161.98520325 163.49540649 161.98550415 162.23760986 C161.98435868 158.92628268 161.97440562 155.61521233 161.96035624 152.30393052 C161.94775899 148.82996281 161.94667135 145.35599081 161.94430542 141.88200378 C161.93811685 135.31975901 161.92174199 128.75758175 161.90160644 122.19536656 C161.87916522 114.7176333 161.86823344 107.23989662 161.85821557 99.76213801 C161.83737309 84.39485318 161.80224878 69.02763553 161.75756836 53.66040039 C161.18079786 53.51767039 160.60402737 53.3749404 160.00977898 53.22788525 C157.3744135 52.57488133 154.7395729 51.91978305 152.10473633 51.26464844 C151.19737228 51.04014763 150.29000824 50.81564682 149.35514832 50.58434296 C143.44313591 49.11235638 137.61594413 47.54692685 131.88256836 45.47290039 C131.07489014 45.18374756 130.26721191 44.89459473 129.43505859 44.59667969 C89.68865725 29.99495068 89.68865725 29.99495068 75.98388672 17.03808594 C70.17521707 12.89182707 62.47654416 13.85851006 55.63256836 13.85571289 C54.04182186 13.84215895 52.45108261 13.82772892 50.86035156 13.81246948 C47.52821114 13.78710027 44.19672409 13.78175806 40.86450195 13.78881836 C36.63517635 13.79488437 32.40946817 13.73726399 28.1809082 13.66215706 C24.89291216 13.61356179 21.60575596 13.60713781 18.31744385 13.61181259 C16.76114477 13.60781113 15.20480441 13.5896873 13.64886475 13.55600357 C1.24940479 13.3152392 -6.16330063 16.61576027 -16.24243164 23.66040039 Z " fill="#000000" transform="translate(221.242431640625,8.339599609375)"/>
<path d="M0 0 C1.52542032 -0.00914429 3.05083244 -0.01976152 4.57623291 -0.0317688 C7.7637287 -0.04956367 10.95022073 -0.04486914 14.13769531 -0.02490234 C18.18766042 -0.00198337 22.23412149 -0.04226886 26.28362656 -0.10073662 C29.43261091 -0.1377581 32.58077927 -0.13681764 35.72992706 -0.12546158 C37.22083689 -0.12515843 38.711808 -0.13697208 40.20250702 -0.16204453 C51.64037304 -0.32729122 58.13881636 2.32524649 67.265625 8.8671875 C85.27809519 19.27965721 104.16930522 27.07478686 123.90893555 33.52270508 C124.69824463 33.78720459 125.48755371 34.0517041 126.30078125 34.32421875 C126.9956665 34.55085205 127.69055176 34.77748535 128.40649414 35.01098633 C130.60798575 36.02485778 131.73270552 36.98632316 133.265625 38.8671875 C133.64594173 40.93799019 133.64594173 40.93799019 133.65330505 43.36550903 C133.66320969 44.28745056 133.67311432 45.20939209 133.68331909 46.15927124 C133.67881744 47.16906036 133.6743158 48.17884949 133.66967773 49.21923828 C133.67654099 50.28476929 133.68340424 51.35030029 133.69047546 52.44812012 C133.7088369 55.98638091 133.70488797 59.52420154 133.69921875 63.0625 C133.7037805 65.52855575 133.70908606 67.99461022 133.71510315 70.46066284 C133.72405588 75.64423766 133.72159168 80.82765867 133.71166992 86.01123047 C133.70025744 92.61350118 133.72026179 99.21523088 133.74958706 105.8174305 C133.76806623 110.92055579 133.76763201 116.02355476 133.76194954 121.12670517 C133.76179732 123.55765408 133.76775814 125.9886121 133.78024101 128.41952896 C133.96314865 169.9317187 116.73648243 201.33593126 87.953125 230.4921875 C71.53958056 246.80009201 52.04622841 259.7833022 31.265625 269.8671875 C30.26273437 270.35445313 29.25984375 270.84171875 28.2265625 271.34375 C22.40300976 273.93004079 18.39732425 274.39479327 12.18164062 272.09667969 C9.86495291 271.09924557 7.59595524 270.03369844 5.328125 268.9296875 C4.49982178 268.53072266 3.67151855 268.13175781 2.81811523 267.72070312 C-37.05423079 248.10297496 -74.35662319 213.29378877 -89.734375 170.8671875 C-93.23901205 160.47519932 -94.88159758 150.89217749 -94.92724609 139.96826172 C-94.93951233 138.33798538 -94.93951233 138.33798538 -94.95202637 136.67477417 C-94.97677332 133.09047997 -94.99336233 129.50622488 -95.0078125 125.921875 C-95.01313618 124.69672306 -95.01845985 123.47157112 -95.02394485 122.20929337 C-95.05062029 115.73377357 -95.07001955 109.25827274 -95.08447266 102.78271484 C-95.09686557 97.41862387 -95.12511962 92.05486157 -95.16650391 86.69091797 C-95.21567435 80.21304036 -95.24057326 73.73550639 -95.24769974 67.2574501 C-95.25443046 64.78781504 -95.26969932 62.31818819 -95.29359055 59.84865952 C-95.32506081 56.40113548 -95.32530651 52.95495299 -95.31787109 49.50732422 C-95.33427643 48.48384888 -95.35068176 47.46037354 -95.36758423 46.40588379 C-95.30634111 39.49112023 -95.30634111 39.49112023 -92.35124207 36.26753235 C-89.80484085 34.90489537 -87.46277797 33.87634845 -84.69921875 33.04296875 C-83.25349487 32.59087036 -83.25349487 32.59087036 -81.77856445 32.12963867 C-80.75335693 31.81615479 -79.72814941 31.5026709 -78.671875 31.1796875 C-63.22714581 26.2286624 -48.93057074 19.63022579 -34.546875 12.1796875 C-33.27324097 11.52069458 -33.27324097 11.52069458 -31.97387695 10.84838867 C-31.15878662 10.4176001 -30.34369629 9.98681152 -29.50390625 9.54296875 C-28.79854736 9.17083252 -28.09318848 8.79869629 -27.36645508 8.4152832 C-24.79520056 7.00202001 -24.79520056 7.00202001 -22.98660278 5.39434814 C-15.89196966 -0.23556152 -8.6566372 -0.04575446 0 0 Z M-27.60437012 25.4440918 C-32.13594545 28.47172119 -37.07378256 30.71147327 -41.984375 33.0546875 C-42.87253906 33.49748047 -43.76070312 33.94027344 -44.67578125 34.39648438 C-55.97141639 39.83031156 -67.92179027 43.72416932 -79.734375 47.8671875 C-79.8509345 60.70771005 -79.93942508 73.54810388 -79.99343586 86.38905048 C-80.01937642 92.35355311 -80.05448638 98.31769012 -80.11157227 104.28198242 C-80.16645138 110.0527365 -80.19591192 115.82314201 -80.20876122 121.59413719 C-80.2179018 123.78065658 -80.23574667 125.96715989 -80.26302528 128.15352821 C-80.64937746 160.44440865 -69.01411898 187.40649458 -46.7890625 210.92578125 C-45.1269374 212.59869937 -43.44013893 214.23895829 -41.734375 215.8671875 C-36.734375 220.8671875 -36.734375 220.8671875 -35.24023438 222.41845703 C-31.01038702 226.76138198 -26.56270673 230.58184687 -21.734375 234.2421875 C-20.99453369 234.80381592 -20.25469238 235.36544434 -19.49243164 235.9440918 C-13.13241693 240.69796669 -6.59933356 244.96176771 0.34912109 248.80126953 C1.683021 249.54315577 3.00835022 250.30057585 4.32666016 251.06982422 C6.41458424 252.28516862 8.52255869 253.45532954 10.640625 254.6171875 C11.2704126 254.98948486 11.9002002 255.36178223 12.54907227 255.74536133 C16.30411677 257.72095026 18.60225664 258.12617718 22.69921875 256.85546875 C27.29062712 255.00226277 31.64976431 252.74546346 35.953125 250.3046875 C36.73131592 249.86632568 37.50950684 249.42796387 38.3112793 248.97631836 C50.68867421 241.87943827 61.51885073 233.19485541 72.265625 223.8671875 C73.55689641 222.80420717 74.84848024 221.74160602 76.140625 220.6796875 C79.22109162 218.03063758 81.83983786 215.07528474 84.4609375 211.9765625 C85.65261147 210.58369682 86.87665199 209.21781154 88.1328125 207.8828125 C105.23254967 189.61562339 118.47747049 164.36367978 118.37915039 139.02807617 C118.37936943 137.54931503 118.37936943 137.54931503 118.3795929 136.04067993 C118.37889737 132.78881616 118.37112181 129.53700999 118.36328125 126.28515625 C118.36141579 124.02785778 118.35999249 121.77055891 118.35899353 119.51325989 C118.35517843 113.57686238 118.34535672 107.64048939 118.33428955 101.70410156 C118.3240538 95.64453463 118.31949127 89.58496372 118.31445312 83.52539062 C118.30373357 71.63931215 118.28666921 59.75325187 118.265625 47.8671875 C117.58685303 47.6308812 116.90808105 47.39457489 116.20874023 47.15110779 C103.26408283 42.62410691 90.54593712 38.05541311 78.265625 31.9296875 C77.13769531 31.38634766 76.00976562 30.84300781 74.84765625 30.28320312 C64.98154381 25.45048025 64.98154381 25.45048025 60.58496094 22.24707031 C48.68457785 13.83437858 37.54102275 13.25395047 23.2109375 13.45361328 C19.53100593 13.49202694 15.86629841 13.41319022 12.1875 13.32421875 C-3.85146476 13.21147451 -14.41649835 16.39919255 -27.60437012 25.4440918 Z " fill="#000000" transform="translate(236.734375,36.1328125)"/>
<path d="M0 0 C5.07797445 3.23143829 7.59295183 7.36512556 9.75 12.9375 C10.6398109 20.27843994 10.05652573 25.70346968 6 32 C0.10658502 38.78844296 -8.00527164 43.63235551 -15.33984375 48.73046875 C-20.10109677 52.05019545 -24.77450645 55.48162396 -29.4375 58.9375 C-35.59707531 63.49806307 -41.77875571 68.02389694 -48 72.5 C-54.36652197 77.08083303 -60.69263303 81.71308698 -67 86.375 C-69.32815368 88.09010046 -71.65713095 89.80407074 -73.98681641 91.51708984 C-75.70688305 92.78409018 -77.42228704 94.05741639 -79.13671875 95.33203125 C-86.62409452 100.77843782 -93.51817542 104.38915999 -103 103 C-112.52178915 100.59954895 -116.97029934 93.43581814 -121.88671875 85.44921875 C-122.82651252 83.86564227 -123.75992721 82.2782657 -124.6875 80.6875 C-125.7183753 78.941185 -126.74963753 77.19509837 -127.78125 75.44921875 C-128.30589844 74.5576709 -128.83054688 73.66612305 -129.37109375 72.74755859 C-131.0293255 69.9505352 -132.71334186 67.17068754 -134.40625 64.39453125 C-134.95579346 63.49065674 -135.50533691 62.58678223 -136.0715332 61.65551758 C-137.12912489 59.91757759 -138.19003362 58.18165074 -139.25463867 56.44799805 C-139.7313501 55.66078369 -140.20806152 54.87356934 -140.69921875 54.0625 C-141.12033936 53.37285156 -141.54145996 52.68320313 -141.9753418 51.97265625 C-144.86375872 46.41192031 -144.80111756 39.92763572 -143.0625 34 C-140.9114544 28.75228005 -136.49821459 25.26772473 -132 22 C-125.7162238 19.90540793 -117.69059057 19.8041152 -111.5625 22.5 C-107.19225711 25.15303726 -104.70807944 28.74092961 -102 33 C-101.59394531 33.63744141 -101.18789062 34.27488281 -100.76953125 34.93164062 C-97.80651842 39.59690009 -94.89202555 44.29045642 -92 49 C-88.34080579 47.34234094 -85.17680987 45.09575526 -81.9375 42.75 C-81.03209473 42.09898315 -81.03209473 42.09898315 -80.10839844 41.43481445 C-74.14619388 37.13419559 -68.23583347 32.76294879 -62.32324219 28.39453125 C-55.33039147 23.2316115 -48.29932568 18.12389441 -41.23828125 13.0546875 C-38.4901707 11.08114093 -35.75951051 9.08706655 -33.04296875 7.0703125 C-32.11061401 6.38533691 -32.11061401 6.38533691 -31.15942383 5.68652344 C-29.50577887 4.47112041 -27.85809354 3.24762014 -26.2109375 2.0234375 C-17.46385004 -3.48871737 -9.44902341 -4.62483846 0 0 Z M-18.5625 15.6875 C-19.12694824 16.08686768 -19.69139648 16.48623535 -20.27294922 16.89770508 C-22.187853 18.25707577 -24.09421815 19.62787435 -26 21 C-26.68078613 21.48726562 -27.36157227 21.97453125 -28.06298828 22.4765625 C-37.39282267 29.15448939 -46.64442452 35.936423 -55.87329102 42.75292969 C-62.88691307 47.92853391 -69.93383233 53.05631344 -77.01953125 58.1328125 C-79.41633271 59.85037906 -81.78243375 61.59047927 -84.13671875 63.3671875 C-85.43029297 64.33011719 -85.43029297 64.33011719 -86.75 65.3125 C-87.44609375 65.84488281 -88.1421875 66.37726563 -88.859375 66.92578125 C-91.80123232 68.40207826 -93.75171394 68.45493012 -97 68 C-100.39810626 65.12025615 -102.53273638 61.78512883 -104.8203125 57.9921875 C-105.16504608 57.42549347 -105.50977966 56.85879944 -105.86495972 56.27493286 C-106.95705014 54.47816809 -108.04150881 52.67696109 -109.125 50.875 C-110.21662306 49.06653324 -111.30988898 47.25911266 -112.40646362 45.4536438 C-113.39721675 43.82142306 -114.38258574 42.18593777 -115.36767578 40.55029297 C-116.89728021 37.95980636 -116.89728021 37.95980636 -119 36 C-122.61649298 35.52828352 -124.37312512 35.58208342 -127.4375 37.625 C-129.24024782 39.88035569 -129.24024782 39.88035569 -128.9609375 42.54296875 C-127.582642 47.50147086 -124.95923959 51.3843011 -122.1875 55.6875 C-121.61016113 56.59927002 -121.03282227 57.51104004 -120.43798828 58.45043945 C-119.23400505 60.35081864 -118.02626734 62.24882395 -116.81494141 64.14453125 C-115.04627882 66.92718899 -113.30579885 69.7253978 -111.57421875 72.53125 C-110.50794577 74.25008268 -109.44154499 75.96883609 -108.375 77.6875 C-107.87895264 78.49469482 -107.38290527 79.30188965 -106.87182617 80.13354492 C-106.40623291 80.87709229 -105.94063965 81.62063965 -105.4609375 82.38671875 C-105.05665527 83.03858154 -104.65237305 83.69044434 -104.23583984 84.36206055 C-102.92260445 86.29000509 -102.92260445 86.29000509 -100 88 C-94.05643535 87.95661632 -90.34405686 84.75091814 -85.8125 81.3125 C-84.63880859 80.44334961 -84.63880859 80.44334961 -83.44140625 79.55664062 C-81.78778134 78.33090432 -80.13761527 77.10048965 -78.49072266 75.86572266 C-75.29582584 73.4725251 -72.08139211 71.1064707 -68.8659668 68.7409668 C-67.27912413 67.57330865 -65.69336084 66.4041823 -64.10864258 65.23364258 C-58.76428838 61.28693336 -53.39200445 57.38129827 -48 53.5 C-39.32863757 47.25570246 -30.71620266 40.93389265 -22.12988281 34.57324219 C-20.17254022 33.12744718 -18.20874646 31.69103132 -16.2421875 30.2578125 C-15.16133763 29.46370593 -14.08059871 28.66944831 -13 27.875 C-12.0925 27.21242187 -11.185 26.54984375 -10.25 25.8671875 C-8.05932091 24.04922811 -6.49277495 22.41898515 -5 20 C-5.0796159 16.735748 -5.51747903 15.46643694 -7.875 13.1875 C-12.42101916 10.64707753 -14.72361243 12.95664383 -18.5625 15.6875 Z " fill="#000000" transform="translate(323,123)"/>
</svg>
