<svg width="752" height="587" viewBox="0 0 752 587" fill="none" xmlns="http://www.w3.org/2000/svg">
<path d="M724.789 424.935L748.789 481.575L749.682 483.68L747.395 483.66L715.987 483.38L714.5 483.367V477.485L716.016 477.5L740.812 477.755L723.407 436.75L703.861 482.747L703.473 483.66H697.144L698.028 481.575L722.028 424.935L723.408 421.675L724.789 424.935Z" fill="#E6B902" stroke="#E6B902" stroke-width="3"/>
<path d="M661.764 424.98C669.446 424.98 675.498 426.307 679.699 429.177H679.698C683.993 432.068 686.208 436.108 686.208 441.168C686.208 444.484 685.08 447.453 682.87 450.019L682.856 450.035C681.068 452.054 678.983 453.685 676.614 454.928L689.043 481.525L690.042 483.66H683.561L683.158 482.794L669.717 453.995L669.1 452.671L670.406 452.018C670.556 451.943 671.115 451.68 672.042 451.248C672.993 450.772 673.668 450.435 674.066 450.236C674.466 449.97 675.089 449.566 675.929 449.026L676.23 448.829C676.881 448.388 677.324 448.007 677.604 447.693C678.031 447.142 678.492 446.53 678.984 445.854L678.99 445.845L678.997 445.836C679.465 445.212 679.796 444.547 680 443.834C680.217 443.017 680.329 442.131 680.329 441.168C680.329 439.4 679.911 437.938 679.128 436.725C678.391 435.583 677.278 434.58 675.716 433.747L675.398 433.582C671.823 431.794 667.3 430.86 661.764 430.86H655.584V483.66H649.705V424.98H661.764Z" fill="#E6B902" stroke="#E6B902" stroke-width="3"/>
<path d="M640.491 424.98V483.66H634.611V424.98H640.491Z" fill="#E6B902" stroke="#E6B902" stroke-width="3"/>
<path d="M603.485 424.02C613.1 424.02 620.033 427.197 623.713 433.919L624.304 435L623.359 435.791L599.84 455.47L599.422 455.82H590.224L593.404 453.168L616.52 433.888C613.963 431.333 609.745 429.9 603.485 429.9C600.384 429.9 597.863 430.243 595.883 430.883L595.864 430.889L595.844 430.895C594.063 431.419 592.366 432.419 590.755 433.948L590.433 434.26C588.897 435.796 587.651 438.172 586.795 441.538L586.793 441.544C585.94 444.833 585.497 449.08 585.497 454.32C585.497 459.559 585.94 463.84 586.795 467.198C587.646 470.48 588.888 472.865 590.435 474.476C592.137 476.114 593.947 477.222 595.865 477.846C597.857 478.429 600.385 478.74 603.485 478.74C610.574 478.74 615.046 476.904 617.451 473.679L618.439 472.354L619.662 473.466L621.774 475.386L622.814 476.332L621.938 477.431C618.029 482.335 611.742 484.62 603.485 484.62C595.475 484.62 589.343 482.409 585.474 477.678L585.107 477.212C581.35 472.272 579.617 464.535 579.617 454.32C579.617 444.104 581.35 436.368 585.107 431.428L585.474 430.962C589.343 426.232 595.475 424.02 603.485 424.02Z" fill="#E6B902" stroke="#E6B902" stroke-width="3"/>
<path d="M528.721 424.98L529.108 425.893L548.656 471.891L568.204 425.893L568.592 424.98H574.921L574.037 427.065L550.037 483.706L548.656 486.964L547.275 483.706L523.275 427.065L522.392 424.98H528.721Z" fill="#E6B902" stroke="#E6B902" stroke-width="3"/>
<path d="M515.334 424.98V483.66H509.454V424.98H515.334Z" fill="#E6B902" stroke="#E6B902" stroke-width="3"/>
<path d="M472.209 424.98V477.78H501.394V483.66H466.329V424.98H472.209Z" fill="#E6B902" stroke="#E6B902" stroke-width="3"/>
<path d="M428.938 412.5C437.123 412.5 443.349 415.044 447.235 420.409H447.236C451.038 425.594 452.807 433.503 452.807 443.856V453.264C452.807 463.62 451.036 471.555 447.241 476.8L447.236 476.807C443.347 482.11 437.12 484.62 428.938 484.62C420.757 484.62 414.53 482.11 410.641 476.807L410.635 476.8C406.839 471.555 405.07 463.62 405.07 453.264V443.856C405.07 433.503 406.839 425.594 410.641 420.409C414.527 415.044 420.753 412.5 428.938 412.5ZM428.938 418.38C425.928 418.38 423.426 418.78 421.396 419.534L421.379 419.541L421.36 419.547C419.502 420.184 417.793 421.276 416.233 422.86L415.923 423.184C414.365 424.853 413.11 427.37 412.251 430.87L412.25 430.876C411.393 434.302 410.95 438.619 410.95 443.856V453.264C410.95 458.497 411.392 462.847 412.249 466.34H412.25C413.108 469.772 414.361 472.263 415.923 473.937L416.234 474.262C417.796 475.852 419.512 476.979 421.382 477.676C423.42 478.371 425.928 478.74 428.938 478.74C431.951 478.74 434.46 478.37 436.499 477.674C438.492 476.93 440.31 475.698 441.954 473.937C443.418 472.367 444.611 470.08 445.462 466.973L445.627 466.34C446.484 462.847 446.927 458.497 446.927 453.264V443.856C446.927 438.619 446.483 434.302 445.627 430.876L445.626 430.87C444.82 427.589 443.666 425.171 442.242 423.507L441.954 423.184C440.311 421.423 438.498 420.227 436.516 419.547L436.498 419.541L436.48 419.534C434.451 418.78 431.949 418.38 428.938 418.38Z" fill="#E6B902" stroke="#E6B902" stroke-width="3"/>
<path d="M347.36 424.02C356.975 424.02 363.908 427.197 367.588 433.919L368.179 435L367.234 435.791L343.715 455.47L343.297 455.82H334.099L337.279 453.168L360.395 433.888C357.838 431.333 353.62 429.9 347.36 429.9C344.259 429.9 341.738 430.243 339.758 430.883L339.738 430.889L339.719 430.895C337.938 431.419 336.241 432.419 334.63 433.948L334.308 434.26C332.772 435.796 331.526 438.172 330.67 441.538L330.668 441.544C329.815 444.833 329.372 449.08 329.372 454.32C329.372 459.559 329.815 463.84 330.67 467.198C331.521 470.48 332.763 472.865 334.31 474.476C336.012 476.114 337.822 477.222 339.74 477.846C341.732 478.429 344.26 478.74 347.36 478.74C354.449 478.74 358.921 476.904 361.326 473.679L362.314 472.354L363.537 473.466L365.649 475.386L366.689 476.332L365.813 477.431C361.904 482.335 355.617 484.62 347.36 484.62C339.35 484.62 333.218 482.409 329.349 477.678L328.982 477.212C325.225 472.272 323.492 464.535 323.492 454.32C323.492 444.104 325.225 436.368 328.982 431.428L329.349 430.962C333.218 426.232 339.35 424.02 347.36 424.02Z" fill="#E6B902" stroke="#E6B902" stroke-width="3"/>
<path d="M281.625 424.98C291.366 424.98 299.305 427.552 305.277 432.845L305.83 433.349C311.458 438.616 314.23 445.66 314.23 454.32C314.23 462.979 311.458 470.024 305.83 475.291L305.277 475.794C299.305 481.088 291.366 483.66 281.625 483.66H272.829V424.98H281.625ZM278.709 477.78H281.625C290.009 477.78 296.471 475.641 301.183 471.526L301.19 471.52L301.627 471.132C306.076 467.079 308.35 461.534 308.35 454.32C308.35 446.873 305.927 441.205 301.19 437.12L301.183 437.114C296.471 432.998 290.009 430.86 281.625 430.86H278.709V477.78Z" fill="#E6B902" stroke="#E6B902" stroke-width="3"/>
<path d="M240.758 424.935L264.758 481.575L265.642 483.66H230.5V477.78H256.79L239.376 436.75L219.829 482.747L219.442 483.66H213.113L213.996 481.575L237.996 424.935L239.377 421.675L240.758 424.935Z" fill="#E6B902" stroke="#E6B902" stroke-width="3"/>
<path d="M176.733 424.98C184.415 424.98 190.467 426.307 194.667 429.177H194.667C198.962 432.068 201.177 436.108 201.177 441.168C201.177 444.484 200.048 447.453 197.838 450.019L197.825 450.035C196.036 452.054 193.952 453.685 191.583 454.928L204.012 481.525L205.01 483.66H198.53L198.126 482.794L184.686 453.995L184.069 452.671L185.375 452.018C185.524 451.943 186.083 451.68 187.01 451.248C187.962 450.772 188.637 450.435 189.035 450.236C189.435 449.97 190.058 449.566 190.898 449.026L191.199 448.829C191.85 448.388 192.292 448.007 192.573 447.693C193 447.142 193.461 446.53 193.953 445.854L193.958 445.845L193.965 445.836C194.433 445.212 194.765 444.547 194.969 443.834C195.185 443.017 195.297 442.131 195.297 441.168C195.297 439.4 194.88 437.938 194.097 436.725C193.36 435.583 192.247 434.58 190.685 433.747L190.367 433.582C186.792 431.794 182.269 430.86 176.733 430.86H170.553V483.66H164.673V424.98H176.733Z" fill="#E6B902" stroke="#E6B902" stroke-width="3"/>
<path d="M122.407 424.98C132.147 424.98 140.086 427.552 146.058 432.845L146.612 433.349C152.24 438.616 155.011 445.66 155.011 454.32C155.011 462.979 152.24 470.024 146.612 475.291L146.058 475.794C140.086 481.088 132.147 483.66 122.407 483.66H113.611V424.98H122.407ZM119.491 477.78H122.407C130.791 477.78 137.253 475.641 141.964 471.526L141.971 471.52L142.409 471.132C146.857 467.079 149.13 461.534 149.13 454.32C149.13 446.873 146.708 441.205 141.971 437.12L141.964 437.114C137.253 432.998 130.791 430.86 122.407 430.86H119.491V477.78Z" fill="#E6B902" stroke="#E6B902" stroke-width="3"/>
<path d="M68.4719 425L68.9182 425.656L97.4739 467.628V425H103.355V483.66H98.1555L97.7131 482.972L69.178 438.604V483.66H63.2981V425H68.4719Z" fill="#E6B902" stroke="#E6B902" stroke-width="3"/>
<path d="M30.8896 414.487L55.3701 481.783L56.1016 483.796H20.5V477.916H47.6904L29.4795 427.836L9.48145 482.809L9.12207 483.796H2.8584L3.59082 481.783L28.0703 414.487L29.4805 410.612L30.8896 414.487Z" fill="#E6B902" stroke="#E6B902" stroke-width="3"/>
<path d="M203.2 577C203.12 577 202.947 577 202.68 577C202.44 577 202.187 577 201.92 577C201.653 577 201.413 577 201.2 577C201.013 577 200.92 577 200.92 577L186.16 557.76C185.947 557.387 185.707 556.973 185.44 556.52C185.2 556.04 185 555.533 184.84 555C184.68 554.44 184.6 553.84 184.6 553.2C184.6 552 184.88 550.933 185.44 550C186 549.04 186.773 548.293 187.76 547.76C188.773 547.2 189.92 546.92 191.2 546.92C192.453 546.92 193.6 547.16 194.64 547.64C195.707 548.093 196.6 548.613 197.32 549.2L196.36 550.52C195.56 549.933 194.747 549.467 193.92 549.12C193.12 548.773 192.307 548.6 191.48 548.6C190.067 548.6 188.893 549.04 187.96 549.92C187.053 550.773 186.6 551.867 186.6 553.2C186.6 553.813 186.693 554.4 186.88 554.96C187.093 555.52 187.293 555.973 187.48 556.32C187.693 556.667 187.813 556.867 187.84 556.92L203.2 577ZM190.08 562.56C189.227 562.56 188.36 562.733 187.48 563.08C186.627 563.4 185.84 563.853 185.12 564.44C184.427 565.027 183.867 565.733 183.44 566.56C183.013 567.36 182.8 568.253 182.8 569.24C182.8 570.493 183.133 571.6 183.8 572.56C184.467 573.493 185.36 574.227 186.48 574.76C187.6 575.293 188.827 575.56 190.16 575.56C191.307 575.56 192.36 575.373 193.32 575C194.307 574.627 195.16 574.133 195.88 573.52C196.6 572.907 197.12 572.24 197.44 571.52L198.68 572.8C197.987 574.08 196.867 575.16 195.32 576.04C193.773 576.893 191.987 577.32 189.96 577.32C188.173 577.32 186.587 576.96 185.2 576.24C183.813 575.52 182.72 574.56 181.92 573.36C181.12 572.133 180.72 570.773 180.72 569.28C180.72 568.107 180.973 567.027 181.48 566.04C182.013 565.027 182.72 564.147 183.6 563.4C184.48 562.653 185.467 562.067 186.56 561.64C187.653 561.213 188.787 560.987 189.96 560.96L190.08 562.56ZM201.4 560.96H203.32L198.88 572.52L197.48 571.44L201.4 560.96ZM249.689 551.8C248.862 551.4 247.849 551.027 246.649 550.68C245.449 550.333 244.249 550.16 243.049 550.16C241.182 550.16 239.689 550.627 238.569 551.56C237.449 552.493 236.889 553.667 236.889 555.08C236.889 556.147 237.209 557.04 237.849 557.76C238.489 558.453 239.329 559.053 240.369 559.56C241.409 560.04 242.515 560.507 243.689 560.96C244.622 561.307 245.542 561.693 246.449 562.12C247.382 562.547 248.222 563.067 248.969 563.68C249.715 564.293 250.302 565.053 250.729 565.96C251.182 566.867 251.409 567.987 251.409 569.32C251.409 570.893 251.035 572.293 250.289 573.52C249.542 574.72 248.502 575.653 247.169 576.32C245.835 576.987 244.289 577.32 242.529 577.32C241.115 577.32 239.822 577.147 238.649 576.8C237.502 576.453 236.489 576.053 235.609 575.6C234.755 575.12 234.075 574.72 233.569 574.4L234.489 572.8C235.075 573.227 235.782 573.653 236.609 574.08C237.462 574.507 238.382 574.867 239.369 575.16C240.355 575.453 241.342 575.6 242.329 575.6C243.475 575.6 244.582 575.373 245.649 574.92C246.742 574.467 247.635 573.787 248.329 572.88C249.049 571.947 249.409 570.773 249.409 569.36C249.409 568 249.075 566.907 248.409 566.08C247.742 565.227 246.889 564.533 245.849 564C244.809 563.467 243.702 562.987 242.529 562.56C241.622 562.213 240.715 561.853 239.809 561.48C238.902 561.08 238.075 560.613 237.329 560.08C236.582 559.52 235.982 558.853 235.529 558.08C235.102 557.307 234.889 556.373 234.889 555.28C234.889 553.92 235.235 552.733 235.929 551.72C236.622 550.707 237.555 549.92 238.729 549.36C239.929 548.773 241.289 548.467 242.809 548.44C244.142 548.44 245.489 548.613 246.849 548.96C248.235 549.307 249.435 549.747 250.449 550.28L249.689 551.8ZM256.931 562.84C256.931 560.84 257.304 558.973 258.051 557.24C258.798 555.48 259.838 553.933 261.171 552.6C262.504 551.24 264.038 550.187 265.771 549.44C267.531 548.667 269.411 548.28 271.411 548.28C273.411 548.28 275.291 548.667 277.051 549.44C278.811 550.187 280.358 551.24 281.691 552.6C283.024 553.933 284.064 555.48 284.811 557.24C285.584 558.973 285.971 560.84 285.971 562.84C285.971 564.84 285.584 566.72 284.811 568.48C284.064 570.213 283.024 571.747 281.691 573.08C280.358 574.413 278.811 575.453 277.051 576.2C275.291 576.947 273.411 577.32 271.411 577.32C269.411 577.32 267.531 576.96 265.771 576.24C264.038 575.52 262.504 574.507 261.171 573.2C259.838 571.893 258.798 570.36 258.051 568.6C257.304 566.84 256.931 564.92 256.931 562.84ZM258.931 562.88C258.931 564.613 259.251 566.24 259.891 567.76C260.531 569.28 261.424 570.613 262.571 571.76C263.718 572.907 265.038 573.813 266.531 574.48C268.051 575.12 269.664 575.44 271.371 575.44C273.131 575.44 274.771 575.12 276.291 574.48C277.811 573.813 279.144 572.907 280.291 571.76C281.438 570.613 282.331 569.28 282.971 567.76C283.638 566.24 283.971 564.6 283.971 562.84C283.971 561.107 283.638 559.48 282.971 557.96C282.331 556.413 281.438 555.067 280.291 553.92C279.144 552.747 277.811 551.827 276.291 551.16C274.771 550.493 273.144 550.16 271.411 550.16C269.651 550.16 268.011 550.507 266.491 551.2C264.971 551.867 263.638 552.787 262.491 553.96C261.371 555.133 260.491 556.493 259.851 558.04C259.238 559.56 258.931 561.173 258.931 562.88ZM316.983 577.68L294.583 552.44L295.103 552.04L295.143 577H293.223V548H293.343L315.743 573.44L315.223 573.6L315.183 548.6H317.063V577.68H316.983ZM326.114 577V548.6H333.114C335.86 548.6 338.194 549.04 340.114 549.92C342.06 550.773 343.634 551.907 344.834 553.32C346.034 554.733 346.914 556.28 347.474 557.96C348.034 559.64 348.314 561.307 348.314 562.96C348.314 565.12 347.94 567.067 347.194 568.8C346.447 570.507 345.42 571.973 344.114 573.2C342.834 574.427 341.367 575.373 339.714 576.04C338.06 576.68 336.314 577 334.474 577H326.114ZM328.074 575.12H333.954C335.66 575.12 337.26 574.84 338.754 574.28C340.247 573.72 341.554 572.907 342.674 571.84C343.82 570.773 344.714 569.493 345.354 568C345.994 566.48 346.314 564.76 346.314 562.84C346.314 561.213 346.034 559.667 345.474 558.2C344.94 556.707 344.127 555.387 343.034 554.24C341.94 553.093 340.594 552.187 338.994 551.52C337.394 550.853 335.527 550.52 333.394 550.52H328.074V575.12ZM351.954 577L363.954 547.36H364.114L376.114 577H373.914L363.474 550.48L364.834 549.72L353.914 577H351.954ZM357.754 565.76H370.354L370.914 567.6H357.274L357.754 565.76ZM403.179 575C402.699 575.32 402.112 575.627 401.419 575.92C400.752 576.187 400.032 576.427 399.259 576.64C398.485 576.853 397.685 577.013 396.859 577.12C396.059 577.253 395.299 577.32 394.579 577.32C392.339 577.32 390.312 576.96 388.499 576.24C386.712 575.493 385.179 574.48 383.899 573.2C382.619 571.893 381.632 570.387 380.939 568.68C380.272 566.947 379.939 565.08 379.939 563.08C379.939 560.92 380.312 558.933 381.059 557.12C381.832 555.307 382.885 553.747 384.219 552.44C385.552 551.107 387.099 550.08 388.859 549.36C390.619 548.64 392.485 548.28 394.459 548.28C395.952 548.28 397.352 548.467 398.659 548.84C399.992 549.213 401.192 549.72 402.259 550.36L401.539 552.12C400.925 551.747 400.232 551.427 399.459 551.16C398.685 550.867 397.885 550.64 397.059 550.48C396.259 550.32 395.459 550.24 394.659 550.24C392.845 550.24 391.165 550.56 389.619 551.2C388.072 551.84 386.725 552.733 385.579 553.88C384.432 555.027 383.539 556.373 382.899 557.92C382.259 559.467 381.939 561.147 381.939 562.96C381.939 564.72 382.232 566.36 382.819 567.88C383.432 569.373 384.285 570.693 385.379 571.84C386.499 572.96 387.832 573.84 389.379 574.48C390.925 575.093 392.645 575.4 394.539 575.4C395.659 575.4 396.832 575.267 398.059 575C399.285 574.733 400.339 574.347 401.219 573.84V565.96H394.819V564.08H403.179V575ZM411.387 548.6H428.907V550.48H413.347V561.76H427.347V563.64H413.347V575.12H429.467V577H411.387V548.6ZM436.934 577V547.96H436.974L450.974 567.84L450.134 567.72L464.094 547.96H464.134V577H462.214V552.48L462.374 553.44L450.534 570.12H450.454L438.534 553.44L438.854 552.56V577H436.934ZM483.05 568.12H490.45V569.8H483.05V568.12ZM523.986 551.8C523.159 551.4 522.146 551.027 520.946 550.68C519.746 550.333 518.546 550.16 517.346 550.16C515.479 550.16 513.986 550.627 512.866 551.56C511.746 552.493 511.186 553.667 511.186 555.08C511.186 556.147 511.506 557.04 512.146 557.76C512.786 558.453 513.626 559.053 514.666 559.56C515.706 560.04 516.812 560.507 517.986 560.96C518.919 561.307 519.839 561.693 520.746 562.12C521.679 562.547 522.519 563.067 523.266 563.68C524.012 564.293 524.599 565.053 525.026 565.96C525.479 566.867 525.706 567.987 525.706 569.32C525.706 570.893 525.332 572.293 524.586 573.52C523.839 574.72 522.799 575.653 521.466 576.32C520.132 576.987 518.586 577.32 516.826 577.32C515.412 577.32 514.119 577.147 512.946 576.8C511.799 576.453 510.786 576.053 509.906 575.6C509.052 575.12 508.372 574.72 507.866 574.4L508.786 572.8C509.372 573.227 510.079 573.653 510.906 574.08C511.759 574.507 512.679 574.867 513.666 575.16C514.652 575.453 515.639 575.6 516.626 575.6C517.772 575.6 518.879 575.373 519.946 574.92C521.039 574.467 521.932 573.787 522.626 572.88C523.346 571.947 523.706 570.773 523.706 569.36C523.706 568 523.372 566.907 522.706 566.08C522.039 565.227 521.186 564.533 520.146 564C519.106 563.467 517.999 562.987 516.826 562.56C515.919 562.213 515.012 561.853 514.106 561.48C513.199 561.08 512.372 560.613 511.626 560.08C510.879 559.52 510.279 558.853 509.826 558.08C509.399 557.307 509.186 556.373 509.186 555.28C509.186 553.92 509.532 552.733 510.226 551.72C510.919 550.707 511.852 549.92 513.026 549.36C514.226 548.773 515.586 548.467 517.106 548.44C518.439 548.44 519.786 548.613 521.146 548.96C522.532 549.307 523.732 549.747 524.746 550.28L523.986 551.8ZM539.588 548.6C541.348 548.6 542.881 548.907 544.188 549.52C545.521 550.107 546.548 551 547.268 552.2C548.014 553.373 548.388 554.853 548.388 556.64C548.388 557.707 548.214 558.747 547.868 559.76C547.548 560.747 547.014 561.64 546.268 562.44C545.548 563.24 544.614 563.88 543.468 564.36C542.348 564.84 540.988 565.08 539.388 565.08H534.988V577H533.028V548.6H539.588ZM539.388 563.2C540.774 563.2 541.921 562.987 542.828 562.56C543.761 562.107 544.481 561.547 544.988 560.88C545.521 560.187 545.894 559.467 546.108 558.72C546.348 557.973 546.468 557.28 546.468 556.64C546.468 555.733 546.321 554.907 546.028 554.16C545.734 553.413 545.294 552.773 544.708 552.24C544.148 551.68 543.454 551.253 542.628 550.96C541.801 550.64 540.854 550.48 539.788 550.48H534.988V563.2H539.388ZM552.896 548.6H571.496V550.48H563.136V577H561.176V550.48H552.896V548.6Z" fill="white"/>
<path d="M725.564 532.389L738.694 502H738.869L752 532.389H749.593L738.169 505.199L739.657 504.42L727.708 532.389H725.564ZM731.91 520.865H745.697L746.31 522.751H731.385L731.91 520.865Z" fill="white"/>
<path d="M703.294 503.271C704.461 503.271 705.613 503.435 706.751 503.763C707.918 504.064 708.969 504.556 709.903 505.24C710.866 505.896 711.639 506.743 712.222 507.782C712.806 508.821 713.098 510.065 713.098 511.514C713.098 512.608 712.923 513.674 712.573 514.713C712.222 515.725 711.653 516.641 710.866 517.461C710.078 518.281 709.056 518.937 707.802 519.429C706.547 519.922 705.001 520.168 703.162 520.168H698.348V532.389H696.203V503.271H703.294ZM703.031 518.24C704.578 518.24 705.861 518.035 706.883 517.625C707.904 517.215 708.706 516.682 709.29 516.026C709.873 515.369 710.282 514.659 710.515 513.893C710.778 513.1 710.909 512.335 710.909 511.596C710.909 510.722 710.734 509.901 710.384 509.136C710.063 508.37 709.582 507.7 708.94 507.126C708.298 506.525 707.525 506.06 706.62 505.732C705.715 505.376 704.709 505.199 703.6 505.199H698.348V518.24H703.031ZM707.495 519.142L716.118 532.389H713.623L704.957 519.183L707.495 519.142Z" fill="white"/>
<path d="M662.85 522.546C662.85 524.241 663.215 525.704 663.944 526.934C664.703 528.165 665.724 529.122 667.008 529.805C668.292 530.461 669.751 530.789 671.385 530.789C673.048 530.789 674.521 530.461 675.805 529.805C677.118 529.122 678.14 528.165 678.869 526.934C679.628 525.704 680.007 524.241 680.007 522.546V503.271H682.108V522.669C682.108 524.774 681.626 526.579 680.664 528.083C679.73 529.586 678.446 530.735 676.812 531.528C675.207 532.32 673.398 532.717 671.385 532.717C669.371 532.717 667.548 532.32 665.914 531.528C664.309 530.735 663.039 529.586 662.106 528.083C661.172 526.579 660.705 524.774 660.705 522.669V503.271H662.85V522.546Z" fill="white"/>
<path d="M628.748 503.271H649.1V505.199H639.953V532.389H637.808V505.199H628.748V503.271Z" fill="white"/>
<path d="M598.912 503.271H618.083V505.199H601.057V516.764H616.376V518.691H601.057V530.461H618.695V532.389H598.912V503.271Z" fill="white"/>
<path d="M566.779 503.271H587.132V505.199H577.984V532.389H575.839V505.199H566.779V503.271Z" fill="white"/>
<path d="M552.844 503.271H554.988V532.389H552.844V503.271Z" fill="white"/>
<path d="M519.49 522.546C519.49 524.241 519.855 525.704 520.585 526.934C521.343 528.165 522.365 529.122 523.648 529.805C524.932 530.461 526.391 530.789 528.025 530.789C529.688 530.789 531.162 530.461 532.446 529.805C533.759 529.122 534.78 528.165 535.51 526.934C536.268 525.704 536.648 524.241 536.648 522.546V503.271H538.749V522.669C538.749 524.774 538.267 526.579 537.304 528.083C536.37 529.586 535.087 530.735 533.453 531.528C531.848 532.32 530.039 532.717 528.025 532.717C526.012 532.717 524.188 532.32 522.554 531.528C520.949 530.735 519.68 529.586 518.746 528.083C517.813 526.579 517.346 524.774 517.346 522.669V503.271H519.49V522.546Z" fill="white"/>
<path d="M493.499 530.461H505.229V532.389H490.479L493.499 530.461ZM472.578 517.871C472.578 515.82 472.986 513.907 473.803 512.129C474.62 510.325 475.758 508.739 477.217 507.372C478.676 505.978 480.354 504.898 482.251 504.132C484.177 503.34 486.234 502.943 488.422 502.943C490.611 502.943 492.668 503.34 494.593 504.132C496.519 504.898 498.212 505.978 499.671 507.372C501.13 508.739 502.268 510.325 503.085 512.129C503.931 513.907 504.354 515.82 504.354 517.871C504.354 519.922 503.931 521.849 503.085 523.653C502.268 525.431 501.13 527.003 499.671 528.37C498.212 529.737 496.519 530.803 494.593 531.569C492.668 532.334 490.611 532.717 488.422 532.717C486.234 532.717 484.177 532.348 482.251 531.61C480.354 530.871 478.676 529.832 477.217 528.493C475.758 527.153 474.62 525.581 473.803 523.777C472.986 521.972 472.578 520.004 472.578 517.871ZM474.766 517.912C474.766 519.689 475.116 521.357 475.817 522.915C476.517 524.474 477.495 525.841 478.749 527.016C480.004 528.192 481.448 529.122 483.082 529.805C484.746 530.461 486.511 530.789 488.378 530.789C490.304 530.789 492.099 530.461 493.762 529.805C495.425 529.122 496.884 528.192 498.139 527.016C499.393 525.841 500.371 524.474 501.071 522.915C501.801 521.357 502.165 519.675 502.165 517.871C502.165 516.094 501.801 514.426 501.071 512.868C500.371 511.309 499.393 509.942 498.139 508.767C496.884 507.564 495.425 506.62 493.762 505.937C492.099 505.253 490.319 504.912 488.422 504.912C486.496 504.912 484.702 505.267 483.039 505.978C481.375 506.661 479.916 507.605 478.662 508.808C477.436 510.011 476.473 511.405 475.773 512.991C475.102 514.549 474.766 516.19 474.766 517.912Z" fill="white"/>
<path d="M449.863 503.271C451.03 503.271 452.183 503.435 453.321 503.763C454.488 504.064 455.538 504.556 456.472 505.24C457.435 505.896 458.208 506.743 458.792 507.782C459.375 508.821 459.667 510.065 459.667 511.514C459.667 512.608 459.492 513.674 459.142 514.713C458.792 515.725 458.223 516.641 457.435 517.461C456.647 518.281 455.626 518.937 454.371 519.429C453.116 519.922 451.57 520.168 449.732 520.168H444.917V532.389H442.772V503.271H449.863ZM449.6 518.24C451.147 518.24 452.431 518.035 453.452 517.625C454.473 517.215 455.276 516.682 455.859 516.026C456.443 515.369 456.851 514.659 457.085 513.893C457.347 513.1 457.479 512.335 457.479 511.596C457.479 510.722 457.304 509.901 456.953 509.136C456.632 508.37 456.151 507.7 455.509 507.126C454.867 506.525 454.094 506.06 453.189 505.732C452.285 505.376 451.278 505.199 450.169 505.199H444.917V518.24H449.6ZM454.065 519.142L462.687 532.389H460.192L451.526 519.183L454.065 519.142Z" fill="white"/>
<path d="M404.779 532.389L417.909 502H418.084L431.215 532.389H428.808L417.384 505.199L418.872 504.42L406.923 532.389H404.779ZM411.125 520.865H424.912L425.525 522.751H410.6L411.125 520.865Z" fill="white"/>
<path d="M301.572 532.389L314.703 502H314.878L328.008 532.389H325.601L314.177 505.199L315.666 504.42L303.717 532.389H301.572ZM307.919 520.865H321.706L322.318 522.751H307.393L307.919 520.865Z" fill="white"/>
<path d="M287.855 503.271H290V532.389H287.855V503.271Z" fill="white"/>
<path d="M262.872 503.271C264.039 503.271 265.192 503.435 266.33 503.763C267.497 504.064 268.547 504.556 269.481 505.24C270.444 505.896 271.217 506.743 271.801 507.782C272.384 508.821 272.676 510.065 272.676 511.514C272.676 512.608 272.501 513.674 272.151 514.713C271.801 515.725 271.232 516.641 270.444 517.461C269.656 518.281 268.635 518.937 267.38 519.429C266.125 519.922 264.579 520.168 262.741 520.168H257.926V532.389H255.781V503.271H262.872ZM262.609 518.24C264.156 518.24 265.44 518.035 266.461 517.625C267.482 517.215 268.285 516.682 268.868 516.026C269.452 515.369 269.86 514.659 270.094 513.893C270.356 513.1 270.488 512.335 270.488 511.596C270.488 510.722 270.313 509.901 269.962 509.136C269.641 508.37 269.16 507.7 268.518 507.126C267.876 506.525 267.103 506.06 266.198 505.732C265.294 505.376 264.287 505.199 263.178 505.199H257.926V518.24H262.609ZM267.074 519.142L275.696 532.389H273.201L264.535 519.183L267.074 519.142Z" fill="white"/>
<path d="M217.788 532.389L230.918 502H231.093L244.224 532.389H241.817L230.393 505.199L231.881 504.42L219.932 532.389H217.788ZM224.134 520.865H237.921L238.534 522.751H223.609L224.134 520.865Z" fill="white"/>
<path d="M206.235 503.271V532.389H204.09V518.691H185.357V532.389H183.213V503.271H185.357V516.805H204.09V503.271H206.235Z" fill="white"/>
<path d="M168.845 533.086L144.334 507.208L144.903 506.798L144.947 532.389H142.846V502.656H142.978L167.488 528.739L166.919 528.903L166.875 503.271H168.932V533.086H168.845Z" fill="white"/>
<path d="M110.516 503.271H129.686V505.199H112.66V516.764H127.979V518.691H112.66V530.461H130.299V532.389H110.516V503.271Z" fill="white"/>
<path d="M97.1571 530.338C96.6319 530.666 95.9899 530.981 95.2313 531.281C94.5018 531.555 93.714 531.801 92.8678 532.02C92.0216 532.238 91.1462 532.402 90.2417 532.512C89.3663 532.648 88.5347 532.717 87.7469 532.717C85.2958 532.717 83.0782 532.348 81.094 531.61C79.139 530.844 77.4612 529.805 76.0606 528.493C74.66 527.153 73.5804 525.608 72.8218 523.859C72.0923 522.081 71.7275 520.168 71.7275 518.117C71.7275 515.902 72.136 513.866 72.9531 512.006C73.7992 510.147 74.9518 508.548 76.4108 507.208C77.8697 505.841 79.5621 504.789 81.4879 504.05C83.4138 503.312 85.4563 502.943 87.6155 502.943C89.2496 502.943 90.7815 503.134 92.2113 503.517C93.6702 503.9 94.9833 504.419 96.1504 505.076L95.3626 506.88C94.6915 506.497 93.9328 506.169 93.0866 505.896C92.2404 505.595 91.3651 505.363 90.4605 505.199C89.5851 505.035 88.7098 504.953 87.8344 504.953C85.8502 504.953 84.0119 505.281 82.3195 505.937C80.6272 506.593 79.1536 507.509 77.8989 508.685C76.6442 509.86 75.6667 511.241 74.9664 512.827C74.2661 514.412 73.916 516.135 73.916 517.994C73.916 519.798 74.2369 521.48 74.8789 523.038C75.55 524.569 76.4837 525.923 77.6801 527.098C78.9056 528.247 80.3645 529.149 82.0569 529.805C83.7493 530.434 85.6314 530.748 87.7031 530.748C88.9286 530.748 90.2125 530.612 91.5547 530.338C92.897 530.065 94.0495 529.668 95.0124 529.149V521.07H88.0095V519.142H97.1571V530.338Z" fill="white"/>
<path d="M59.3295 533.086L34.8191 507.208L35.3881 506.798L35.4318 532.389H33.3309V502.656H33.4622L57.9727 528.739L57.4037 528.903L57.3599 503.271H59.417V533.086H59.3295Z" fill="white"/>
<path d="M1 503.271H20.1707V505.199H3.14466V516.764H18.4637V518.691H3.14466V530.461H20.7834V532.389H1V503.271Z" fill="white"/>
<path d="M318.764 358.022V304.259H197.535L372.025 64.5156L505.178 248.106H554.465L413.362 46.9929H470.201L609.316 236.557C609.581 267.62 592.304 326.162 516.308 327.755C421.312 329.746 399.053 220.229 432.044 183.591L401.836 143.368C377.457 173.767 348.495 258.62 407.003 327.755C465.511 396.891 557.91 373.022 596.199 354.438C620.843 332.8 659 307.047 659 230.584L494.447 0H356.921L93 358.022H318.764Z" fill="white"/>
</svg>
