<svg width="2170" height="374" viewBox="0 0 2170 374" fill="none" xmlns="http://www.w3.org/2000/svg">
<path d="M2113.02 45.5481L2161.22 159.284L2162.11 161.39L2159.82 161.369L2096.75 160.808L2095.27 160.794V152.009L2096.78 152.025L2148.89 152.563L2111.64 64.8137L2071 160.456L2070.61 161.369H2061.18L2062.07 159.284L2110.26 45.5481L2111.64 42.2883L2113.02 45.5481Z" fill="#E6B902" stroke="#E6B902" stroke-width="3"/>
<path d="M1987.86 46.5605C2003.15 46.5605 2014.95 49.2098 2023.02 54.7256H2023.02C2031.25 60.2611 2035.43 67.9134 2035.43 77.5547C2035.43 83.8383 2033.3 89.4518 2029.09 94.3408L2029.08 94.3496L2029.08 94.3574C2025.29 98.6361 2020.82 102.018 2015.69 104.5L2041.27 159.234L2042.26 161.369H2032.59L2032.19 160.504L2005.2 102.672L2004.58 101.349L2005.89 100.695C2006.17 100.555 2007.28 100.031 2009.18 99.1426C2011.16 98.1533 2012.54 97.4631 2013.33 97.0713C2014.12 96.5463 2015.38 95.7229 2017.12 94.6064L2017.75 94.1924C2019.15 93.2467 2020.16 92.3875 2020.83 91.6221C2021.71 90.4928 2022.65 89.2368 2023.66 87.8535L2023.66 87.8447L2023.67 87.8359C2024.72 86.438 2025.47 84.9342 2025.93 83.3193C2026.41 81.534 2026.65 79.6144 2026.65 77.5547C2026.65 73.754 2025.75 70.5267 2024 67.8135C2022.35 65.2648 2019.91 63.0896 2016.59 61.3174L2015.91 60.9688C2008.47 57.2457 1999.14 55.3438 1987.86 55.3438H1973.94V161.369H1965.15V46.5605H1987.86Z" fill="#E6B902" stroke="#E6B902" stroke-width="3"/>
<path d="M1943.63 46.5605V161.369H1934.84V46.5605H1943.63Z" fill="#E6B902" stroke="#E6B902" stroke-width="3"/>
<path d="M1870.83 44.6331C1889.8 44.6331 1903.09 50.8751 1910.12 63.7268L1910.71 64.8069L1909.77 65.5969L1862.54 105.115L1862.12 105.465H1848.38L1851.56 102.814L1899.2 63.0784C1893.79 56.764 1884.49 53.4163 1870.83 53.4163C1864.5 53.4163 1859.27 54.1138 1855.1 55.4641L1855.06 55.4758C1851.22 56.6045 1847.61 58.748 1844.23 61.9592L1843.55 62.6155C1840.21 65.9579 1837.61 71.0112 1835.85 77.925L1835.85 77.9319C1834.09 84.7048 1833.2 93.3701 1833.2 103.965C1833.2 114.556 1834.09 123.287 1835.85 130.192H1835.85C1837.6 136.965 1840.2 142.031 1843.56 145.514C1847.13 148.957 1850.97 151.322 1855.09 152.655C1859.27 153.881 1864.51 154.514 1870.83 154.514C1885.27 154.514 1894.84 150.775 1900.08 143.744L1901.07 142.419L1902.3 143.531L1906.54 147.386L1907.58 148.332L1906.7 149.431C1899.24 158.787 1887.15 163.297 1870.83 163.297C1854.75 163.297 1842.83 158.795 1835.48 149.466L1835.13 149.019C1827.89 139.498 1824.41 124.374 1824.41 103.965C1824.41 83.5564 1827.89 68.4332 1835.13 58.9124L1835.48 58.4641C1842.83 49.1358 1854.75 44.6331 1870.83 44.6331Z" fill="#E6B902" stroke="#E6B902" stroke-width="3"/>
<path d="M1719.7 46.5605L1720.08 47.4736L1760.73 143.118L1801.37 47.4736L1801.76 46.5605H1811.19L1810.3 48.6455L1762.11 162.383L1760.73 165.642L1759.35 162.383L1711.15 48.6455L1710.27 46.5605H1719.7Z" fill="#E6B902" stroke="#E6B902" stroke-width="3"/>
<path d="M1692.31 46.5605V161.369H1683.52V46.5605H1692.31Z" fill="#E6B902" stroke="#E6B902" stroke-width="3"/>
<path d="M1605.71 46.5605V152.586H1664.31V161.369H1596.92V46.5605H1605.71Z" fill="#E6B902" stroke="#E6B902" stroke-width="3"/>
<path d="M1520.33 21.5C1536.45 21.5 1548.42 26.4956 1555.85 36.7637L1556.19 37.2373C1563.31 47.272 1566.75 62.6001 1566.75 82.9531V101.845C1566.75 122.523 1563.2 138.071 1555.86 148.219L1555.85 148.227C1548.41 158.369 1536.45 163.298 1520.33 163.298C1504.21 163.298 1492.24 158.369 1484.8 148.227L1484.8 148.219C1477.46 138.071 1473.91 122.523 1473.91 101.845V82.9531C1473.91 62.6003 1477.34 47.272 1484.46 37.2373L1484.8 36.7637C1492.24 26.4955 1504.21 21.5001 1520.33 21.5ZM1520.33 30.2832C1514.16 30.2832 1508.95 31.1028 1504.66 32.6953L1504.64 32.7021L1504.62 32.708C1500.65 34.0711 1497.02 36.3987 1493.74 39.7295L1493.09 40.4092C1489.72 44.0136 1487.11 49.3377 1485.35 56.5146L1485.35 56.5205C1483.59 63.5591 1482.7 72.3604 1482.7 82.9531V101.845C1482.7 112.434 1483.59 121.3 1485.35 128.47L1485.69 129.77C1487.44 136.166 1489.93 141.004 1493.09 144.388L1493.74 145.069C1497.02 148.41 1500.66 150.806 1504.64 152.289C1508.94 153.758 1514.16 154.515 1520.33 154.515C1526.5 154.515 1531.72 153.758 1536.01 152.289C1540.27 150.707 1544.12 148.086 1547.57 144.388C1550.94 140.78 1553.54 135.517 1555.31 128.476C1557.07 121.304 1557.96 112.436 1557.96 101.845V82.9531C1557.96 72.3604 1557.07 63.5591 1555.31 56.5205L1555.31 56.5146C1553.6 49.5618 1551.1 44.348 1547.88 40.752L1547.57 40.4092C1544.12 36.7137 1540.28 34.162 1536.04 32.708L1536.02 32.7021L1536 32.6953C1531.71 31.1028 1526.5 30.2832 1520.33 30.2832Z" fill="#E6B902" stroke="#E6B902" stroke-width="3"/>
<path d="M1356.51 44.6331C1375.48 44.6331 1388.77 50.8751 1395.81 63.7268L1396.4 64.8069L1395.45 65.5969L1348.22 105.115L1347.81 105.465H1334.06L1337.24 102.814L1384.88 63.0784C1379.48 56.764 1370.18 53.4163 1356.51 53.4163C1350.19 53.4163 1344.96 54.1138 1340.78 55.4641L1340.74 55.4758C1336.91 56.6045 1333.3 58.748 1329.91 61.9592L1329.24 62.6155C1325.89 65.9579 1323.29 71.0112 1321.53 77.925L1321.53 77.9319C1319.78 84.7047 1318.88 93.3702 1318.88 103.965C1318.88 114.556 1319.77 123.287 1321.53 130.192L1321.87 131.444C1323.61 137.588 1326.09 142.242 1329.24 145.506C1332.81 148.954 1336.66 151.321 1340.77 152.655C1344.95 153.881 1350.19 154.514 1356.51 154.514C1370.96 154.514 1380.53 150.775 1385.77 143.744L1386.76 142.419L1387.98 143.531L1392.22 147.386L1393.26 148.332L1392.39 149.431C1384.93 158.787 1372.84 163.297 1356.51 163.297C1340.44 163.297 1328.52 158.795 1321.16 149.466L1320.81 149.019C1313.57 139.498 1310.1 124.374 1310.1 103.965C1310.1 83.5563 1313.57 68.4332 1320.81 58.9124L1321.16 58.4641C1328.52 49.1358 1340.44 44.6331 1356.51 44.6331Z" fill="#E6B902" stroke="#E6B902" stroke-width="3"/>
<path d="M1224.52 46.5605C1243.8 46.5606 1259.36 51.6492 1271 61.9746L1271.55 62.4619C1282.86 72.7644 1288.47 86.6557 1288.47 103.965C1288.47 121.274 1282.86 135.165 1271.55 145.468L1271 145.956C1259.36 156.281 1243.8 161.369 1224.52 161.369H1208.36V46.5605H1224.52ZM1217.15 152.586H1224.52C1241.61 152.586 1254.97 148.222 1264.78 139.655L1264.79 139.649L1265.25 139.246C1274.84 130.741 1279.69 119.043 1279.69 103.965C1279.69 88.6473 1274.69 76.8183 1264.79 68.2812L1264.78 68.2754C1254.97 59.7085 1241.61 55.3438 1224.52 55.3438H1217.15V152.586Z" fill="#E6B902" stroke="#E6B902" stroke-width="3"/>
<path d="M1141.06 45.5481L1189.25 159.284L1190.14 161.369H1123.36V152.586H1176.93L1139.68 64.8137L1099.03 160.456L1098.65 161.369H1089.22L1090.1 159.284L1138.3 45.5481L1139.68 42.2883L1141.06 45.5481Z" fill="#E6B902" stroke="#E6B902" stroke-width="3"/>
<path d="M1013.88 46.5605L1015.31 46.5684C1029.91 46.729 1041.22 49.3822 1049.04 54.7256H1049.04C1057.27 60.2611 1061.46 67.9134 1061.46 77.5547C1061.46 83.8383 1059.33 89.4518 1055.12 94.3408L1055.11 94.3496L1055.1 94.3574C1051.31 98.6361 1046.85 102.018 1041.71 104.5L1067.29 159.234L1068.29 161.369H1058.62L1058.21 160.504L1031.22 102.672L1030.61 101.349L1031.91 100.695C1032.19 100.555 1033.31 100.031 1035.21 99.1426C1037.19 98.1533 1038.57 97.4631 1039.35 97.0713C1040.14 96.5463 1041.41 95.7229 1043.15 94.6064L1043.77 94.1924C1045.17 93.2467 1046.18 92.3875 1046.86 91.6221C1047.74 90.4928 1048.68 89.2368 1049.68 87.8535L1049.69 87.8447L1049.7 87.8359C1050.74 86.438 1051.49 84.9342 1051.96 83.3193C1052.43 81.534 1052.67 79.6144 1052.67 77.5547C1052.67 73.754 1051.77 70.5267 1050.02 67.8135C1048.38 65.2648 1045.93 63.0896 1042.61 61.3174L1041.94 60.9688C1034.49 57.2457 1025.16 55.3438 1013.88 55.3438H999.962V161.369H991.179V46.5605H1013.88Z" fill="#E6B902" stroke="#E6B902" stroke-width="3"/>
<path d="M904.792 46.5605C924.081 46.5605 939.633 51.6491 951.283 61.9746L951.826 62.4619C963.139 72.7644 968.751 86.6557 968.751 103.965C968.751 121.274 963.139 135.165 951.826 145.468L951.283 145.956C939.633 156.281 924.081 161.369 904.792 161.369H888.642V46.5605H904.792ZM897.425 152.586H904.792C921.886 152.586 935.252 148.222 945.06 139.655L945.067 139.649L945.527 139.246C955.12 130.741 959.968 119.043 959.968 103.965C959.968 88.6473 954.965 76.8183 945.067 68.2812L945.06 68.2754C935.252 59.7084 921.886 55.3438 904.792 55.3438H897.425V152.586Z" fill="#E6B902" stroke="#E6B902" stroke-width="3"/>
<path d="M795.688 46.6008L796.134 47.2571L856.238 135.6V46.6008H865.021V161.369H856.92L856.477 160.681L796.394 67.2629V161.369H787.61V46.6008H795.688Z" fill="#E6B902" stroke="#E6B902" stroke-width="3"/>
<path d="M719.6 24.4954L768.757 159.63L769.49 161.643H701.669V152.86H756.917L718.19 46.3596L676.611 160.656L676.252 161.643H666.891L667.624 159.63L716.781 24.4954L718.19 20.6204L719.6 24.4954Z" fill="#E6B902" stroke="#E6B902" stroke-width="3"/>
<path d="M1769.24 293.286H1806.59V297.061H1789.81V350.315H1785.87V297.061H1769.24V293.286Z" fill="white"/>
<path d="M1742.52 293.286C1746.05 293.286 1749.13 293.902 1751.76 295.133C1754.43 296.311 1756.5 298.105 1757.94 300.515C1759.44 302.871 1760.19 305.843 1760.19 309.431C1760.19 311.573 1759.84 313.661 1759.15 315.696C1758.5 317.677 1757.43 319.471 1755.93 321.078C1754.49 322.684 1752.61 323.969 1750.31 324.933C1748.06 325.897 1745.33 326.379 1742.12 326.379H1733.28V350.315H1729.35V293.286H1742.52ZM1742.12 322.604C1744.9 322.604 1747.2 322.175 1749.03 321.318C1750.9 320.408 1752.35 319.284 1753.36 317.945C1754.43 316.553 1755.18 315.107 1755.61 313.608C1756.09 312.108 1756.33 310.716 1756.33 309.431C1756.33 307.61 1756.04 305.95 1755.45 304.451C1754.86 302.951 1753.98 301.666 1752.8 300.595C1751.68 299.471 1750.28 298.614 1748.62 298.025C1746.96 297.382 1745.06 297.061 1742.92 297.061H1733.28V322.604H1742.12Z" fill="white"/>
<path d="M1711.19 299.711C1709.53 298.908 1707.49 298.158 1705.08 297.462C1702.68 296.766 1700.27 296.418 1697.86 296.418C1694.11 296.418 1691.11 297.355 1688.86 299.229C1686.61 301.103 1685.49 303.46 1685.49 306.298C1685.49 308.44 1686.13 310.233 1687.41 311.679C1688.7 313.072 1690.39 314.276 1692.47 315.294C1694.56 316.258 1696.78 317.195 1699.14 318.105C1701.02 318.801 1702.86 319.578 1704.68 320.434C1706.56 321.291 1708.24 322.335 1709.74 323.567C1711.24 324.799 1712.42 326.325 1713.28 328.145C1714.19 329.966 1714.64 332.215 1714.64 334.893C1714.64 338.052 1713.89 340.863 1712.39 343.326C1710.89 345.736 1708.81 347.61 1706.13 348.949C1703.45 350.288 1700.35 350.957 1696.81 350.957C1693.97 350.957 1691.38 350.609 1689.02 349.913C1686.72 349.217 1684.68 348.413 1682.92 347.503C1681.2 346.539 1679.84 345.736 1678.82 345.093L1680.67 341.881C1681.84 342.737 1683.26 343.594 1684.92 344.451C1686.64 345.308 1688.48 346.031 1690.47 346.62C1692.45 347.209 1694.43 347.503 1696.41 347.503C1698.71 347.503 1700.93 347.048 1703.08 346.138C1705.27 345.227 1707.07 343.862 1708.46 342.041C1709.9 340.167 1710.63 337.811 1710.63 334.973C1710.63 332.242 1709.96 330.046 1708.62 328.386C1707.28 326.673 1705.57 325.281 1703.48 324.21C1701.39 323.139 1699.17 322.175 1696.81 321.318C1694.99 320.622 1693.17 319.899 1691.35 319.149C1689.53 318.346 1687.87 317.409 1686.37 316.338C1684.87 315.213 1683.67 313.875 1682.76 312.322C1681.9 310.769 1681.47 308.895 1681.47 306.699C1681.47 303.968 1682.17 301.585 1683.56 299.551C1684.95 297.516 1686.82 295.936 1689.18 294.812C1691.59 293.633 1694.32 293.018 1697.37 292.964C1700.05 292.964 1702.76 293.312 1705.49 294.008C1708.27 294.704 1710.68 295.588 1712.72 296.659L1711.19 299.711Z" fill="white"/>
<path d="M1628.99 332.483H1643.85V335.857H1628.99V332.483Z" fill="white"/>
<path d="M1536.38 350.314V292H1536.46L1564.58 331.921L1562.89 331.68L1590.92 292H1591V350.314H1587.15V301.077L1587.47 303.004L1563.69 336.499H1563.53L1539.6 303.004L1540.24 301.237V350.314H1536.38Z" fill="white"/>
<path d="M1485.08 293.286H1520.27V297.061H1489.02V319.712H1517.13V323.487H1489.02V346.54H1521.39V350.315H1485.08V293.286Z" fill="white"/>
<path d="M1468.6 346.299C1467.64 346.941 1466.46 347.557 1465.07 348.146C1463.73 348.681 1462.28 349.163 1460.73 349.592C1459.18 350.02 1457.57 350.341 1455.91 350.556C1454.3 350.823 1452.78 350.957 1451.33 350.957C1446.83 350.957 1442.76 350.234 1439.12 348.789C1435.54 347.289 1432.46 345.254 1429.89 342.684C1427.32 340.06 1425.33 337.035 1423.94 333.608C1422.6 330.127 1421.93 326.379 1421.93 322.362C1421.93 318.025 1422.68 314.036 1424.18 310.394C1425.74 306.753 1427.85 303.62 1430.53 300.997C1433.21 298.319 1436.31 296.258 1439.85 294.812C1443.38 293.366 1447.13 292.643 1451.09 292.643C1454.09 292.643 1456.9 293.018 1459.53 293.768C1462.2 294.517 1464.61 295.535 1466.75 296.82L1465.31 300.354C1464.08 299.604 1462.68 298.962 1461.13 298.426C1459.58 297.837 1457.97 297.382 1456.31 297.061C1454.71 296.74 1453.1 296.579 1451.49 296.579C1447.85 296.579 1444.48 297.221 1441.37 298.507C1438.27 299.792 1435.56 301.586 1433.26 303.888C1430.96 306.191 1429.16 308.895 1427.88 312.001C1426.59 315.107 1425.95 318.48 1425.95 322.121C1425.95 325.656 1426.54 328.949 1427.72 332.001C1428.95 335 1430.66 337.65 1432.86 339.953C1435.11 342.202 1437.78 343.969 1440.89 345.254C1444 346.486 1447.45 347.102 1451.25 347.102C1453.5 347.102 1455.86 346.834 1458.32 346.299C1460.78 345.763 1462.9 344.987 1464.67 343.969V328.146H1451.81V324.37H1468.6V346.299Z" fill="white"/>
<path d="M1365.74 350.315L1389.84 290.796H1390.16L1414.25 350.315H1409.84L1388.87 297.061L1391.6 295.535L1369.67 350.315H1365.74ZM1377.39 327.744H1402.69L1403.81 331.439H1376.42L1377.39 327.744Z" fill="white"/>
<path d="M1313.85 350.315V293.286H1327.91C1333.42 293.286 1338.11 294.169 1341.96 295.937C1345.87 297.65 1349.03 299.926 1351.44 302.764C1353.85 305.602 1355.62 308.708 1356.74 312.081C1357.87 315.455 1358.43 318.802 1358.43 322.122C1358.43 326.459 1357.68 330.368 1356.18 333.849C1354.68 337.276 1352.62 340.221 1349.99 342.684C1347.42 345.148 1344.48 347.048 1341.16 348.387C1337.84 349.672 1334.33 350.315 1330.64 350.315H1313.85ZM1317.78 346.54H1329.59C1333.02 346.54 1336.23 345.978 1339.23 344.853C1342.23 343.728 1344.85 342.095 1347.1 339.953C1349.41 337.811 1351.2 335.241 1352.48 332.242C1353.77 329.19 1354.41 325.736 1354.41 321.881C1354.41 318.614 1353.85 315.508 1352.73 312.563C1351.65 309.565 1350.02 306.914 1347.83 304.611C1345.63 302.309 1342.93 300.488 1339.71 299.149C1336.5 297.811 1332.75 297.141 1328.47 297.141H1317.78V346.54Z" fill="white"/>
<path d="M1295.51 351.68L1250.53 300.997L1251.58 300.193L1251.66 350.315H1247.8V292.081H1248.04L1293.02 343.166L1291.98 343.487L1291.9 293.286H1295.68V351.68H1295.51Z" fill="white"/>
<path d="M1174.93 321.88C1174.93 317.864 1175.68 314.116 1177.18 310.635C1178.67 307.101 1180.76 303.995 1183.44 301.318C1186.12 298.587 1189.2 296.472 1192.68 294.972C1196.21 293.42 1199.99 292.643 1204 292.643C1208.02 292.643 1211.79 293.42 1215.33 294.972C1218.86 296.472 1221.97 298.587 1224.65 301.318C1227.32 303.995 1229.41 307.101 1230.91 310.635C1232.46 314.116 1233.24 317.864 1233.24 321.88C1233.24 325.897 1232.46 329.672 1230.91 333.206C1229.41 336.687 1227.32 339.766 1224.65 342.443C1221.97 345.12 1218.86 347.209 1215.33 348.708C1211.79 350.208 1208.02 350.957 1204 350.957C1199.99 350.957 1196.21 350.234 1192.68 348.789C1189.2 347.343 1186.12 345.308 1183.44 342.684C1180.76 340.06 1178.67 336.981 1177.18 333.447C1175.68 329.913 1174.93 326.057 1174.93 321.88ZM1178.94 321.961C1178.94 325.441 1179.58 328.708 1180.87 331.76C1182.16 334.812 1183.95 337.49 1186.25 339.792C1188.55 342.095 1191.2 343.916 1194.2 345.254C1197.26 346.54 1200.5 347.182 1203.92 347.182C1207.46 347.182 1210.75 346.54 1213.8 345.254C1216.85 343.916 1219.53 342.095 1221.83 339.792C1224.14 337.49 1225.93 334.812 1227.22 331.76C1228.55 328.708 1229.22 325.415 1229.22 321.88C1229.22 318.4 1228.55 315.133 1227.22 312.081C1225.93 308.975 1224.14 306.271 1221.83 303.969C1219.53 301.612 1216.85 299.765 1213.8 298.426C1210.75 297.088 1207.48 296.418 1204 296.418C1200.47 296.418 1197.18 297.114 1194.12 298.507C1191.07 299.845 1188.39 301.693 1186.09 304.049C1183.84 306.405 1182.07 309.136 1180.79 312.242C1179.56 315.294 1178.94 318.534 1178.94 321.961Z" fill="white"/>
<path d="M1160.38 299.711C1158.72 298.908 1156.69 298.158 1154.28 297.462C1151.87 296.766 1149.46 296.418 1147.05 296.418C1143.3 296.418 1140.3 297.355 1138.05 299.229C1135.8 301.103 1134.68 303.46 1134.68 306.298C1134.68 308.44 1135.32 310.233 1136.61 311.679C1137.89 313.072 1139.58 314.276 1141.67 315.294C1143.76 316.258 1145.98 317.195 1148.33 318.105C1150.21 318.801 1152.06 319.578 1153.88 320.434C1155.75 321.291 1157.44 322.335 1158.94 323.567C1160.44 324.799 1161.61 326.325 1162.47 328.145C1163.38 329.966 1163.84 332.215 1163.84 334.893C1163.84 338.052 1163.09 340.863 1161.59 343.326C1160.09 345.736 1158 347.61 1155.32 348.949C1152.65 350.288 1149.54 350.957 1146.01 350.957C1143.17 350.957 1140.57 350.609 1138.21 349.913C1135.91 349.217 1133.88 348.413 1132.11 347.503C1130.4 346.539 1129.03 345.736 1128.01 345.093L1129.86 341.881C1131.04 342.737 1132.46 343.594 1134.12 344.451C1135.83 345.308 1137.68 346.031 1139.66 346.62C1141.64 347.209 1143.62 347.503 1145.6 347.503C1147.91 347.503 1150.13 347.048 1152.27 346.138C1154.47 345.227 1156.26 343.862 1157.65 342.041C1159.1 340.167 1159.82 337.811 1159.82 334.973C1159.82 332.242 1159.15 330.046 1157.81 328.386C1156.47 326.673 1154.76 325.281 1152.67 324.21C1150.58 323.139 1148.36 322.175 1146.01 321.318C1144.18 320.622 1142.36 319.899 1140.54 319.149C1138.72 318.346 1137.06 317.409 1135.56 316.338C1134.06 315.213 1132.86 313.875 1131.95 312.322C1131.09 310.769 1130.66 308.895 1130.66 306.699C1130.66 303.968 1131.36 301.585 1132.75 299.551C1134.14 297.516 1136.02 295.936 1138.37 294.812C1140.78 293.633 1143.52 293.018 1146.57 292.964C1149.25 292.964 1151.95 293.312 1154.68 294.008C1157.46 294.704 1159.87 295.588 1161.91 296.659L1160.38 299.711Z" fill="white"/>
<path d="M1067.03 350.314C1066.87 350.314 1066.52 350.314 1065.99 350.314C1065.5 350.314 1065 350.314 1064.46 350.314C1063.93 350.314 1063.44 350.314 1063.01 350.314C1062.64 350.314 1062.45 350.314 1062.45 350.314L1032.81 311.679C1032.39 310.929 1031.9 310.099 1031.37 309.189C1030.89 308.225 1030.48 307.208 1030.16 306.137C1029.84 305.012 1029.68 303.807 1029.68 302.522C1029.68 300.113 1030.24 297.971 1031.37 296.096C1032.49 294.169 1034.05 292.669 1036.03 291.598C1038.06 290.474 1040.36 289.912 1042.93 289.912C1045.45 289.912 1047.75 290.394 1049.84 291.357C1051.98 292.268 1053.78 293.312 1055.22 294.49L1053.3 297.141C1051.69 295.963 1050.06 295.025 1048.4 294.329C1046.79 293.633 1045.16 293.285 1043.5 293.285C1040.66 293.285 1038.3 294.169 1036.43 295.936C1034.61 297.649 1033.7 299.845 1033.7 302.522C1033.7 303.754 1033.88 304.932 1034.26 306.056C1034.69 307.181 1035.09 308.091 1035.46 308.787C1035.89 309.484 1036.13 309.885 1036.19 309.992L1067.03 350.314ZM1040.69 321.318C1038.97 321.318 1037.23 321.666 1035.46 322.362C1033.75 323.005 1032.17 323.915 1030.73 325.093C1029.33 326.271 1028.21 327.69 1027.35 329.35C1026.49 330.956 1026.07 332.75 1026.07 334.732C1026.07 337.248 1026.74 339.471 1028.07 341.398C1029.41 343.273 1031.21 344.745 1033.46 345.816C1035.71 346.887 1038.17 347.423 1040.85 347.423C1043.15 347.423 1045.26 347.048 1047.19 346.298C1049.17 345.548 1050.89 344.558 1052.33 343.326C1053.78 342.095 1054.82 340.756 1055.46 339.31L1057.95 341.88C1056.56 344.451 1054.31 346.619 1051.21 348.386C1048.1 350.1 1044.51 350.957 1040.44 350.957C1036.86 350.957 1033.67 350.234 1030.89 348.788C1028.1 347.342 1025.91 345.415 1024.3 343.005C1022.69 340.542 1021.89 337.811 1021.89 334.812C1021.89 332.456 1022.4 330.287 1023.42 328.306C1024.49 326.271 1025.91 324.504 1027.67 323.005C1029.44 321.505 1031.42 320.327 1033.62 319.47C1035.81 318.614 1038.09 318.158 1040.44 318.105L1040.69 321.318ZM1063.42 318.105H1067.27L1058.36 341.318L1055.54 339.149L1063.42 318.105Z" fill="white"/>
<path d="M2115.97 260.733L2142.34 199.71H2142.69L2169.06 260.733H2164.22L2141.28 206.133L2144.27 204.568L2120.28 260.733H2115.97ZM2128.71 237.592H2156.4L2157.63 241.38H2127.66L2128.71 237.592Z" fill="white"/>
<path d="M2071.25 202.262C2073.6 202.262 2075.91 202.592 2078.19 203.251C2080.54 203.855 2082.65 204.843 2084.52 206.215C2086.46 207.533 2088.01 209.235 2089.18 211.321C2090.35 213.407 2090.94 215.905 2090.94 218.815C2090.94 221.011 2090.59 223.152 2089.88 225.239C2089.18 227.27 2088.04 229.109 2086.46 230.756C2084.87 232.403 2082.82 233.721 2080.3 234.709C2077.78 235.697 2074.68 236.191 2070.99 236.191H2061.32V260.732H2057.01V202.262H2071.25ZM2070.72 232.321C2073.83 232.321 2076.41 231.909 2078.46 231.086C2080.51 230.262 2082.12 229.192 2083.29 227.874C2084.46 226.556 2085.28 225.129 2085.75 223.592C2086.28 221.999 2086.54 220.462 2086.54 218.98C2086.54 217.223 2086.19 215.576 2085.49 214.039C2084.85 212.502 2083.88 211.156 2082.59 210.004C2081.3 208.796 2079.75 207.862 2077.93 207.204C2076.11 206.49 2074.09 206.133 2071.87 206.133H2061.32V232.321H2070.72ZM2079.69 234.133L2097 260.732H2091.99L2074.59 234.215L2079.69 234.133Z" fill="white"/>
<path d="M1990.04 240.968C1990.04 244.372 1990.77 247.309 1992.23 249.78C1993.76 252.25 1995.81 254.172 1998.39 255.544C2000.96 256.862 2003.89 257.521 2007.18 257.521C2010.52 257.521 2013.47 256.862 2016.05 255.544C2018.69 254.172 2020.74 252.25 2022.2 249.78C2023.73 247.309 2024.49 244.372 2024.49 240.968V202.262H2028.71V241.215C2028.71 245.442 2027.74 249.066 2025.81 252.085C2023.93 255.105 2021.35 257.411 2018.07 259.003C2014.85 260.595 2011.22 261.391 2007.18 261.391C2003.13 261.391 1999.47 260.595 1996.19 259.003C1992.97 257.411 1990.42 255.105 1988.54 252.085C1986.67 249.066 1985.73 245.442 1985.73 241.215V202.262H1990.04V240.968Z" fill="white"/>
<path d="M1921.56 202.262H1962.43V206.133H1944.06V260.732H1939.75V206.133H1921.56V202.262Z" fill="white"/>
<path d="M1861.65 202.262H1900.14V206.133H1865.95V229.356H1896.71V233.227H1865.95V256.862H1901.37V260.732H1861.65V202.262Z" fill="white"/>
<path d="M1797.12 202.262H1837.99V206.133H1819.62V260.732H1815.31V206.133H1797.12V202.262Z" fill="white"/>
<path d="M1769.14 202.262H1773.44V260.732H1769.14V202.262Z" fill="white"/>
<path d="M1702.16 240.968C1702.16 244.372 1702.89 247.309 1704.36 249.78C1705.88 252.25 1707.93 254.172 1710.51 255.544C1713.09 256.862 1716.02 257.521 1719.3 257.521C1722.64 257.521 1725.6 256.862 1728.18 255.544C1730.81 254.172 1732.87 252.25 1734.33 249.78C1735.85 247.309 1736.62 244.372 1736.62 240.968V202.262H1740.83V241.215C1740.83 245.442 1739.87 249.066 1737.93 252.085C1736.06 255.105 1733.48 257.411 1730.2 259.003C1726.98 260.595 1723.34 261.391 1719.3 261.391C1715.26 261.391 1711.6 260.595 1708.31 259.003C1705.09 257.411 1702.54 255.105 1700.67 252.085C1698.79 249.066 1697.86 245.442 1697.86 241.215V202.262H1702.16V240.968Z" fill="white"/>
<path d="M1649.97 256.862H1673.53V260.732H1643.91L1649.97 256.862ZM1607.96 231.58C1607.96 227.462 1608.78 223.619 1610.42 220.05C1612.06 216.427 1614.35 213.243 1617.28 210.498C1620.21 207.698 1623.57 205.529 1627.38 203.992C1631.25 202.4 1635.38 201.604 1639.78 201.604C1644.17 201.604 1648.3 202.4 1652.17 203.992C1656.03 205.529 1659.43 207.698 1662.36 210.498C1665.29 213.243 1667.58 216.427 1669.22 220.05C1670.92 223.619 1671.77 227.462 1671.77 231.58C1671.77 235.697 1670.92 239.568 1669.22 243.191C1667.58 246.76 1665.29 249.917 1662.36 252.662C1659.43 255.407 1656.03 257.548 1652.17 259.085C1648.3 260.622 1644.17 261.391 1639.78 261.391C1635.38 261.391 1631.25 260.65 1627.38 259.168C1623.57 257.685 1620.21 255.599 1617.28 252.909C1614.35 250.219 1612.06 247.062 1610.42 243.438C1608.78 239.815 1607.96 235.862 1607.96 231.58ZM1612.35 231.662C1612.35 235.231 1613.06 238.58 1614.46 241.709C1615.87 244.838 1617.83 247.583 1620.35 249.944C1622.87 252.305 1625.77 254.172 1629.05 255.544C1632.39 256.862 1635.94 257.521 1639.69 257.521C1643.55 257.521 1647.16 256.862 1650.5 255.544C1653.84 254.172 1656.77 252.305 1659.29 249.944C1661.81 247.583 1663.77 244.838 1665.18 241.709C1666.64 238.58 1667.37 235.203 1667.37 231.58C1667.37 228.011 1666.64 224.662 1665.18 221.533C1663.77 218.403 1661.81 215.658 1659.29 213.297C1656.77 210.882 1653.84 208.988 1650.5 207.615C1647.16 206.243 1643.58 205.556 1639.78 205.556C1635.91 205.556 1632.3 206.27 1628.96 207.698C1625.62 209.07 1622.7 210.964 1620.18 213.38C1617.71 215.796 1615.78 218.595 1614.38 221.78C1613.03 224.909 1612.35 228.203 1612.35 231.662Z" fill="white"/>
<path d="M1562.35 202.262C1564.69 202.262 1567 202.592 1569.29 203.251C1571.63 203.855 1573.74 204.843 1575.62 206.215C1577.55 207.533 1579.1 209.235 1580.28 211.321C1581.45 213.407 1582.03 215.905 1582.03 218.815C1582.03 221.011 1581.68 223.152 1580.98 225.239C1580.28 227.27 1579.13 229.109 1577.55 230.756C1575.97 232.403 1573.92 233.721 1571.4 234.709C1568.88 235.697 1565.77 236.191 1562.08 236.191H1552.41V260.732H1548.11V202.262H1562.35ZM1561.82 232.321C1564.92 232.321 1567.5 231.909 1569.55 231.086C1571.6 230.262 1573.21 229.192 1574.39 227.874C1575.56 226.556 1576.38 225.129 1576.85 223.592C1577.37 221.999 1577.64 220.462 1577.64 218.98C1577.64 217.223 1577.29 215.576 1576.58 214.039C1575.94 212.502 1574.97 211.156 1573.68 210.004C1572.39 208.796 1570.84 207.862 1569.03 207.204C1567.21 206.49 1565.19 206.133 1562.96 206.133H1552.41V232.321H1561.82ZM1570.78 234.133L1588.1 260.732H1583.09L1565.69 234.215L1570.78 234.133Z" fill="white"/>
<path d="M1471.81 260.733L1498.18 199.71H1498.53L1524.9 260.733H1520.07L1497.13 206.133L1500.11 204.568L1476.12 260.733H1471.81ZM1484.56 237.592H1512.24L1513.47 241.38H1483.5L1484.56 237.592Z" fill="white"/>
<path d="M1264.57 260.733L1290.94 199.71H1291.29L1317.65 260.733H1312.82L1289.88 206.133L1292.87 204.568L1268.87 260.733H1264.57ZM1277.31 237.592H1305L1306.23 241.38H1276.26L1277.31 237.592Z" fill="white"/>
<path d="M1237.02 202.262H1241.33V260.732H1237.02V202.262Z" fill="white"/>
<path d="M1186.86 202.262C1189.2 202.262 1191.51 202.592 1193.8 203.251C1196.14 203.855 1198.25 204.843 1200.13 206.215C1202.06 207.533 1203.61 209.235 1204.79 211.321C1205.96 213.407 1206.54 215.905 1206.54 218.815C1206.54 221.011 1206.19 223.152 1205.49 225.239C1204.78 227.27 1203.64 229.109 1202.06 230.756C1200.48 232.403 1198.43 233.721 1195.91 234.709C1193.39 235.697 1190.28 236.191 1186.59 236.191H1176.92V260.732H1172.62V202.262H1186.86ZM1186.33 232.321C1189.43 232.321 1192.01 231.909 1194.06 231.086C1196.11 230.262 1197.72 229.192 1198.9 227.874C1200.07 226.556 1200.89 225.129 1201.36 223.592C1201.88 221.999 1202.15 220.462 1202.15 218.98C1202.15 217.223 1201.8 215.576 1201.09 214.039C1200.45 212.502 1199.48 211.156 1198.19 210.004C1196.9 208.796 1195.35 207.862 1193.54 207.204C1191.72 206.49 1189.7 206.133 1187.47 206.133H1176.92V232.321H1186.33ZM1195.29 234.133L1212.61 260.732H1207.6L1190.2 234.215L1195.29 234.133Z" fill="white"/>
<path d="M1096.32 260.733L1122.69 199.71H1123.04L1149.41 260.733H1144.58L1121.64 206.133L1124.62 204.568L1100.63 260.733H1096.32ZM1109.07 237.592H1136.75L1137.98 241.38H1108.01L1109.07 237.592Z" fill="white"/>
<path d="M1073.12 202.262V260.732H1068.82V233.227H1031.2V260.732H1026.89V202.262H1031.2V229.439H1068.82V202.262H1073.12Z" fill="white"/>
<path d="M998.043 262.133L948.824 210.168L949.967 209.345L950.055 260.733H945.836V201.027H946.1L995.318 253.403L994.176 253.733L994.088 202.263H998.219V262.133H998.043Z" fill="white"/>
<path d="M880.915 202.262H919.41V206.133H885.221V229.356H915.983V233.227H885.221V256.862H920.641V260.732H880.915V202.262Z" fill="white"/>
<path d="M854.09 256.615C853.035 257.273 851.746 257.905 850.222 258.509C848.758 259.058 847.176 259.552 845.476 259.991C843.777 260.43 842.019 260.76 840.203 260.979C838.445 261.254 836.775 261.391 835.193 261.391C830.271 261.391 825.818 260.65 821.834 259.168C817.908 257.63 814.539 255.544 811.727 252.909C808.914 250.219 806.746 247.117 805.223 243.603C803.758 240.034 803.025 236.191 803.025 232.074C803.025 227.627 803.846 223.537 805.486 219.803C807.186 216.07 809.5 212.858 812.43 210.168C815.359 207.423 818.758 205.309 822.625 203.827C826.492 202.345 830.594 201.604 834.93 201.604C838.211 201.604 841.287 201.988 844.158 202.756C847.088 203.525 849.724 204.568 852.068 205.886L850.486 209.509C849.138 208.741 847.615 208.082 845.916 207.533C844.217 206.929 842.459 206.462 840.642 206.133C838.885 205.803 837.127 205.639 835.369 205.639C831.385 205.639 827.693 206.298 824.295 207.615C820.896 208.933 817.937 210.772 815.418 213.133C812.898 215.494 810.936 218.266 809.529 221.45C808.123 224.635 807.42 228.093 807.42 231.827C807.42 235.45 808.064 238.827 809.353 241.956C810.701 245.03 812.576 247.748 814.978 250.109C817.439 252.415 820.369 254.226 823.767 255.544C827.166 256.807 830.945 257.438 835.105 257.438C837.566 257.438 840.144 257.164 842.84 256.615C845.535 256.066 847.849 255.27 849.783 254.226V238.003H835.721V234.133H854.09V256.615Z" fill="white"/>
<path d="M778.129 262.133L728.911 210.168L730.053 209.345L730.141 260.733H725.922V201.027H726.186L775.405 253.403L774.262 253.733L774.174 202.263H778.305V262.133H778.129Z" fill="white"/>
<path d="M661 202.262H699.496V206.133H665.307V229.356H696.068V233.227H665.307V256.862H700.726V260.732H661V202.262Z" fill="white"/>
<path d="M225.764 358.022V304.259H104.535L279.025 64.5156L412.178 248.106H461.465L320.362 46.9929H377.201L516.316 236.557C516.581 267.62 499.304 326.162 423.308 327.755C328.312 329.746 306.053 220.229 339.044 183.591L308.836 143.368C284.457 173.767 255.495 258.62 314.003 327.755C372.511 396.891 464.91 373.022 503.199 354.438C527.843 332.8 566 307.047 566 230.584L401.447 0H263.921L0 358.022H225.764Z" fill="white"/>
</svg>
