<svg width="752" height="584" viewBox="0 0 752 584" fill="none" xmlns="http://www.w3.org/2000/svg">
<path d="M725.564 530.389L738.694 500H738.869L752 530.389H749.593L738.169 503.199L739.657 502.42L727.708 530.389H725.564ZM731.91 518.865H745.697L746.31 520.751H731.385L731.91 518.865Z" fill="black"/>
<path d="M703.294 501.271C704.461 501.271 705.613 501.435 706.751 501.763C707.918 502.064 708.969 502.556 709.903 503.24C710.866 503.896 711.639 504.743 712.222 505.782C712.806 506.821 713.098 508.065 713.098 509.514C713.098 510.608 712.923 511.674 712.572 512.713C712.222 513.725 711.653 514.641 710.866 515.461C710.078 516.281 709.056 516.937 707.802 517.429C706.547 517.922 705.001 518.168 703.162 518.168H698.348V530.389H696.203V501.271H703.294ZM703.031 516.24C704.577 516.24 705.861 516.035 706.883 515.625C707.904 515.215 708.706 514.682 709.29 514.026C709.873 513.369 710.282 512.659 710.515 511.893C710.778 511.1 710.909 510.335 710.909 509.596C710.909 508.722 710.734 507.901 710.384 507.136C710.063 506.37 709.582 505.7 708.94 505.126C708.298 504.525 707.525 504.06 706.62 503.732C705.715 503.376 704.709 503.199 703.6 503.199H698.348V516.24H703.031ZM707.495 517.142L716.118 530.389H713.623L704.957 517.183L707.495 517.142Z" fill="black"/>
<path d="M662.85 520.546C662.85 522.241 663.215 523.704 663.944 524.934C664.703 526.165 665.724 527.122 667.008 527.805C668.292 528.461 669.751 528.789 671.385 528.789C673.048 528.789 674.521 528.461 675.805 527.805C677.118 527.122 678.14 526.165 678.869 524.934C679.628 523.704 680.007 522.241 680.007 520.546V501.271H682.108V520.669C682.108 522.774 681.626 524.579 680.664 526.083C679.73 527.586 678.446 528.735 676.812 529.528C675.207 530.32 673.398 530.717 671.385 530.717C669.371 530.717 667.548 530.32 665.914 529.528C664.309 528.735 663.039 527.586 662.106 526.083C661.172 524.579 660.705 522.774 660.705 520.669V501.271H662.85V520.546Z" fill="black"/>
<path d="M628.748 501.271H649.1V503.199H639.952V530.389H637.808V503.199H628.748V501.271Z" fill="black"/>
<path d="M598.912 501.271H618.083V503.199H601.057V514.764H616.376V516.691H601.057V528.461H618.695V530.389H598.912V501.271Z" fill="black"/>
<path d="M566.779 501.271H587.132V503.199H577.984V530.389H575.839V503.199H566.779V501.271Z" fill="black"/>
<path d="M552.844 501.271H554.988V530.389H552.844V501.271Z" fill="black"/>
<path d="M519.49 520.546C519.49 522.241 519.855 523.704 520.585 524.934C521.343 526.165 522.365 527.122 523.648 527.805C524.932 528.461 526.391 528.789 528.025 528.789C529.689 528.789 531.162 528.461 532.446 527.805C533.759 527.122 534.78 526.165 535.51 524.934C536.268 523.704 536.648 522.241 536.648 520.546V501.271H538.749V520.669C538.749 522.774 538.267 524.579 537.304 526.083C536.371 527.586 535.087 528.735 533.453 529.528C531.848 530.32 530.039 530.717 528.025 530.717C526.012 530.717 524.188 530.32 522.554 529.528C520.949 528.735 519.68 527.586 518.746 526.083C517.813 524.579 517.346 522.774 517.346 520.669V501.271H519.49V520.546Z" fill="black"/>
<path d="M493.499 528.461H505.229V530.389H490.479L493.499 528.461ZM472.578 515.871C472.578 513.82 472.986 511.907 473.803 510.129C474.62 508.325 475.758 506.739 477.217 505.372C478.676 503.978 480.354 502.898 482.251 502.132C484.177 501.34 486.234 500.943 488.422 500.943C490.611 500.943 492.668 501.34 494.593 502.132C496.519 502.898 498.212 503.978 499.671 505.372C501.13 506.739 502.268 508.325 503.085 510.129C503.931 511.907 504.354 513.82 504.354 515.871C504.354 517.922 503.931 519.849 503.085 521.653C502.268 523.431 501.13 525.003 499.671 526.37C498.212 527.737 496.519 528.803 494.593 529.569C492.668 530.334 490.611 530.717 488.422 530.717C486.234 530.717 484.177 530.348 482.251 529.61C480.354 528.871 478.676 527.832 477.217 526.493C475.758 525.153 474.62 523.581 473.803 521.777C472.986 519.972 472.578 518.004 472.578 515.871ZM474.766 515.912C474.766 517.689 475.116 519.357 475.817 520.915C476.517 522.474 477.495 523.841 478.749 525.016C480.004 526.192 481.448 527.122 483.082 527.805C484.746 528.461 486.511 528.789 488.378 528.789C490.304 528.789 492.099 528.461 493.762 527.805C495.425 527.122 496.884 526.192 498.139 525.016C499.393 523.841 500.371 522.474 501.071 520.915C501.801 519.357 502.165 517.675 502.165 515.871C502.165 514.094 501.801 512.426 501.071 510.868C500.371 509.309 499.393 507.942 498.139 506.767C496.884 505.564 495.425 504.62 493.762 503.937C492.099 503.253 490.319 502.912 488.422 502.912C486.496 502.912 484.702 503.267 483.039 503.978C481.375 504.661 479.916 505.605 478.662 506.808C477.436 508.011 476.473 509.405 475.773 510.991C475.102 512.549 474.766 514.19 474.766 515.912Z" fill="black"/>
<path d="M449.863 501.271C451.03 501.271 452.183 501.435 453.321 501.763C454.488 502.064 455.538 502.556 456.472 503.24C457.435 503.896 458.208 504.743 458.792 505.782C459.375 506.821 459.667 508.065 459.667 509.514C459.667 510.608 459.492 511.674 459.142 512.713C458.792 513.725 458.223 514.641 457.435 515.461C456.647 516.281 455.626 516.937 454.371 517.429C453.116 517.922 451.57 518.168 449.732 518.168H444.917V530.389H442.772V501.271H449.863ZM449.6 516.24C451.147 516.24 452.431 516.035 453.452 515.625C454.473 515.215 455.276 514.682 455.859 514.026C456.443 513.369 456.851 512.659 457.085 511.893C457.347 511.1 457.479 510.335 457.479 509.596C457.479 508.722 457.304 507.901 456.953 507.136C456.632 506.37 456.151 505.7 455.509 505.126C454.867 504.525 454.094 504.06 453.189 503.732C452.285 503.376 451.278 503.199 450.169 503.199H444.917V516.24H449.6ZM454.065 517.142L462.687 530.389H460.192L451.526 517.183L454.065 517.142Z" fill="black"/>
<path d="M404.779 530.389L417.909 500H418.085L431.215 530.389H428.808L417.384 503.199L418.872 502.42L406.924 530.389H404.779ZM411.125 518.865H424.912L425.525 520.751H410.6L411.125 518.865Z" fill="black"/>
<path d="M301.572 530.389L314.703 500H314.878L328.008 530.389H325.601L314.177 503.199L315.666 502.42L303.717 530.389H301.572ZM307.919 518.865H321.706L322.318 520.751H307.393L307.919 518.865Z" fill="black"/>
<path d="M287.855 501.271H290V530.389H287.855V501.271Z" fill="black"/>
<path d="M262.872 501.271C264.039 501.271 265.192 501.435 266.33 501.763C267.497 502.064 268.547 502.556 269.481 503.24C270.444 503.896 271.217 504.743 271.801 505.782C272.384 506.821 272.676 508.065 272.676 509.514C272.676 510.608 272.501 511.674 272.151 512.713C271.801 513.725 271.232 514.641 270.444 515.461C269.656 516.281 268.635 516.937 267.38 517.429C266.125 517.922 264.579 518.168 262.741 518.168H257.926V530.389H255.781V501.271H262.872ZM262.609 516.24C264.156 516.24 265.44 516.035 266.461 515.625C267.482 515.215 268.285 514.682 268.868 514.026C269.452 513.369 269.86 512.659 270.094 511.893C270.356 511.1 270.488 510.335 270.488 509.596C270.488 508.722 270.313 507.901 269.962 507.136C269.641 506.37 269.16 505.7 268.518 505.126C267.876 504.525 267.103 504.06 266.198 503.732C265.294 503.376 264.287 503.199 263.178 503.199H257.926V516.24H262.609ZM267.074 517.142L275.696 530.389H273.201L264.535 517.183L267.074 517.142Z" fill="black"/>
<path d="M217.788 530.389L230.918 500H231.093L244.224 530.389H241.817L230.393 503.199L231.881 502.42L219.932 530.389H217.788ZM224.134 518.865H237.921L238.534 520.751H223.609L224.134 518.865Z" fill="black"/>
<path d="M206.235 501.271V530.389H204.09V516.691H185.357V530.389H183.213V501.271H185.357V514.805H204.09V501.271H206.235Z" fill="black"/>
<path d="M168.845 531.086L144.334 505.208L144.903 504.798L144.947 530.389H142.846V500.656H142.978L167.488 526.739L166.919 526.903L166.875 501.271H168.932V531.086H168.845Z" fill="black"/>
<path d="M110.516 501.271H129.686V503.199H112.66V514.764H127.979V516.691H112.66V528.461H130.299V530.389H110.516V501.271Z" fill="black"/>
<path d="M97.157 528.338C96.6318 528.666 95.9899 528.981 95.2312 529.281C94.5017 529.555 93.7139 529.801 92.8677 530.02C92.0215 530.238 91.1462 530.402 90.2416 530.512C89.3662 530.648 88.5346 530.717 87.7468 530.717C85.2958 530.717 83.0781 530.348 81.094 529.61C79.139 528.844 77.4612 527.805 76.0606 526.493C74.66 525.153 73.5803 523.608 72.8217 521.859C72.0922 520.081 71.7275 518.168 71.7275 516.117C71.7275 513.902 72.136 511.866 72.953 510.006C73.7992 508.147 74.9518 506.548 76.4107 505.208C77.8697 503.841 79.5621 502.789 81.4879 502.05C83.4137 501.312 85.4562 500.943 87.6155 500.943C89.2495 500.943 90.7814 501.134 92.2112 501.517C93.6702 501.9 94.9832 502.419 96.1504 503.076L95.3625 504.88C94.6914 504.497 93.9328 504.169 93.0866 503.896C92.2404 503.595 91.365 503.363 90.4605 503.199C89.5851 503.035 88.7097 502.953 87.8343 502.953C85.8502 502.953 84.0119 503.281 82.3195 503.937C80.6271 504.593 79.1536 505.509 77.8989 506.685C76.6442 507.86 75.6667 509.241 74.9664 510.827C74.2661 512.412 73.9159 514.135 73.9159 515.994C73.9159 517.798 74.2369 519.48 74.8788 521.038C75.5499 522.569 76.4837 523.923 77.68 525.098C78.9055 526.247 80.3645 527.149 82.0569 527.805C83.7493 528.434 85.6313 528.748 87.703 528.748C88.9285 528.748 90.2124 528.612 91.5547 528.338C92.8969 528.065 94.0495 527.668 95.0124 527.149V519.07H88.0094V517.142H97.157V528.338Z" fill="black"/>
<path d="M59.3294 531.086L34.819 505.208L35.388 504.798L35.4318 530.389H33.3309V500.656H33.4622L57.9726 526.739L57.4036 526.903L57.3599 501.271H59.417V531.086H59.3294Z" fill="black"/>
<path d="M1 501.271H20.1707V503.199H3.14466V514.764H18.4637V516.691H3.14466V528.461H20.7834V530.389H1V501.271Z" fill="black"/>
<path d="M724.789 425.935L748.789 482.575L749.682 484.68L747.395 484.66L715.987 484.38L714.5 484.367V478.485L716.016 478.5L740.812 478.755L723.407 437.75L703.861 483.747L703.473 484.66H697.144L698.028 482.575L722.028 425.935L723.408 422.675L724.789 425.935Z" fill="#E6B902" stroke="#E6B902" stroke-width="3"/>
<path d="M661.764 425.98C669.446 425.98 675.498 427.307 679.699 430.177H679.698C683.993 433.068 686.208 437.108 686.208 442.168C686.208 445.484 685.08 448.453 682.87 451.019L682.856 451.035C681.068 453.054 678.983 454.685 676.614 455.928L689.043 482.525L690.042 484.66H683.561L683.158 483.794L669.717 454.995L669.1 453.671L670.406 453.018C670.556 452.943 671.115 452.68 672.042 452.248C672.993 451.772 673.668 451.435 674.066 451.236C674.466 450.97 675.089 450.566 675.929 450.026L676.23 449.829C676.881 449.388 677.324 449.007 677.604 448.693C678.031 448.142 678.492 447.53 678.984 446.854L678.99 446.845L678.997 446.836C679.465 446.212 679.796 445.547 680 444.834C680.217 444.017 680.329 443.131 680.329 442.168C680.329 440.4 679.911 438.938 679.128 437.725C678.391 436.583 677.278 435.58 675.716 434.747L675.398 434.582C671.823 432.794 667.3 431.86 661.764 431.86H655.584V484.66H649.705V425.98H661.764Z" fill="#E6B902" stroke="#E6B902" stroke-width="3"/>
<path d="M640.491 425.98V484.66H634.611V425.98H640.491Z" fill="#E6B902" stroke="#E6B902" stroke-width="3"/>
<path d="M603.485 425.02C613.1 425.02 620.033 428.197 623.713 434.919L624.304 436L623.359 436.791L599.84 456.47L599.422 456.82H590.224L593.404 454.168L616.52 434.888C613.963 432.333 609.745 430.9 603.485 430.9C600.384 430.9 597.863 431.243 595.883 431.883L595.864 431.889L595.844 431.895C594.063 432.419 592.366 433.419 590.755 434.948L590.433 435.26C588.897 436.796 587.651 439.172 586.795 442.538L586.793 442.544C585.94 445.833 585.497 450.08 585.497 455.32C585.497 460.559 585.94 464.84 586.795 468.198C587.646 471.48 588.888 473.865 590.435 475.476C592.137 477.114 593.947 478.222 595.865 478.846C597.857 479.429 600.385 479.74 603.485 479.74C610.574 479.74 615.046 477.904 617.451 474.679L618.439 473.354L619.662 474.466L621.774 476.386L622.814 477.332L621.938 478.431C618.029 483.335 611.742 485.62 603.485 485.62C595.475 485.62 589.343 483.409 585.474 478.678L585.107 478.212C581.35 473.272 579.617 465.535 579.617 455.32C579.617 445.104 581.35 437.368 585.107 432.428L585.474 431.962C589.343 427.232 595.475 425.02 603.485 425.02Z" fill="#E6B902" stroke="#E6B902" stroke-width="3"/>
<path d="M528.721 425.98L529.108 426.893L548.656 472.891L568.204 426.893L568.592 425.98H574.921L574.037 428.065L550.037 484.706L548.656 487.964L547.275 484.706L523.275 428.065L522.392 425.98H528.721Z" fill="#E6B902" stroke="#E6B902" stroke-width="3"/>
<path d="M515.334 425.98V484.66H509.454V425.98H515.334Z" fill="#E6B902" stroke="#E6B902" stroke-width="3"/>
<path d="M472.209 425.98V478.78H501.394V484.66H466.329V425.98H472.209Z" fill="#E6B902" stroke="#E6B902" stroke-width="3"/>
<path d="M428.938 413.5C437.123 413.5 443.349 416.044 447.235 421.409H447.236C451.038 426.594 452.807 434.503 452.807 444.856V454.264C452.807 464.62 451.036 472.555 447.241 477.8L447.236 477.807C443.347 483.11 437.12 485.62 428.938 485.62C420.757 485.62 414.53 483.11 410.641 477.807L410.635 477.8C406.839 472.555 405.07 464.62 405.07 454.264V444.856C405.07 434.503 406.839 426.594 410.641 421.409C414.527 416.044 420.753 413.5 428.938 413.5ZM428.938 419.38C425.928 419.38 423.426 419.78 421.396 420.534L421.379 420.541L421.36 420.547C419.502 421.184 417.793 422.276 416.233 423.86L415.923 424.184C414.365 425.853 413.11 428.37 412.251 431.87L412.25 431.876C411.393 435.302 410.95 439.619 410.95 444.856V454.264C410.95 459.497 411.392 463.847 412.249 467.34H412.25C413.108 470.772 414.361 473.263 415.923 474.937L416.234 475.262C417.796 476.852 419.512 477.979 421.382 478.676C423.42 479.371 425.928 479.74 428.938 479.74C431.951 479.74 434.46 479.37 436.499 478.674C438.492 477.93 440.31 476.698 441.954 474.937C443.418 473.367 444.611 471.08 445.462 467.973L445.627 467.34C446.484 463.847 446.927 459.497 446.927 454.264V444.856C446.927 439.619 446.483 435.302 445.627 431.876L445.626 431.87C444.82 428.589 443.666 426.171 442.242 424.507L441.954 424.184C440.311 422.423 438.498 421.227 436.516 420.547L436.498 420.541L436.48 420.534C434.451 419.78 431.949 419.38 428.938 419.38Z" fill="#E6B902" stroke="#E6B902" stroke-width="3"/>
<path d="M347.36 425.02C356.975 425.02 363.908 428.197 367.588 434.919L368.18 436L367.234 436.791L343.715 456.47L343.297 456.82H334.099L337.279 454.168L360.395 434.888C357.838 432.333 353.62 430.9 347.36 430.9C344.259 430.9 341.738 431.243 339.758 431.883L339.738 431.889L339.72 431.895C337.938 432.419 336.241 433.419 334.63 434.948L334.308 435.26C332.772 436.796 331.526 439.172 330.67 442.538L330.668 442.544C329.815 445.833 329.372 450.08 329.372 455.32C329.372 460.559 329.815 464.84 330.67 468.198C331.521 471.48 332.763 473.865 334.31 475.476C336.012 477.114 337.822 478.222 339.74 478.846C341.732 479.429 344.26 479.74 347.36 479.74C354.449 479.74 358.921 477.904 361.326 474.679L362.314 473.354L363.537 474.466L365.649 476.386L366.689 477.332L365.813 478.431C361.904 483.335 355.617 485.62 347.36 485.62C339.35 485.62 333.218 483.409 329.349 478.678L328.982 478.212C325.225 473.272 323.492 465.535 323.492 455.32C323.492 445.104 325.225 437.368 328.982 432.428L329.349 431.962C333.218 427.232 339.35 425.02 347.36 425.02Z" fill="#E6B902" stroke="#E6B902" stroke-width="3"/>
<path d="M281.625 425.98C291.366 425.98 299.305 428.552 305.277 433.845L305.83 434.349C311.458 439.616 314.23 446.66 314.23 455.32C314.23 463.979 311.458 471.024 305.83 476.291L305.277 476.794C299.305 482.088 291.366 484.66 281.625 484.66H272.829V425.98H281.625ZM278.709 478.78H281.625C290.009 478.78 296.471 476.641 301.183 472.526L301.19 472.52L301.627 472.132C306.076 468.079 308.35 462.534 308.35 455.32C308.35 447.873 305.927 442.205 301.19 438.12L301.183 438.114C296.471 433.998 290.009 431.86 281.625 431.86H278.709V478.78Z" fill="#E6B902" stroke="#E6B902" stroke-width="3"/>
<path d="M240.758 425.935L264.758 482.575L265.642 484.66H230.5V478.78H256.79L239.376 437.75L219.829 483.747L219.442 484.66H213.113L213.996 482.575L237.996 425.935L239.377 422.675L240.758 425.935Z" fill="#E6B902" stroke="#E6B902" stroke-width="3"/>
<path d="M176.733 425.98C184.415 425.98 190.467 427.307 194.667 430.177H194.667C198.962 433.068 201.177 437.108 201.177 442.168C201.177 445.484 200.048 448.453 197.838 451.019L197.825 451.035C196.036 453.054 193.952 454.685 191.583 455.928L204.012 482.525L205.01 484.66H198.53L198.126 483.794L184.686 454.995L184.069 453.671L185.375 453.018C185.524 452.943 186.083 452.68 187.01 452.248C187.962 451.772 188.637 451.435 189.035 451.236C189.435 450.97 190.058 450.566 190.898 450.026L191.199 449.829C191.85 449.388 192.292 449.007 192.573 448.693C193 448.142 193.461 447.53 193.953 446.854L193.958 446.845L193.965 446.836C194.433 446.212 194.765 445.547 194.969 444.834C195.185 444.017 195.297 443.131 195.297 442.168C195.297 440.4 194.88 438.938 194.097 437.725C193.36 436.583 192.247 435.58 190.685 434.747L190.367 434.582C186.792 432.794 182.269 431.86 176.733 431.86H170.553V484.66H164.673V425.98H176.733Z" fill="#E6B902" stroke="#E6B902" stroke-width="3"/>
<path d="M122.407 425.98C132.147 425.98 140.086 428.552 146.058 433.845L146.612 434.349C152.24 439.616 155.011 446.66 155.011 455.32C155.011 463.979 152.24 471.024 146.612 476.291L146.058 476.794C140.086 482.088 132.147 484.66 122.407 484.66H113.611V425.98H122.407ZM119.491 478.78H122.407C130.791 478.78 137.253 476.641 141.964 472.526L141.971 472.52L142.409 472.132C146.857 468.079 149.13 462.534 149.13 455.32C149.13 447.873 146.708 442.205 141.971 438.12L141.964 438.114C137.253 433.998 130.791 431.86 122.407 431.86H119.491V478.78Z" fill="#E6B902" stroke="#E6B902" stroke-width="3"/>
<path d="M68.4719 426L68.9182 426.656L97.4739 468.628V426H103.355V484.66H98.1555L97.7131 483.972L69.178 439.604V484.66H63.2981V426H68.4719Z" fill="#E6B902" stroke="#E6B902" stroke-width="3"/>
<path d="M30.8896 415.487L55.3701 482.783L56.1016 484.796H20.5V478.916H47.6904L29.4795 428.836L9.48145 483.809L9.12207 484.796H2.8584L3.59082 482.783L28.0703 415.487L29.4805 411.612L30.8896 415.487Z" fill="#E6B902" stroke="#E6B902" stroke-width="3"/>
<path d="M207.57 574C207.492 574 207.323 574 207.063 574C206.829 574 206.582 574 206.322 574C206.062 574 205.828 574 205.62 574C205.438 574 205.347 574 205.347 574L190.956 555.241C190.748 554.877 190.514 554.474 190.254 554.032C190.02 553.564 189.825 553.07 189.669 552.55C189.513 552.004 189.435 551.419 189.435 550.795C189.435 549.625 189.708 548.585 190.254 547.675C190.8 546.739 191.554 546.011 192.516 545.491C193.504 544.945 194.622 544.672 195.87 544.672C197.092 544.672 198.21 544.906 199.224 545.374C200.264 545.816 201.135 546.323 201.837 546.895L200.901 548.182C200.121 547.61 199.328 547.155 198.522 546.817C197.742 546.479 196.949 546.31 196.143 546.31C194.765 546.31 193.621 546.739 192.711 547.597C191.827 548.429 191.385 549.495 191.385 550.795C191.385 551.393 191.476 551.965 191.658 552.511C191.866 553.057 192.061 553.499 192.243 553.837C192.451 554.175 192.568 554.37 192.594 554.422L207.57 574ZM194.778 559.921C193.946 559.921 193.101 560.09 192.243 560.428C191.411 560.74 190.644 561.182 189.942 561.754C189.266 562.326 188.72 563.015 188.304 563.821C187.888 564.601 187.68 565.472 187.68 566.434C187.68 567.656 188.005 568.735 188.655 569.671C189.305 570.581 190.176 571.296 191.268 571.816C192.36 572.336 193.556 572.596 194.856 572.596C195.974 572.596 197.001 572.414 197.937 572.05C198.899 571.686 199.731 571.205 200.433 570.607C201.135 570.009 201.642 569.359 201.954 568.657L203.163 569.905C202.487 571.153 201.395 572.206 199.887 573.064C198.379 573.896 196.637 574.312 194.661 574.312C192.919 574.312 191.372 573.961 190.02 573.259C188.668 572.557 187.602 571.621 186.822 570.451C186.042 569.255 185.652 567.929 185.652 566.473C185.652 565.329 185.899 564.276 186.393 563.314C186.913 562.326 187.602 561.468 188.46 560.74C189.318 560.012 190.28 559.44 191.346 559.024C192.412 558.608 193.517 558.387 194.661 558.361L194.778 559.921ZM205.815 558.361H207.687L203.358 569.632L201.993 568.579L205.815 558.361ZM252.897 549.43C252.091 549.04 251.103 548.676 249.933 548.338C248.763 548 247.593 547.831 246.423 547.831C244.603 547.831 243.147 548.286 242.055 549.196C240.963 550.106 240.417 551.25 240.417 552.628C240.417 553.668 240.729 554.539 241.353 555.241C241.977 555.917 242.796 556.502 243.81 556.996C244.824 557.464 245.903 557.919 247.047 558.361C247.957 558.699 248.854 559.076 249.738 559.492C250.648 559.908 251.467 560.415 252.195 561.013C252.923 561.611 253.495 562.352 253.911 563.236C254.353 564.12 254.574 565.212 254.574 566.512C254.574 568.046 254.21 569.411 253.482 570.607C252.754 571.777 251.74 572.687 250.44 573.337C249.14 573.987 247.632 574.312 245.916 574.312C244.538 574.312 243.277 574.143 242.133 573.805C241.015 573.467 240.027 573.077 239.169 572.635C238.337 572.167 237.674 571.777 237.18 571.465L238.077 569.905C238.649 570.321 239.338 570.737 240.144 571.153C240.976 571.569 241.873 571.92 242.835 572.206C243.797 572.492 244.759 572.635 245.721 572.635C246.839 572.635 247.918 572.414 248.958 571.972C250.024 571.53 250.895 570.867 251.571 569.983C252.273 569.073 252.624 567.929 252.624 566.551C252.624 565.225 252.299 564.159 251.649 563.353C250.999 562.521 250.167 561.845 249.153 561.325C248.139 560.805 247.06 560.337 245.916 559.921C245.032 559.583 244.148 559.232 243.264 558.868C242.38 558.478 241.574 558.023 240.846 557.503C240.118 556.957 239.533 556.307 239.091 555.553C238.675 554.799 238.467 553.889 238.467 552.823C238.467 551.497 238.805 550.34 239.481 549.352C240.157 548.364 241.067 547.597 242.211 547.051C243.381 546.479 244.707 546.18 246.189 546.154C247.489 546.154 248.802 546.323 250.128 546.661C251.48 546.999 252.65 547.428 253.638 547.948L252.897 549.43ZM259.958 560.194C259.958 558.244 260.322 556.424 261.05 554.734C261.778 553.018 262.792 551.51 264.092 550.21C265.392 548.884 266.887 547.857 268.577 547.129C270.293 546.375 272.126 545.998 274.076 545.998C276.026 545.998 277.859 546.375 279.575 547.129C281.291 547.857 282.799 548.884 284.099 550.21C285.399 551.51 286.413 553.018 287.141 554.734C287.895 556.424 288.272 558.244 288.272 560.194C288.272 562.144 287.895 563.977 287.141 565.693C286.413 567.383 285.399 568.878 284.099 570.178C282.799 571.478 281.291 572.492 279.575 573.22C277.859 573.948 276.026 574.312 274.076 574.312C272.126 574.312 270.293 573.961 268.577 573.259C266.887 572.557 265.392 571.569 264.092 570.295C262.792 569.021 261.778 567.526 261.05 565.81C260.322 564.094 259.958 562.222 259.958 560.194ZM261.908 560.233C261.908 561.923 262.22 563.509 262.844 564.991C263.468 566.473 264.339 567.773 265.457 568.891C266.575 570.009 267.862 570.893 269.318 571.543C270.8 572.167 272.373 572.479 274.037 572.479C275.753 572.479 277.352 572.167 278.834 571.543C280.316 570.893 281.616 570.009 282.734 568.891C283.852 567.773 284.723 566.473 285.347 564.991C285.997 563.509 286.322 561.91 286.322 560.194C286.322 558.504 285.997 556.918 285.347 555.436C284.723 553.928 283.852 552.615 282.734 551.497C281.616 550.353 280.316 549.456 278.834 548.806C277.352 548.156 275.766 547.831 274.076 547.831C272.36 547.831 270.761 548.169 269.279 548.845C267.797 549.495 266.497 550.392 265.379 551.536C264.287 552.68 263.429 554.006 262.805 555.514C262.207 556.996 261.908 558.569 261.908 560.233ZM318.509 574.663L296.669 550.054L297.176 549.664L297.215 574H295.343V545.725H295.46L317.3 570.529L316.793 570.685L316.754 546.31H318.587V574.663H318.509ZM327.411 574V546.31H334.236C336.914 546.31 339.189 546.739 341.061 547.597C342.959 548.429 344.493 549.534 345.663 550.912C346.833 552.29 347.691 553.798 348.237 555.436C348.783 557.074 349.056 558.699 349.056 560.311C349.056 562.417 348.692 564.315 347.964 566.005C347.236 567.669 346.235 569.099 344.961 570.295C343.713 571.491 342.283 572.414 340.671 573.064C339.059 573.688 337.356 574 335.562 574H327.411ZM329.322 572.167H335.055C336.719 572.167 338.279 571.894 339.735 571.348C341.191 570.802 342.465 570.009 343.557 568.969C344.675 567.929 345.546 566.681 346.17 565.225C346.794 563.743 347.106 562.066 347.106 560.194C347.106 558.608 346.833 557.1 346.287 555.67C345.767 554.214 344.974 552.927 343.908 551.809C342.842 550.691 341.529 549.807 339.969 549.157C338.409 548.507 336.589 548.182 334.509 548.182H329.322V572.167ZM352.605 574L364.305 545.101H364.461L376.161 574H374.016L363.837 548.143L365.163 547.402L354.516 574H352.605ZM358.26 563.041H370.545L371.091 564.835H357.792L358.26 563.041ZM402.549 572.05C402.081 572.362 401.509 572.661 400.833 572.947C400.183 573.207 399.481 573.441 398.727 573.649C397.973 573.857 397.193 574.013 396.387 574.117C395.607 574.247 394.866 574.312 394.164 574.312C391.98 574.312 390.004 573.961 388.236 573.259C386.494 572.531 384.999 571.543 383.751 570.295C382.503 569.021 381.541 567.552 380.865 565.888C380.215 564.198 379.89 562.378 379.89 560.428C379.89 558.322 380.254 556.385 380.982 554.617C381.736 552.849 382.763 551.328 384.063 550.054C385.363 548.754 386.871 547.753 388.587 547.051C390.303 546.349 392.123 545.998 394.047 545.998C395.503 545.998 396.868 546.18 398.142 546.544C399.442 546.908 400.612 547.402 401.652 548.026L400.95 549.742C400.352 549.378 399.676 549.066 398.922 548.806C398.168 548.52 397.388 548.299 396.582 548.143C395.802 547.987 395.022 547.909 394.242 547.909C392.474 547.909 390.836 548.221 389.328 548.845C387.82 549.469 386.507 550.34 385.389 551.458C384.271 552.576 383.4 553.889 382.776 555.397C382.152 556.905 381.84 558.543 381.84 560.311C381.84 562.027 382.126 563.626 382.698 565.108C383.296 566.564 384.128 567.851 385.194 568.969C386.286 570.061 387.586 570.919 389.094 571.543C390.602 572.141 392.279 572.44 394.125 572.44C395.217 572.44 396.361 572.31 397.557 572.05C398.753 571.79 399.78 571.413 400.638 570.919V563.236H394.398V561.403H402.549V572.05ZM410.553 546.31H427.635V548.143H412.464V559.141H426.114V560.974H412.464V572.167H428.181V574H410.553V546.31ZM435.461 574V545.686H435.5L449.15 565.069L448.331 564.952L461.942 545.686H461.981V574H460.109V550.093L460.265 551.029L448.721 567.292H448.643L437.021 551.029L437.333 550.171V574H435.461ZM480.423 565.342H487.638V566.98H480.423V565.342ZM520.336 549.43C519.53 549.04 518.542 548.676 517.372 548.338C516.202 548 515.032 547.831 513.862 547.831C512.042 547.831 510.586 548.286 509.494 549.196C508.402 550.106 507.856 551.25 507.856 552.628C507.856 553.668 508.168 554.539 508.792 555.241C509.416 555.917 510.235 556.502 511.249 556.996C512.263 557.464 513.342 557.919 514.486 558.361C515.396 558.699 516.293 559.076 517.177 559.492C518.087 559.908 518.906 560.415 519.634 561.013C520.362 561.611 520.934 562.352 521.35 563.236C521.792 564.12 522.013 565.212 522.013 566.512C522.013 568.046 521.649 569.411 520.921 570.607C520.193 571.777 519.179 572.687 517.879 573.337C516.579 573.987 515.071 574.312 513.355 574.312C511.977 574.312 510.716 574.143 509.572 573.805C508.454 573.467 507.466 573.077 506.608 572.635C505.776 572.167 505.113 571.777 504.619 571.465L505.516 569.905C506.088 570.321 506.777 570.737 507.583 571.153C508.415 571.569 509.312 571.92 510.274 572.206C511.236 572.492 512.198 572.635 513.16 572.635C514.278 572.635 515.357 572.414 516.397 571.972C517.463 571.53 518.334 570.867 519.01 569.983C519.712 569.073 520.063 567.929 520.063 566.551C520.063 565.225 519.738 564.159 519.088 563.353C518.438 562.521 517.606 561.845 516.592 561.325C515.578 560.805 514.499 560.337 513.355 559.921C512.471 559.583 511.587 559.232 510.703 558.868C509.819 558.478 509.013 558.023 508.285 557.503C507.557 556.957 506.972 556.307 506.53 555.553C506.114 554.799 505.906 553.889 505.906 552.823C505.906 551.497 506.244 550.34 506.92 549.352C507.596 548.364 508.506 547.597 509.65 547.051C510.82 546.479 512.146 546.18 513.628 546.154C514.928 546.154 516.241 546.323 517.567 546.661C518.919 546.999 520.089 547.428 521.077 547.948L520.336 549.43ZM535.548 546.31C537.264 546.31 538.759 546.609 540.033 547.207C541.333 547.779 542.334 548.65 543.036 549.82C543.764 550.964 544.128 552.407 544.128 554.149C544.128 555.189 543.959 556.203 543.621 557.191C543.309 558.153 542.789 559.024 542.061 559.804C541.359 560.584 540.449 561.208 539.331 561.676C538.239 562.144 536.913 562.378 535.353 562.378H531.063V574H529.152V546.31H535.548ZM535.353 560.545C536.705 560.545 537.823 560.337 538.707 559.921C539.617 559.479 540.319 558.933 540.813 558.283C541.333 557.607 541.697 556.905 541.905 556.177C542.139 555.449 542.256 554.773 542.256 554.149C542.256 553.265 542.113 552.459 541.827 551.731C541.541 551.003 541.112 550.379 540.54 549.859C539.994 549.313 539.318 548.897 538.512 548.611C537.706 548.299 536.783 548.143 535.743 548.143H531.063V560.545H535.353ZM548.524 546.31H566.659V548.143H558.508V574H556.597V548.143H548.524V546.31Z" fill="black"/>
<path d="M318.764 359.022V305.259H197.535L372.025 65.5156L505.178 249.106H554.465L413.362 47.9929H470.201L609.316 237.557C609.581 268.62 592.304 327.162 516.308 328.755C421.312 330.746 399.053 221.229 432.044 184.591L401.836 144.368C377.457 174.767 348.495 259.62 407.003 328.755C465.511 397.891 557.91 374.022 596.199 355.438C620.843 333.8 659 308.047 659 231.584L494.447 1H356.921L93 359.022H318.764Z" fill="black" stroke="black"/>
</svg>
