<?xml version="1.0" encoding="UTF-8"?>
<svg version="1.1" xmlns="http://www.w3.org/2000/svg" width="512" height="512">
<path d="M0 0 C2.48031015 -0.00542887 4.96061708 -0.01255579 7.44091797 -0.02124023 C13.44582191 -0.03750691 19.45044769 -0.03523606 25.45534039 -0.02358967 C30.34093041 -0.01451103 35.22646449 -0.01335036 40.11206055 -0.01768494 C40.81063911 -0.01829787 41.50921767 -0.0189108 42.22896528 -0.01954231 C43.64865432 -0.02082137 45.06834334 -0.02211822 46.48803234 -0.02343267 C59.76243606 -0.03480561 73.0367288 -0.02177661 86.31111431 -0.00023121 C97.67100671 0.01763681 109.03073555 0.01453177 120.390625 -0.00390625 C133.62147965 -0.02537132 146.85223735 -0.03370729 160.08310699 -0.0214572 C161.4972178 -0.02018316 162.91132862 -0.01892568 164.32543945 -0.01768494 C165.02098796 -0.01706783 165.71653647 -0.01645073 166.43316221 -0.01581493 C171.30596995 -0.01237888 176.17871556 -0.01815244 181.05151367 -0.02760315 C187.62462272 -0.04007286 194.19747287 -0.03104094 200.77056885 -0.00802612 C203.1734364 -0.00276676 205.57633008 -0.00420484 207.97918701 -0.01307678 C231.20887691 -0.09089593 250.32147164 3.42941093 268.21875 19.51757812 C269.13527344 20.29488281 269.13527344 20.29488281 270.0703125 21.08789062 C283.8281102 33.58926844 290.82587198 52.38535835 292.21875 70.51757812 C292.37924278 75.26412721 292.40327357 80.00907658 292.42407227 84.75805664 C292.4336687 86.17808811 292.44367977 87.59811683 292.45407104 89.0181427 C292.4809351 92.84804839 292.50204392 96.67796616 292.52207303 100.50791287 C292.54404772 104.51977783 292.57137984 108.53160632 292.59812927 112.54344177 C292.64790178 120.12922222 292.69289742 127.71502307 292.73615164 135.30084318 C292.78565659 143.94178219 292.84052525 152.58268458 292.89583123 161.22358811 C293.00941399 178.98821739 293.11630398 196.7528813 293.21875 214.51757812 C293.90219482 214.7838501 294.58563965 215.05012207 295.28979492 215.32446289 C296.18802979 215.67822998 297.08626465 216.03199707 298.01171875 216.39648438 C298.90141357 216.74525635 299.7911084 217.09402832 300.70776367 217.45336914 C310.36860406 221.54783713 318.21748741 230.30553994 322.36914062 239.88085938 C325.61462147 249.20525085 324.79220499 259.33687464 324.75 269.08007812 C324.75269901 271.28003104 324.75658483 273.47998278 324.76159668 275.67993164 C324.76747241 280.27599519 324.75899085 284.87174639 324.74023438 289.46777344 C324.71744636 295.33507658 324.73057976 301.20164761 324.75452423 307.06892395 C324.76903424 311.60735509 324.76435237 316.14561498 324.75401306 320.68405151 C324.75136015 322.84642627 324.75456452 325.00881699 324.76393127 327.1711731 C324.81888179 343.41929039 323.76718644 355.34270351 312.25390625 367.61132812 C302.23861894 377.31873138 290.69122722 379.66819059 277.18164062 379.65942383 C275.86561104 379.66463547 275.86561104 379.66463547 274.522995 379.66995239 C272.62859217 379.67727173 270.73418099 379.68263733 268.83976746 379.68624306 C265.83797361 379.69344825 262.83633948 379.70914302 259.83459473 379.72758484 C251.30365116 379.77987795 242.77279982 379.82804834 234.24169922 379.84350586 C229.01390338 379.85359666 223.78651742 379.88294089 218.55888367 379.92482567 C216.57186484 379.93711609 214.58478812 379.94226051 212.59773254 379.94002724 C209.81666359 379.93766955 207.0367693 379.95987332 204.25585938 379.98754883 C203.44110641 379.98094742 202.62635345 379.97434601 201.78691101 379.96754456 C196.16645403 380.05912113 192.89367913 381.38489441 188.21875 384.51757812 C189.75420183 389.31125673 191.2973111 394.10243527 192.84375 398.89257812 C193.09241821 399.66325623 193.34108643 400.43393433 193.59729004 401.22796631 C197.62701726 413.69900092 201.75188812 426.13714967 205.9140625 438.56445312 C206.41548381 440.06266367 206.9168774 441.5608835 207.41824341 443.05911255 C209.69249799 449.85357406 211.9694192 456.64710307 214.2561245 463.43738556 C215.22099678 466.30540267 216.18225064 469.17462371 217.14266586 472.04413605 C217.59678096 473.39811875 218.05252302 474.75155696 218.50995255 476.10442352 C219.14061625 477.97009075 219.76528622 479.83778089 220.38964844 481.70556641 C220.74428162 482.7597879 221.09891479 483.8140094 221.46429443 484.900177 C222.21875 487.51757812 222.21875 487.51757812 222.21875 490.51757812 C215.00123471 489.06288512 208.15389679 486.96060009 201.18359375 484.60351562 C200.06432999 484.22901276 198.94506622 483.85450989 197.79188538 483.46865845 C194.24523256 482.28087889 190.70072739 481.08683177 187.15625 479.89257812 C184.74037391 479.08226618 182.32435964 478.27236604 179.90820312 477.46289062 C174.01011178 475.48588167 168.11376718 473.50373357 162.21875 471.51757812 C161.92846924 472.28690674 161.63818848 473.05623535 161.33911133 473.84887695 C159.97023106 477.10955034 158.11373037 479.44121154 155.90625 482.20507812 C150.97944578 488.45172687 146.31187686 494.86464882 141.6862793 501.33666992 C135.62274703 509.80095367 135.62274703 509.80095367 133.21875 512.51757812 C132.55875 512.51757812 131.89875 512.51757812 131.21875 512.51757812 C130.94392792 511.75131104 130.66910583 510.98504395 130.38595581 510.19555664 C127.76949796 502.90091938 125.15191773 495.60668625 122.53314018 488.31288147 C121.18751045 484.56492189 119.84228417 480.81681861 118.49804688 477.06835938 C117.19577218 473.43696479 115.8923504 469.80598367 114.58819962 466.17526245 C114.09594687 464.80425064 113.6040772 463.43310121 113.11263657 462.0617981 C109.57065973 452.17950718 105.92721068 442.33859944 102.21875 432.51757812 C98.92042893 440.51111881 95.99606046 448.62185952 93.12109375 456.77539062 C92.64095119 458.13205898 92.16060566 459.48865552 91.68006897 460.84518433 C90.42516811 464.38909513 89.17255986 467.93381147 87.92059326 471.47875977 C85.91462466 477.15755869 83.90529644 482.83516923 81.89563179 488.51266098 C81.19973189 490.47977268 80.50492676 492.44726829 79.81028748 494.41482544 C77.66857733 500.47131512 75.50408179 506.51371652 73.21875 512.51757812 C70.06796991 511.16766447 68.43211882 509.85482834 66.4765625 507.05273438 C65.97406982 506.34375 65.47157715 505.63476562 64.95385742 504.90429688 C64.42252197 504.13730469 63.89118652 503.3703125 63.34375 502.58007812 C62.19783279 500.95552024 61.05065142 499.33185347 59.90234375 497.70898438 C59.30534668 496.86223145 58.70834961 496.01547852 58.09326172 495.14306641 C56.17819403 492.46077441 54.2244726 489.81166862 52.25390625 487.16992188 C51.28976807 485.8771936 51.28976807 485.8771936 50.30615234 484.55834961 C49.05296384 482.88243946 47.79683962 481.20872 46.53759766 479.53735352 C45.97218262 478.77801514 45.40676758 478.01867676 44.82421875 477.23632812 C44.32043701 476.56537109 43.81665527 475.89441406 43.29760742 475.203125 C42.21875 473.51757812 42.21875 473.51757812 42.21875 471.51757812 C41.51131149 471.75561157 40.80387299 471.99364502 40.07499695 472.2388916 C33.4110197 474.48024616 26.74561107 476.71727849 20.07855511 478.94945526 C16.65092825 480.09721834 13.2238802 481.24665079 9.7980957 482.39990234 C6.49262726 483.51258254 3.18571679 484.6208721 -0.12224388 485.72612 C-1.9994557 486.35460687 -3.87514236 486.98764326 -5.75080872 487.62072754 C-7.46224312 488.19131897 -7.46224312 488.19131897 -9.20825195 488.7734375 C-10.214189 489.11097046 -11.22012604 489.44850342 -12.25654602 489.79626465 C-14.78125 490.51757812 -14.78125 490.51757812 -17.78125 490.51757812 C-16.44972781 484.0686333 -14.72115102 477.91898007 -12.61669922 471.68334961 C-12.30429291 470.7456926 -11.9918866 469.80803558 -11.67001343 468.84196472 C-10.64625287 465.77275696 -9.61615137 462.70571888 -8.5859375 459.63867188 C-7.87095421 457.49932287 -7.15637073 455.35984021 -6.44216919 453.2202301 C-4.56874326 447.61136214 -2.68991706 442.00431786 -0.80993652 436.39764404 C1.11046105 430.66723538 3.0257127 424.93510757 4.94140625 419.203125 C8.69550429 407.97292687 12.45531324 396.74464983 16.21875 385.51757812 C10.79675757 381.40434249 7.48107637 380.22237251 0.68334961 380.23046875 C-0.18860046 380.22363571 -1.06055054 380.21680267 -1.95892334 380.20976257 C-3.85446147 380.19616483 -5.7500364 380.18711781 -7.64561653 380.18205261 C-10.65217449 380.17376398 -13.65842862 380.1532552 -16.66490173 380.1295166 C-23.05780595 380.08124476 -29.45074093 380.04838405 -35.84375 380.01757812 C-43.22950528 379.98183836 -50.61511418 379.93969964 -58.00073051 379.88163757 C-60.95078918 379.86168734 -63.90073354 379.8532706 -66.85084534 379.84533691 C-68.68059694 379.8323498 -70.51034484 379.81882737 -72.34008789 379.8046875 C-73.1503392 379.8056694 -73.96059052 379.80665131 -74.7953949 379.80766296 C-87.55739782 379.67144539 -99.13398718 376.21067361 -108.65625 367.39257812 C-114.96897016 360.63222872 -119.87255556 351.71940132 -119.92842102 342.31419373 C-119.93557632 341.48317642 -119.94273163 340.65215912 -119.95010376 339.79595947 C-119.95279266 338.89254822 -119.95548157 337.98913696 -119.95825195 337.05834961 C-119.96482315 336.10007767 -119.97139435 335.14180573 -119.97816467 334.15449524 C-119.99787621 330.98255328 -120.0095575 327.8106587 -120.01953125 324.63867188 C-120.02360678 323.55281359 -120.0276823 322.4669553 -120.03188133 321.34819221 C-120.05273609 315.59728308 -120.06703862 309.84639774 -120.07641602 304.09545898 C-120.08746007 298.17310815 -120.12183888 292.25113513 -120.16158772 286.3289175 C-120.18781464 281.76049633 -120.19611342 277.19216421 -120.19969749 272.62367439 C-120.2045502 270.44173706 -120.21612633 268.25980336 -120.23473549 266.07793999 C-120.36082157 250.3107296 -119.51772469 237.9596435 -108.78125 225.51757812 C-103.12697215 220.24856169 -96.30015862 216.32324656 -88.78125 214.51757812 C-88.77793985 213.78834578 -88.77462971 213.05911343 -88.77121925 212.30778313 C-88.6897696 194.51083608 -88.59760651 176.71397348 -88.49372292 158.91714287 C-88.44373888 150.31050239 -88.39729514 141.70387076 -88.359375 133.09716797 C-88.32628972 125.5899158 -88.28636907 118.08273532 -88.23845994 110.5755626 C-88.21335814 106.60571594 -88.19153008 102.63591583 -88.17790604 98.66601181 C-88.16493576 94.91822212 -88.14272574 91.17059346 -88.11386681 87.42289352 C-88.10068137 85.41459028 -88.09689872 83.40623192 -88.09355164 81.39788818 C-87.88396327 58.28871459 -82.21540079 38.19920357 -65.73828125 21.34570312 C-46.65376541 2.66049798 -25.4423654 -0.09393949 0 0 Z M-31.78125 20.51757812 C-32.44281034 20.75484965 -33.10437069 20.99212118 -33.78597832 21.23658276 C-48.94934424 27.2632333 -58.94074302 37.96001679 -65.78125 52.51757812 C-68.51584726 59.16284069 -69.90765687 65.49512899 -69.90150452 72.69953918 C-69.90287918 73.94329315 -69.90425385 75.18704712 -69.90567017 76.4684906 C-69.90213151 77.83877588 -69.89849671 79.20906091 -69.89477539 80.5793457 C-69.89449319 82.02834064 -69.8946519 83.47733572 -69.8952179 84.92633057 C-69.89550459 88.85360774 -69.88962853 92.78085433 -69.88264394 96.7081244 C-69.8763891 100.81474798 -69.87580491 104.92137227 -69.87461853 109.02799988 C-69.8715115 116.80164494 -69.86330657 124.57527593 -69.85326904 132.3489148 C-69.84208841 141.20013006 -69.83659253 150.05134599 -69.83157361 158.90256655 C-69.82112344 177.10758001 -69.80278576 195.31257417 -69.78125 213.51757812 C-55.26125 213.51757812 -40.74125 213.51757812 -25.78125 213.51757812 C-14.23993749 193.54128417 -14.23993749 193.54128417 -2.78125 173.51757812 C-1.73324219 174.05898438 -1.73324219 174.05898438 -0.6640625 174.61132812 C0.24601562 175.07539063 1.15609375 175.53945312 2.09375 176.01757812 C2.99867188 176.48164063 3.90359375 176.94570312 4.8359375 177.42382812 C7.08471859 178.65663401 7.08471859 178.65663401 9.21875 178.51757812 C8.19852128 175.77080849 7.11369656 173.3438359 5.59375 170.83007812 C4.21875 168.51757812 4.21875 168.51757812 4.21875 166.51757812 C4.85039062 166.16679199 5.48203125 165.81600586 6.1328125 165.45458984 C19.25769484 158.15694723 32.32118774 150.78239111 45.24804688 143.13818359 C50.48700292 140.0530811 55.74325541 137.16180991 61.21875 134.51757812 C63.19875 137.81757813 65.17875 141.11757812 67.21875 144.51757812 C67.87875 144.18757813 68.53875 143.85757813 69.21875 143.51757812 C69.21875 139.55757813 69.21875 135.59757812 69.21875 131.51757812 C90.99875 131.51757812 112.77875 131.51757812 135.21875 131.51757812 C135.21875 135.47757812 135.21875 139.43757813 135.21875 143.51757812 C136.20875 143.51757812 137.19875 143.51757812 138.21875 143.51757812 C140.69375 139.06257813 140.69375 139.06257813 143.21875 134.51757812 C150.68581904 138.05688253 157.82513154 141.96833917 164.91992188 146.19067383 C171.37507374 150.03177356 177.86949788 153.80259599 184.37689209 157.55422974 C186.13854979 158.56987347 187.89960657 159.58655366 189.66064453 160.60327148 C194.88255547 163.66559301 194.88255547 163.66559301 200.21875 166.51757812 C199.19852128 169.26434776 198.11369656 171.69132035 196.59375 174.20507812 C195.04839154 176.35568919 195.04839154 176.35568919 195.21875 178.51757812 C199.45837514 177.2053132 203.27108556 175.53564188 207.21875 173.51757812 C207.56019043 174.12529053 207.90163086 174.73300293 208.25341797 175.35913086 C209.86514607 178.22541515 211.4794513 181.09024086 213.09375 183.95507812 C213.898125 185.3869043 213.898125 185.3869043 214.71875 186.84765625 C215.84639439 188.84725823 216.99882789 190.83306552 218.17453003 192.80479431 C219.68521513 195.42152285 220.86618461 198.04692407 221.98391724 200.85243225 C224.05547196 205.63281954 226.19335013 210.09023334 230.21875 213.51757812 C237.34343631 216.25748587 245.395981 215.11341463 252.84375 214.58007812 C254.91765863 214.49470476 256.99190497 214.41715515 259.06640625 214.34765625 C264.12558684 214.16119965 269.16843438 213.86869168 274.21875 213.51757812 C274.28897989 194.55843241 274.34180647 175.59931327 274.37418652 156.64006424 C274.38962395 147.83600758 274.4106534 139.03203197 274.44506836 130.22802734 C274.47506673 122.55017914 274.49434768 114.87238966 274.50101548 107.19448447 C274.50491014 103.13296213 274.5139972 99.07160773 274.53594017 95.01013947 C274.5564707 91.17865861 274.56255077 87.34741313 274.55807304 83.51588249 C274.55889091 82.11798506 274.56475721 80.72007885 274.57636642 79.32222939 C274.72094962 60.9971296 269.74169167 46.3520029 256.89453125 32.95898438 C244.53569526 21.68267416 230.27495015 17.18875534 213.83377075 17.25688171 C212.3390744 17.25114339 212.3390744 17.25114339 210.81418216 17.24528915 C207.50122932 17.23503479 204.18845224 17.23893686 200.87548828 17.24291992 C198.48957154 17.23856927 196.1036562 17.23338495 193.71774292 17.22743225 C187.92513464 17.21545507 182.13258035 17.21288622 176.33996119 17.21523251 C171.62824562 17.21702058 166.91654407 17.2152556 162.20483017 17.21100807 C161.19627732 17.21011529 161.19627732 17.21011529 160.16734966 17.20920447 C158.80112577 17.20799263 157.43490189 17.2067785 156.06867801 17.20556209 C143.27608397 17.19470298 130.48351633 17.19684134 117.69092081 17.20294694 C106.00815021 17.20811487 94.32546302 17.19686102 82.64270891 17.17784872 C70.62351461 17.15844006 58.60435971 17.15021961 46.58514965 17.15397197 C39.84662624 17.1558794 33.1081738 17.15344133 26.36966324 17.13925743 C20.03140598 17.12665667 13.69331536 17.12864463 7.35506058 17.14166832 C5.03478437 17.1440287 2.71449636 17.1413188 0.3942337 17.1330452 C-15.95300868 16.90775769 -15.95300868 16.90775769 -31.78125 20.51757812 Z M83.13085938 150.24609375 C81.78310008 152.33016713 81.78310008 152.33016713 81.0090332 154.54101562 C79.85036297 157.43894402 78.04176968 158.55082883 75.30859375 159.89648438 C68.22879375 162.00057447 62.61364088 160.78938276 56.21875 157.51757812 C49.66986639 159.24135818 43.8768745 162.60587004 37.96875 165.83007812 C36.31746094 166.65475586 36.31746094 166.65475586 34.6328125 167.49609375 C28.46382155 170.81793394 28.46382155 170.81793394 25.18164062 176.72216797 C24.68242721 180.14460936 24.68242721 180.14460936 24.63378906 183.45581055 C24.01165221 188.04535071 21.57739933 190.39869044 18.09375 193.26757812 C14.54529344 194.81038532 11.46321305 194.88049526 7.62109375 194.91601562 C3.44006708 195.9629719 1.68260422 199.77862788 -0.52050781 203.28833008 C-1.08608398 204.26761475 -1.65166016 205.24689941 -2.234375 206.25585938 C-2.853125 207.32255859 -3.471875 208.38925781 -4.109375 209.48828125 C-4.74359375 210.59107422 -5.3778125 211.69386719 -6.03125 212.83007812 C-6.6809375 213.95220703 -7.330625 215.07433594 -8 216.23046875 C-9.59743272 218.99073852 -11.19104032 221.75314288 -12.78125 224.51757812 C-12.30042969 225.30519531 -11.81960937 226.0928125 -11.32421875 226.90429688 C-8.59140758 231.53277959 -8.08486822 236.17865115 -8.78125 241.51757812 C-10.54504893 246.80897492 -13.02007824 250.46554494 -17.78125 253.51757812 C-19.26625 254.01257813 -19.26625 254.01257813 -20.78125 254.51757812 C-20.92974962 259.28631977 -21.03853023 264.05371227 -21.11083984 268.82421875 C-21.14098462 270.44620202 -21.18190941 272.06802264 -21.23388672 273.68945312 C-21.30681613 276.02319423 -21.34072489 278.35477923 -21.3671875 280.68945312 C-21.41363907 281.77404816 -21.41363907 281.77404816 -21.46102905 282.8805542 C-21.52712006 285.21140048 -21.52712006 285.21140048 -20.78125 288.51757812 C-17.24454061 291.64105788 -17.24454061 291.64105788 -12.78125 292.51757812 C-9.67346324 298.2891821 -7.88447598 303.90707252 -8.78125 310.51757812 C-9.4921875 312.40820312 -9.4921875 312.40820312 -10.34375 314.20507812 C-11.95765371 317.92407364 -11.89612678 318.75556234 -10.78125 322.51757812 C-9.80879362 324.45493649 -8.75905574 326.35446403 -7.65625 328.22070312 C-6.72039062 329.81398438 -6.72039062 329.81398438 -5.765625 331.43945312 C-5.11078125 332.53773438 -4.4559375 333.63601563 -3.78125 334.76757812 C-3.12640625 335.88132812 -2.4715625 336.99507812 -1.796875 338.14257812 C0.84373062 343.09889833 0.84373062 343.09889833 4.21875 347.51757812 C6.09172077 347.76277777 7.96724749 347.9885586 9.84375 348.20507812 C15.73565985 349.13796385 19.47105172 350.82734495 23.21875 355.51757812 C25.14811384 358.61994391 25.33186655 360.78193072 25.28125 364.39257812 C25.60461217 368.2182706 25.60461217 368.2182706 27.9362793 371.11962891 C28.67273682 371.56290527 29.40919434 372.00618164 30.16796875 372.46289062 C30.98257568 372.96449707 31.79718262 373.46610352 32.63647461 373.98291016 C33.91470093 374.7425708 33.91470093 374.7425708 35.21875 375.51757812 C36.0238501 376.02530762 36.8289502 376.53303711 37.65844727 377.05615234 C40.07551071 378.57843163 42.51732064 380.05141224 44.96875 381.51757812 C46.20431641 382.28908203 46.20431641 382.28908203 47.46484375 383.07617188 C51.99685432 385.97875544 51.99685432 385.97875544 57.125 385.90429688 C58.16140625 385.21787109 58.16140625 385.21787109 59.21875 384.51757812 C64.45590995 382.25607724 68.73598667 382.24298739 74.21875 383.51757812 C77.15625 385.08007812 77.15625 385.08007812 79.21875 386.51757812 C79.87875 386.51757812 80.53875 386.51757812 81.21875 386.51757812 C82.55208333 389.18424479 83.88541667 391.85091146 85.21875 394.51757812 C96.43875 394.51757812 107.65875 394.51757812 119.21875 394.51757812 C120.53875 392.20757812 121.85875 389.89757812 123.21875 387.51757812 C128.18953207 383.81385815 132.97410566 382.19568924 139.21875 382.51757812 C141.39268949 383.12443756 143.35144354 383.87101766 145.39453125 384.82617188 C147.51700101 385.75385331 147.51700101 385.75385331 151.21875 385.51757812 C154.03620329 384.26342875 154.03620329 384.26342875 157.0078125 382.52539062 C158.66683594 381.59146484 158.66683594 381.59146484 160.359375 380.63867188 C160.93107422 380.31108887 161.50277344 379.98350586 162.09179688 379.64599609 C163.83998709 378.6447333 165.59496622 377.65634849 167.3515625 376.66992188 C173.13833037 373.57329281 173.13833037 373.57329281 178.21875 369.51757812 C178.53154156 367.28360433 178.53154156 367.28360433 178.59375 364.76757812 C179.0926517 358.79796124 181.28308974 355.69519591 185.21875 351.26757812 C188.53577198 349.33264864 190.26301877 349.33129354 194.03125 349.08007812 C198.08334634 348.50970961 199.72099328 348.06826953 202.49609375 344.99804688 C204.21311943 342.18620482 205.77735341 339.35207309 207.24365234 336.40234375 C208.25439375 334.44868235 209.36239038 332.59100489 210.51953125 330.72070312 C211.08655762 329.79209473 211.08655762 329.79209473 211.66503906 328.84472656 C212.21756348 327.94028809 212.21756348 327.94028809 212.78125 327.01757812 C215.56630592 322.68109104 215.56630592 322.68109104 216 317.75585938 C215.24393566 315.47615398 215.24393566 315.47615398 214.15625 313.20507812 C212.39180169 308.14699296 212.56253073 303.5596331 214.65625 298.70507812 C215.4296875 297.12726563 215.4296875 297.12726563 216.21875 295.51757812 C216.54875 294.52757812 216.87875 293.53757812 217.21875 292.51757812 C219.03125 291.45507812 219.03125 291.45507812 221.21875 290.51757812 C222.53875 289.85757813 223.85875 289.19757813 225.21875 288.51757812 C225.21875 277.29757812 225.21875 266.07757813 225.21875 254.51757812 C223.23875 253.52757812 221.25875 252.53757812 219.21875 251.51757812 C214.61079837 246.65362918 212.80889088 242.32466666 212.94921875 235.57617188 C213.38717631 232.23119166 214.78723007 229.55955798 216.21875 226.51757812 C216.21875 222.78718578 215.08139088 221.10847272 213.26171875 217.86132812 C212.33456055 216.20423828 212.33456055 216.20423828 211.38867188 214.51367188 C211.06310303 213.93987793 210.73753418 213.36608398 210.40209961 212.77490234 C209.41241909 211.02846439 208.43503531 209.27556834 207.45898438 207.52148438 C204.06401181 200.96329703 204.06401181 200.96329703 199.21875 195.51757812 C196.91395035 195.08807405 196.91395035 195.08807405 194.40625 195.08007812 C189.62335059 194.71109171 186.86978933 193.82089942 183.21875 190.51757812 C180.03164979 186.21068595 179.1386638 184.10258684 179.46875 178.82226562 C179.13016527 174.96515937 178.53842176 173.80509391 175.61450195 171.17529297 C172.69520114 169.17955496 169.63466399 167.46861336 166.51000977 165.81738281 C164.53029667 164.76707235 162.59169627 163.66044209 160.65039062 162.54101562 C154.18994532 158.50009689 154.18994532 158.50009689 146.92651367 158.27050781 C145.34711805 158.99790416 143.77402386 159.73994119 142.21875 160.51757812 C135.04714566 161.2430638 130.02351102 160.90076502 124.21875 156.51757812 C121.707406 153.80797012 120.38589251 152.01900564 119.21875 148.51757812 C114.46842759 148.31931441 109.72052568 148.17443712 104.96704102 148.078125 C103.35170542 148.03797233 101.73665922 147.98343335 100.12231445 147.9140625 C91.09384377 147.11425767 91.09384377 147.11425767 83.13085938 150.24609375 Z M-97.15625 239.89257812 C-97.80335937 240.6221875 -98.45046875 241.35179687 -99.1171875 242.10351562 C-102.91051898 247.60651763 -103.07885699 253.06063338 -103.07177734 259.5012207 C-103.07849457 260.38496872 -103.08521179 261.26871674 -103.09213257 262.179245 C-103.11107358 265.09025757 -103.11503486 268.00103908 -103.1171875 270.91210938 C-103.12361834 272.94463698 -103.13034691 274.97716365 -103.13735962 277.00968933 C-103.14932279 281.26730494 -103.15304145 285.52483947 -103.15185547 289.7824707 C-103.15165239 295.22297516 -103.17894815 300.66295666 -103.21339989 306.10333729 C-103.23569979 310.30110536 -103.23969205 314.49874821 -103.23863602 318.69656944 C-103.24098756 320.70152271 -103.24978576 322.70647967 -103.26530075 324.71137428 C-103.2850224 327.52319993 -103.27909845 330.33390607 -103.26708984 333.14575195 C-103.27832886 333.96423615 -103.28956787 334.78272034 -103.30114746 335.62600708 C-103.22505685 342.6809225 -101.19853141 348.63881572 -96.6328125 354.07617188 C-95.89804688 354.69621094 -95.16328125 355.31625 -94.40625 355.95507812 C-93.67664063 356.59316406 -92.94703125 357.23125 -92.1953125 357.88867188 C-87.097382 361.3285376 -82.2599168 361.76498104 -76.21533203 361.74462891 C-75.1167411 361.74506699 -75.1167411 361.74506699 -73.99595642 361.74551392 C-71.59353471 361.74412906 -69.19142952 361.7286081 -66.7890625 361.71289062 C-65.11612111 361.70915748 -63.44317752 361.70631193 -61.77023315 361.70431519 C-57.38079728 361.69670242 -52.9914951 361.67707432 -48.60211182 361.65490723 C-44.11757211 361.63439789 -39.63301066 361.62530261 -35.1484375 361.61523438 C-26.35931385 361.59382608 -17.57029859 361.55971877 -8.78125 361.51757812 C-10.19917161 357.89619612 -11.78279162 354.55193825 -13.6875 351.15820312 C-14.26226074 350.13218994 -14.83702148 349.10617676 -15.42919922 348.04907227 C-16.04037598 346.9661792 -16.65155273 345.88328613 -17.28125 344.76757812 C-17.90402832 343.65825928 -18.52680664 342.54894043 -19.16845703 341.40600586 C-23.32149511 334.03236405 -27.54840293 326.70683959 -31.93554688 319.46972656 C-34.78125 314.72769326 -34.78125 314.72769326 -34.78125 312.51757812 C-31.81125 310.86757813 -28.84125 309.21757812 -25.78125 307.51757812 C-25.78125 306.85757813 -25.78125 306.19757813 -25.78125 305.51757812 C-29.74125 305.51757812 -33.70125 305.51757812 -37.78125 305.51757812 C-37.78125 283.40757812 -37.78125 261.29757812 -37.78125 238.51757812 C-33.82125 238.51757812 -29.86125 238.51757812 -25.78125 238.51757812 C-26.95446856 234.99792243 -28.32636213 234.05358428 -31.54446411 232.33813477 C-36.01013674 230.69991926 -40.63695216 230.95021164 -45.33984375 230.98632812 C-46.44296402 230.98250122 -47.54608429 230.97867432 -48.68263245 230.97473145 C-51.00823889 230.97201768 -53.33387614 230.97934117 -55.65942383 230.99609375 C-59.20398599 231.01748901 -62.74651653 230.99628275 -66.29101562 230.97070312 C-68.55729611 230.97334689 -70.82357534 230.97847288 -73.08984375 230.98632812 C-74.14215683 230.9782312 -75.19446991 230.97013428 -76.27867126 230.96179199 C-85.02121824 231.07226002 -91.33764156 233.1239928 -97.15625 239.89257812 Z M230.21875 236.51757812 C230.21875 237.17757812 230.21875 237.83757812 230.21875 238.51757812 C234.17875 238.51757812 238.13875 238.51757812 242.21875 238.51757812 C242.21875 260.62757813 242.21875 282.73757813 242.21875 305.51757812 C238.25875 305.51757812 234.29875 305.51757812 230.21875 305.51757812 C230.21875 306.17757812 230.21875 306.83757812 230.21875 307.51757812 C233.18875 309.16757812 236.15875 310.81757813 239.21875 312.51757812 C237.56457396 317.04896462 235.32124219 321.13581372 232.96875 325.33007812 C232.54416504 326.09255859 232.11958008 326.85503906 231.68212891 327.640625 C227.14495412 335.74031029 222.43357178 343.7394942 217.69042969 351.7199707 C217.10938477 352.70505615 216.52833984 353.6901416 215.9296875 354.70507812 C215.14537354 356.02572266 215.14537354 356.02572266 214.34521484 357.37304688 C213.06374216 359.40894714 213.06374216 359.40894714 213.21875 361.51757812 C222.87660408 361.58720448 232.53437125 361.64045342 242.19242191 361.67301464 C246.67744397 361.68864538 251.16229383 361.70983611 255.6472168 361.74389648 C259.97848126 361.77658265 264.30958047 361.79445063 268.64095879 361.80220985 C270.2903141 361.80773678 271.93966076 361.81852952 273.58894539 361.8347683 C275.90592859 361.85666612 278.22223599 361.85953997 280.53930664 361.8581543 C282.51454063 361.86814705 282.51454063 361.86814705 284.52967834 361.87834167 C290.30241224 361.31381158 294.96507743 359.18359966 299.40625 355.39257812 C300.03917969 354.874375 300.67210937 354.35617187 301.32421875 353.82226562 C306.40517528 347.6413082 307.81413449 341.01318975 307.73632812 333.19335938 C307.7433374 332.30917328 307.75034668 331.42498718 307.75756836 330.51400757 C307.77503615 327.61903583 307.76356571 324.72505814 307.75 321.83007812 C307.75269814 319.8018373 307.75658323 317.77359775 307.76159668 315.74536133 C307.76747655 311.50557068 307.75897751 307.26611834 307.74023438 303.02636719 C307.71744593 297.60943162 307.73057712 292.19328897 307.75452423 286.77638245 C307.76902306 282.59145198 307.76435749 278.4067075 307.75401306 274.22177124 C307.75135706 272.22520858 307.75457559 270.22862869 307.76393127 268.23208618 C307.77416437 265.4348723 307.75850196 262.63891769 307.73632812 259.84179688 C307.74442505 259.02802582 307.75252197 258.21425476 307.76086426 257.37582397 C307.66066141 250.50450337 305.59116881 244.78034526 301.54296875 239.21289062 C300.73279297 238.43558594 300.73279297 238.43558594 299.90625 237.64257812 C299.37386719 237.10890625 298.84148437 236.57523438 298.29296875 236.02539062 C291.69953351 231.23242263 285.57361951 231.05033988 277.66015625 231.04882812 C276.55703598 231.0412146 275.45391571 231.03360107 274.31736755 231.02575684 C271.99179337 231.01498415 269.66617093 231.01209116 267.34057617 231.01660156 C263.79588691 231.01757411 260.25336172 230.97591152 256.70898438 230.93164062 C254.44271282 230.92643322 252.17643379 230.92374544 249.91015625 230.92382812 C248.85784317 230.90743286 247.80553009 230.8910376 246.72132874 230.87414551 C240.18370439 230.9351113 235.11175572 231.88324358 230.21875 236.51757812 Z M32.21875 393.51757812 C29.34501313 402.0693289 26.47611774 410.62268383 23.61341858 419.17813587 C22.28405218 423.15056826 20.95301438 427.12242425 19.61816406 431.09301758 C18.33042462 434.92367959 17.04706644 438.75578346 15.76675415 442.58893394 C15.27711278 444.05230792 14.78588543 445.5151522 14.2930603 446.97745705 C13.60394872 449.02306814 12.92046081 451.0704768 12.23828125 453.1184082 C11.84745361 454.28422928 11.45662598 455.45005035 11.05395508 456.65119934 C10.07887688 459.50001825 10.07887688 459.50001825 10.21875 462.51757812 C19.37833705 460.73490581 28.00567846 457.61466018 36.796875 454.53125 C37.96476562 454.13099609 39.13265625 453.73074219 40.3359375 453.31835938 C41.39409668 452.94880127 42.45225586 452.57924316 43.54248047 452.19848633 C46.21875 451.51757812 46.21875 451.51757812 49.21875 452.51757812 C50.68920898 454.18823242 50.68920898 454.18823242 52.21484375 456.34179688 C53.05305664 457.51452148 53.05305664 457.51452148 53.90820312 458.7109375 C54.48505859 459.53400391 55.06191406 460.35707031 55.65625 461.20507812 C56.22923828 462.00880859 56.80222656 462.81253906 57.39257812 463.640625 C60.40874834 467.88547675 63.35794398 472.16662254 66.21875 476.51757812 C68.30883707 474.42749105 68.78979399 473.3311544 69.72753906 470.59716797 C70.00833313 469.78806976 70.2891272 468.97897156 70.57843018 468.14535522 C70.87739197 467.26529816 71.17635376 466.38524109 71.484375 465.47851562 C71.80025574 464.56486237 72.11613647 463.65120911 72.44158936 462.70986938 C73.45613481 459.77263141 74.46283963 456.83278336 75.46875 453.89257812 C76.78348363 450.0660282 78.10192696 446.24076964 79.421875 442.41601562 C79.74192505 441.48553406 80.0619751 440.55505249 80.39172363 439.59637451 C82.62852352 433.12527567 84.97425405 426.70354326 87.47979736 420.33139038 C88.55550186 417.5495045 89.21875 415.53399601 89.21875 412.51757812 C82.61875 412.51757812 76.01875 412.51757812 69.21875 412.51757812 C69.21875 408.55757813 69.21875 404.59757812 69.21875 400.51757812 C68.22875 400.51757812 67.23875 400.51757812 66.21875 400.51757812 C65.55875 401.63132812 64.89875 402.74507813 64.21875 403.89257812 C63.8475 404.5190625 63.47625 405.14554687 63.09375 405.79101562 C62.06806652 407.4923048 62.06806652 407.4923048 62.21875 409.51757812 C53.86031204 405.51222496 45.82316215 401.22502475 37.93139648 396.36352539 C35.25769886 394.39071237 35.25769886 394.39071237 32.21875 393.51757812 Z M165.5390625 396.76367188 C164.37110629 397.4427299 163.20313713 398.12176565 162.03515625 398.80078125 C160.18912995 399.87750715 158.34363969 400.95514259 156.49853516 402.03344727 C154.7217151 403.07083792 152.94297959 404.1048826 151.1640625 405.13867188 C150.09687988 405.76185303 149.02969727 406.38503418 147.93017578 407.02709961 C145.21875 408.51757812 145.21875 408.51757812 142.21875 409.51757812 C141.97125 408.61007812 141.72375 407.70257813 141.46875 406.76757812 C140.17893658 403.41406324 138.89903958 401.84049576 136.21875 399.51757812 C134.90612429 400.60310179 134.90612429 400.60310179 135.12109375 403.24023438 C135.13269531 404.34238281 135.14429688 405.44453125 135.15625 406.58007812 C135.176875 408.53945313 135.1975 410.49882812 135.21875 412.51757812 C128.28875 412.51757812 121.35875 412.51757812 114.21875 412.51757812 C121.49022064 434.00370694 129.23817645 455.28563692 137.21875 476.51757812 C140.23592544 472.75457061 143.21463899 468.96488082 146.15625 465.14257812 C146.59501465 464.5725708 147.0337793 464.00256348 147.48583984 463.4152832 C150.484372 459.50650224 153.40020006 455.5574997 156.21875 451.51757812 C165.28764248 453.86472818 174.10649661 456.77459819 182.9609375 459.8203125 C183.98445313 460.16771484 185.00796875 460.51511719 186.0625 460.87304688 C186.98224609 461.18910889 187.90199219 461.5051709 188.84960938 461.83081055 C191.28786771 462.6567874 191.28786771 462.6567874 194.21875 462.51757812 C192.6632609 454.62477337 190.21786166 447.12691935 187.6484375 439.51367188 C187.20249543 438.18145255 186.75695576 436.84909846 186.3117981 435.51661682 C185.14858933 432.03835314 183.97998326 428.56192714 182.81018066 425.08587646 C181.61362969 421.52711084 180.42227929 417.96660535 179.23046875 414.40625 C176.89826864 407.44166212 174.5603545 400.4790105 172.21875 393.51757812 C169.97670907 393.51757812 167.36718586 395.69581438 165.5390625 396.76367188 Z " fill="#000000" transform="translate(153.78125,-0.517578125)"/>
<path d="M0 0 C0.69996094 0.6084375 1.39992188 1.216875 2.12109375 1.84375 C3.00087891 2.50890625 3.00087891 2.50890625 3.8984375 3.1875 C21.20837022 16.54669513 32.45214351 40.12311023 35.65234375 61.375 C39.10657781 89.95093636 32.37971803 117.08522664 14.55859375 139.93359375 C-1.73342372 159.38480051 -23.71083088 172.19470156 -48.87890625 175.84375 C-64.21943597 176.75440946 -79.21252559 176.67969173 -93.87890625 171.84375 C-95.01972656 171.48152344 -96.16054687 171.11929688 -97.3359375 170.74609375 C-122.83963913 161.82131085 -142.41425054 141.82890082 -153.97851562 117.86425781 C-159.63168355 105.17835278 -162.27421835 91.49415206 -162.19140625 77.65625 C-162.18294678 76.1546936 -162.18294678 76.1546936 -162.17431641 74.62280273 C-161.74040722 47.83428082 -150.81805056 23.69732589 -131.87890625 4.84375 C-96.28878012 -28.62334403 -37.6968012 -32.18774487 0 0 Z M-116.87890625 15.84375 C-117.79285156 16.66617188 -118.70679688 17.48859375 -119.6484375 18.3359375 C-135.876772 33.65406446 -144.36345115 54.61633281 -145.12890625 76.78125 C-144.78387361 99.52203742 -135.99087141 119.42454445 -120.37890625 135.78125 C-103.30746615 151.89931125 -81.74637228 159.38313258 -58.5546875 159.05859375 C-37.42241698 158.36636678 -17.84931917 148.22904833 -3.24267578 133.30126953 C9.62589712 119.54806863 17.86356944 101.70661469 19.12109375 82.84375 C19.17265625 82.07675781 19.22421875 81.30976563 19.27734375 80.51953125 C20.00177207 60.32609183 13.05392837 39.65461143 -0.37890625 24.53125 C-1.87123926 22.96142566 -3.37061163 21.39824464 -4.87890625 19.84375 C-5.41902344 19.23015625 -5.95914063 18.6165625 -6.515625 17.984375 C-14.69614334 9.00022891 -26.48980599 2.69039976 -37.87890625 -1.15625 C-38.80058594 -1.47464844 -39.72226562 -1.79304688 -40.671875 -2.12109375 C-67.04853774 -9.68217145 -96.81183912 -2.66438795 -116.87890625 15.84375 Z " fill="#000000" transform="translate(318.87890625,194.15625)"/>
<path d="M0 0 C0.66 0 1.32 0 2 0 C3.4338655 1.9401043 4.73909501 3.87191561 6.02734375 5.90625 C6.82730764 7.13682688 7.62744316 8.36729221 8.42773438 9.59765625 C9.68639934 11.55098616 10.9416102 13.50643024 12.19311523 15.46435547 C13.39987065 17.34669473 14.61908704 19.22047185 15.83984375 21.09375 C16.21181381 21.68434204 16.58378387 22.27493408 16.96702576 22.88342285 C18.12478409 24.70642672 18.12478409 24.70642672 20 27 C24.12350658 27 27.07575349 25.1274643 30.66015625 23.28125 C31.40583359 22.90391724 32.15151093 22.52658447 32.91978455 22.13781738 C35.30361504 20.93087462 37.68333407 19.71610883 40.0625 18.5 C42.4455729 17.28459203 44.82948781 16.07096821 47.21592712 14.86218262 C48.70151295 14.10947053 50.18510801 13.3528143 51.66651917 12.59191895 C56.77546627 10 56.77546627 10 59 10 C59.09282946 19.78819251 59.16383059 29.57627967 59.20724869 39.36482334 C59.22809112 43.91044772 59.25634729 48.4557701 59.30175781 53.0012207 C59.34533541 57.39085277 59.36916225 61.78019503 59.37950897 66.17002678 C59.38687903 67.84173072 59.40127112 69.51341946 59.42292023 71.18499947 C59.45211368 73.53326362 59.45594952 75.88034228 59.45410156 78.22875977 C59.46848267 78.91424896 59.48286377 79.59973816 59.49768066 80.30599976 C59.45212796 85.6833461 57.93102685 88.65148217 55 93 C49.67363588 97.93663016 45.33021198 98.15453784 38.32519531 98.17700195 C37.43867279 98.18357315 36.55215027 98.19014435 35.63876343 98.19691467 C32.70188309 98.21664167 29.76505389 98.22830921 26.828125 98.23828125 C25.82461754 98.24235678 24.82111008 98.2464323 23.7871933 98.25063133 C18.47531846 98.27148993 13.16346943 98.28579234 7.8515625 98.29516602 C2.36932994 98.3062275 -3.1124964 98.34062517 -8.59458542 98.38033772 C-12.81370795 98.40650275 -17.0327337 98.41485779 -21.25193024 98.41844749 C-23.27250155 98.42331404 -25.29306852 98.43492996 -27.31356049 98.45348549 C-30.14523865 98.47787335 -32.97586581 98.47691244 -35.80761719 98.4699707 C-36.63800507 98.48278076 -37.46839294 98.49559082 -38.32394409 98.50878906 C-44.79186915 98.45116435 -48.80263251 96.77686329 -53.76017761 92.47131348 C-58.69237425 85.4462621 -57.62134882 76.78671354 -57.48828125 68.59375 C-57.47894382 66.90125579 -57.4718321 65.20874797 -57.46684265 63.51623535 C-57.4478458 59.08376071 -57.39880958 54.6521187 -57.34332275 50.2199707 C-57.29197124 45.68842835 -57.26929483 41.15675009 -57.24414062 36.625 C-57.19068251 27.74963624 -57.10545984 18.87488764 -57 10 C-52.24776164 11.53165615 -47.85986757 13.43811056 -43.4140625 15.6953125 C-42.36138687 16.22377274 -42.36138687 16.22377274 -41.28744507 16.76290894 C-39.06470966 17.87983696 -36.84483451 19.00231954 -34.625 20.125 C-33.11086316 20.88708856 -31.59654204 21.64881112 -30.08203125 22.41015625 C-26.38587569 24.26921035 -22.6922735 26.13324843 -19 28 C-13.57629919 20.67946235 -8.49357043 13.24731104 -3.6953125 5.50585938 C-3.2415625 4.78849609 -2.7878125 4.07113281 -2.3203125 3.33203125 C-1.92086426 2.68983643 -1.52141602 2.0476416 -1.10986328 1.38598633 C-0.7436084 0.92861084 -0.37735352 0.47123535 0 0 Z M0 32 C-1.42045694 33.71088609 -1.42045694 33.71088609 -2.8203125 35.9375 C-3.35527344 36.74960937 -3.89023438 37.56171875 -4.44140625 38.3984375 C-4.99699219 39.25695312 -5.55257812 40.11546875 -6.125 41 C-6.68832031 41.85851562 -7.25164062 42.71703125 -7.83203125 43.6015625 C-9.22760249 45.73039998 -10.61655555 47.86326974 -12 50 C-17.7821357 48.33428541 -22.92355797 45.6149709 -28.25 42.875 C-30.04500071 41.95207471 -31.84179053 41.0326181 -33.640625 40.1171875 C-34.42985352 39.71097168 -35.21908203 39.30475586 -36.03222656 38.88623047 C-37.9442427 37.86311771 -37.9442427 37.86311771 -40 38 C-40 52.19 -40 66.38 -40 81 C-12.94 81 14.12 81 42 81 C42 66.81 42 52.62 42 38 C37.97119412 39.34293529 34.79972082 40.49219661 31.14453125 42.41796875 C30.27505859 42.86720703 29.40558594 43.31644531 28.50976562 43.77929688 C26.69756676 44.72541952 24.88769588 45.6760134 23.08007812 46.63085938 C22.21447266 47.07623047 21.34886719 47.52160156 20.45703125 47.98046875 C19.67303955 48.39192139 18.88904785 48.80337402 18.08129883 49.22729492 C16 50 16 50 13 49 C11.68139648 47.32592773 11.68139648 47.32592773 10.37109375 45.18359375 C9.89349609 44.41982422 9.41589844 43.65605469 8.92382812 42.86914062 C8.43333984 42.06669922 7.94285156 41.26425781 7.4375 40.4375 C6.46350159 38.84887938 5.48335182 37.26400822 4.49609375 35.68359375 C4.06482178 34.97775146 3.6335498 34.27190918 3.18920898 33.54467773 C2.60055054 32.78006226 2.60055054 32.78006226 2 32 C1.34 32 0.68 32 0 32 Z " fill="#000000" transform="translate(255,223)"/>
<path d="M0 0 C0.66 0 1.32 0 2 0 C6.29 8.58 10.58 17.16 15 26 C32.325 26.495 32.325 26.495 50 27 C44.45303867 36.98453039 44.45303867 36.98453039 40.6171875 41.78515625 C31.40643593 52.59329974 31.40643593 52.59329974 27.79296875 65.5546875 C28.66037887 68.96424761 30.21559889 71.94871973 31.95117188 74.99316406 C33.90934092 78.73994004 35.03763285 82.79416678 36.3125 86.8125 C36.70997437 87.97060181 36.70997437 87.97060181 37.11547852 89.15209961 C38.16675405 92.21668962 39 94.73641153 39 98 C29.9425572 96.2447568 21.43828984 93.13846949 12.7734375 90.01367188 C11.6184375 89.61341797 10.4634375 89.21316406 9.2734375 88.80078125 C8.23622559 88.43122314 7.19901367 88.06166504 6.13037109 87.6809082 C0.00999874 86.34962459 -5.35419881 88.29204527 -11.140625 90.28515625 C-11.78948669 90.50570175 -12.43834839 90.72624725 -13.10687256 90.95347595 C-15.15662229 91.65067677 -17.20351114 92.35579013 -19.25 93.0625 C-21.31095529 93.77218673 -23.37247199 94.47998658 -25.43597412 95.18223572 C-27.29780164 95.81605645 -29.15726864 96.45679859 -31.01660156 97.09790039 C-34 98 -34 98 -37 98 C-35.51511651 92.199831 -33.87918669 86.4994324 -31.88671875 80.8515625 C-31.52642578 79.82675781 -31.16613281 78.80195312 -30.79492188 77.74609375 C-30.04706215 75.63836915 -29.28898143 73.53424732 -28.52148438 71.43359375 C-28.16763672 70.41652344 -27.81378906 69.39945312 -27.44921875 68.3515625 C-27.12268311 67.44229004 -26.79614746 66.53301758 -26.4597168 65.59619141 C-25.45030631 59.89567569 -29.49814949 55.49581542 -32.5703125 50.984375 C-33.0114035 50.32794006 -33.45249451 49.67150513 -33.9069519 48.99517822 C-35.308588 46.91046139 -36.71636211 44.82999077 -38.125 42.75 C-39.53993783 40.6551819 -40.9535237 38.5594829 -42.36447144 36.4619751 C-43.24112249 35.15929121 -44.12023511 33.85825997 -45.00198364 32.559021 C-48 28.11169644 -48 28.11169644 -48 27 C-30.675 26.505 -30.675 26.505 -13 26 C-8.71 17.42 -4.42 8.84 0 0 Z M0 40 C-0.33 41.32 -0.66 42.64 -1 44 C-5.62 44 -10.24 44 -15 44 C-13.37995304 48.05011739 -12.31703354 50.01121936 -9.75 53.25 C-7.96071683 55.84511045 -6.99412441 57.26555071 -7.01953125 60.44140625 C-7.5386234 62.70823312 -8.20287365 64.81729277 -9 67 C-9.34682721 68.32988713 -9.68437789 69.66236344 -10 71 C-8.865625 70.649375 -7.73125 70.29875 -6.5625 69.9375 C-0.19938052 68.335438 5.68633978 69.7063078 12 71 C11.65775391 70.00419922 11.65775391 70.00419922 11.30859375 68.98828125 C11.02113281 68.10527344 10.73367188 67.22226563 10.4375 66.3125 C10.14746094 65.44238281 9.85742188 64.57226562 9.55859375 63.67578125 C8.67822593 59.45863471 9.3565068 57.02928049 11.62890625 53.39453125 C12.26699219 52.54246094 12.90507812 51.69039062 13.5625 50.8125 C16.16640203 47.71687167 16.16640203 47.71687167 17 44 C12.38 44 7.76 44 3 44 C2.67 42.68 2.34 41.36 2 40 C1.34 40 0.68 40 0 40 Z " fill="#000000" transform="translate(255,22)"/>
<path d="M0 0 C2.32080544 2.91962687 4.0481472 5.86213316 5.69921875 9.203125 C6.13838623 10.08645508 6.57755371 10.96978516 7.0300293 11.87988281 C7.85047729 13.54809082 7.85047729 13.54809082 8.6875 15.25 C10.440625 18.7975 12.19375 22.345 14 26 C31.325 26.495 31.325 26.495 49 27 C43.4894027 36.91907514 43.4894027 36.91907514 39.40625 41.15234375 C30.50653941 50.87855438 30.50653941 50.87855438 27.01629639 63.1696167 C28.25918725 73.21376742 32.54888913 82.80118815 36.72045898 91.93505859 C38 95 38 95 38 98 C32.65709284 96.97251785 27.65764698 95.5973376 22.53125 93.765625 C21.38269531 93.35699219 20.23414063 92.94835937 19.05078125 92.52734375 C16.67857658 91.67397639 14.31133043 90.80670079 11.94921875 89.92578125 C4.73099963 87.39008811 0.19045383 86.38266325 -7 89 C-9.29934906 89.72176876 -11.59884137 90.4430813 -13.8984375 91.1640625 C-17.03617237 92.19119852 -20.17121349 93.22607252 -23.30517578 94.26464844 C-25.16842382 94.88051194 -27.03340739 95.49111694 -28.8984375 96.1015625 C-29.99849121 96.46588379 -31.09854492 96.83020508 -32.23193359 97.20556641 C-35 98 -35 98 -38 98 C-36.51511651 92.199831 -34.87918669 86.4994324 -32.88671875 80.8515625 C-32.52642578 79.82675781 -32.16613281 78.80195312 -31.79492188 77.74609375 C-31.04706215 75.63836915 -30.28898143 73.53424732 -29.52148438 71.43359375 C-29.16763672 70.41652344 -28.81378906 69.39945312 -28.44921875 68.3515625 C-28.12268311 67.44229004 -27.79614746 66.53301758 -27.4597168 65.59619141 C-26.45030631 59.89567569 -30.49814949 55.49581542 -33.5703125 50.984375 C-34.0114035 50.32794006 -34.45249451 49.67150513 -34.9069519 48.99517822 C-36.308588 46.91046139 -37.71636211 44.82999077 -39.125 42.75 C-40.53993783 40.6551819 -41.9535237 38.5594829 -43.36447144 36.4619751 C-44.24112249 35.15929121 -45.12023511 33.85825997 -46.00198364 32.559021 C-49 28.11169644 -49 28.11169644 -49 27 C-37.12 27 -25.24 27 -13 27 C-12.34 25.02 -11.68 23.04 -11 21 C-10.25161298 19.34222161 -9.46910681 17.69939887 -8.65234375 16.07421875 C-8.21212891 15.19572266 -7.77191406 14.31722656 -7.31835938 13.41210938 C-6.86267578 12.51298828 -6.40699219 11.61386719 -5.9375 10.6875 C-5.24817383 9.30981445 -5.24817383 9.30981445 -4.54492188 7.90429688 C-1.14055525 1.14055525 -1.14055525 1.14055525 0 0 Z M-1 40 C-1.33 41.32 -1.66 42.64 -2 44 C-6.62 44 -11.24 44 -16 44 C-15.236875 45.4025 -14.47375 46.805 -13.6875 48.25 C-13.25824219 49.03890625 -12.82898438 49.8278125 -12.38671875 50.640625 C-11.06475516 53.02887374 -11.06475516 53.02887374 -9.31640625 55.0546875 C-7.48606601 57.75946328 -8.07563339 59.85179376 -8.60546875 62.9609375 C-8.73566406 63.63382813 -8.86585938 64.30671875 -9 65 C-9.185625 66.155 -9.37125 67.31 -9.5625 68.5 C-9.7790625 69.7375 -9.7790625 69.7375 -10 71 C-8.989375 70.67 -7.97875 70.34 -6.9375 70 C-1.14585317 68.35358427 4.14280168 68.97314195 10 70 C9.7628125 69.27296875 9.525625 68.5459375 9.28125 67.796875 C7.97896898 62.71797901 7.30048107 59.44213619 9.6484375 54.6015625 C11.1027822 52.49403842 12.61203722 50.42309769 14.1796875 48.3984375 C16.20151894 46.23631042 16.20151894 46.23631042 16 44 C11.38 44 6.76 44 2 44 C1.67 42.68 1.34 41.36 1 40 C0.34 40 -0.32 40 -1 40 Z " fill="#000000" transform="translate(149,22)"/>
<path d="M0 0 C2.76158204 2.76158204 3.99578479 4.61688072 5.69921875 8.03515625 C6.18583984 9.00904297 6.67246094 9.98292969 7.17382812 10.98632812 C7.9230957 12.5090332 7.9230957 12.5090332 8.6875 14.0625 C9.19861328 15.08150391 9.70972656 16.10050781 10.23632812 17.15039062 C14 24.73300859 14 24.73300859 14 27 C25.88 27 37.76 27 50 27 C42.26815227 39.15004643 42.26815227 39.15004643 38.9296875 43.71875 C38.26195312 44.67136719 37.59421875 45.62398437 36.90625 46.60546875 C35.5390707 48.55369926 34.14510151 50.48337233 32.7265625 52.39453125 C29.05000319 57.60532432 29.05000319 57.60532432 28.09594727 63.72631836 C28.85407693 66.60637999 29.86158356 69.24874795 31 72 C31.69201762 74.08100054 32.37273977 76.16578634 33.04296875 78.25390625 C33.75472083 80.35781928 34.46958445 82.46068214 35.1875 84.5625 C35.91289502 86.6878693 36.63569269 88.81412747 37.35546875 90.94140625 C37.67153076 91.86638916 37.98759277 92.79137207 38.31323242 93.74438477 C39 96 39 96 39 98 C29.9425572 96.2447568 21.43828984 93.13846949 12.7734375 90.01367188 C11.6184375 89.61341797 10.4634375 89.21316406 9.2734375 88.80078125 C8.23622559 88.43122314 7.19901367 88.06166504 6.13037109 87.6809082 C0.00999874 86.34962459 -5.35419881 88.29204527 -11.140625 90.28515625 C-11.78948669 90.50570175 -12.43834839 90.72624725 -13.10687256 90.95347595 C-15.15662229 91.65067677 -17.20351114 92.35579013 -19.25 93.0625 C-21.31095529 93.77218673 -23.37247199 94.47998658 -25.43597412 95.18223572 C-27.29780164 95.81605645 -29.15726864 96.45679859 -31.01660156 97.09790039 C-34 98 -34 98 -37 98 C-36.07073728 92.47088683 -34.66654675 88.13172393 -32.0625 83.15625 C-26.22379104 71.42706588 -26.22379104 71.42706588 -26.72235107 58.7744751 C-31.32855294 48.45471849 -38.70896989 39.38078507 -45.83764648 30.69848633 C-48 28 -48 28 -48 27 C-30.675 26.505 -30.675 26.505 -13 26 C-8.71 17.42 -4.42 8.84 0 0 Z M0 40 C-0.33 41.32 -0.66 42.64 -1 44 C-5.62 44 -10.24 44 -15 44 C-13.37995304 48.05011739 -12.31703354 50.01121936 -9.75 53.25 C-7.96071683 55.84511045 -6.99412441 57.26555071 -7.01953125 60.44140625 C-7.5386234 62.70823312 -8.20287365 64.81729277 -9 67 C-9.34682721 68.32988713 -9.68437789 69.66236344 -10 71 C-8.865625 70.649375 -7.73125 70.29875 -6.5625 69.9375 C-0.53003848 68.41599106 5.07000668 69.43736662 11 71 C10.7834375 70.11248047 10.7834375 70.11248047 10.5625 69.20703125 C10.376875 68.41683594 10.19125 67.62664062 10 66.8125 C9.814375 66.03519531 9.62875 65.25789063 9.4375 64.45703125 C8.65659547 60.07141561 8.48015597 57.91436852 10.75 53.921875 C11.4925 52.87515625 12.235 51.8284375 13 50.75 C15.60067056 47.64183559 15.60067056 47.64183559 17 44 C12.38 44 7.76 44 3 44 C2.67 42.68 2.34 41.36 2 40 C1.34 40 0.68 40 0 40 Z " fill="#000000" transform="translate(362,22)"/>
</svg>
