<?xml version="1.0" encoding="UTF-8"?>
<svg version="1.1" xmlns="http://www.w3.org/2000/svg" width="512" height="512">
<path d="M0 0 C29.81779775 -1.00122721 56.45400947 5.94798184 78.93994141 26.203125 C101.00717761 46.91585054 108.96203519 73.63977571 109.93994141 103.078125 C110.47756104 103.32046875 111.01518066 103.5628125 111.5690918 103.8125 C115.64963014 105.73471034 118.75527536 107.27487 121.37744141 111.078125 C121.85052734 111.738125 122.32361328 112.398125 122.81103516 113.078125 C125.58821137 117.99824341 125.52758418 123.57414692 124.93994141 129.078125 C123.1472215 134.98897864 119.94664286 138.59520225 114.93994141 142.078125 C114.27994141 142.078125 113.61994141 142.078125 112.93994141 142.078125 C112.97474609 143.356875 113.00955078 144.635625 113.04541016 145.953125 C113.07356928 147.66144509 113.10086714 149.36977952 113.12744141 151.078125 C113.16514648 152.33689453 113.16514648 152.33689453 113.20361328 153.62109375 C113.30092992 161.99032495 111.29388075 168.35199752 105.55322266 174.60546875 C102.13542572 177.72534634 98.34926483 179.03729758 93.93994141 180.078125 C93.67181641 181.2640625 93.40369141 182.45 93.12744141 183.671875 C88.06270089 205.00584763 78.35645183 224.07823529 59.93994141 237.078125 C59.27994141 237.078125 58.61994141 237.078125 57.93994141 237.078125 C57.93994141 243.348125 57.93994141 249.618125 57.93994141 256.078125 C60.90849121 256.4788623 60.90849121 256.4788623 63.93701172 256.88769531 C72.0050609 258.04251438 79.99311966 259.5431877 87.98681641 261.125 C89.09227688 261.34269924 89.09227688 261.34269924 90.22006989 261.56479645 C94.11905315 262.33271312 98.01716442 263.10488002 101.91455078 263.88085938 C105.08962341 264.51236643 108.26600071 265.13651373 111.44384766 265.75390625 C176.14526435 278.33182802 176.14526435 278.33182802 194.77978516 305.7890625 C202.17390256 317.70093874 205.08144062 329.98529957 205.10107422 343.8840332 C205.10603912 344.73706024 205.11100403 345.59008728 205.11611938 346.46896362 C205.13064462 349.27228624 205.1375264 352.07555229 205.14306641 354.87890625 C205.14589378 355.84190329 205.14872116 356.80490032 205.15163422 357.79707909 C205.16658688 362.89198452 205.17584145 367.98686192 205.18017578 373.08178711 C205.18565847 378.32364497 205.20969361 383.56524283 205.23814774 388.80701923 C205.25683926 392.8572615 205.26198315 396.90744188 205.26351166 400.95772362 C205.26652336 402.88927826 205.27450135 404.82083221 205.28769684 406.75234413 C205.4411323 430.93490184 205.4411323 430.93490184 197.04541016 441.03125 C191.11342705 446.79815009 184.4182114 450.19829593 176.16109276 450.21234608 C174.94844824 450.21680392 173.73580373 450.22126176 172.48641241 450.22585469 C171.133713 450.2257654 169.78101359 450.22557554 168.42831421 450.22529602 C166.99670773 450.22859471 165.56510219 450.23232029 164.13349783 450.2364375 C160.18990231 450.24646517 156.24632201 450.25017553 152.30271554 450.25282681 C148.05306109 450.25672762 143.80341872 450.26630615 139.55377197 450.27503967 C129.28570428 450.29481101 119.01763559 450.30487141 108.74955362 450.31376746 C103.91517442 450.31814951 99.08079633 450.32351656 94.246418 450.32875633 C78.17733424 450.34576973 62.10825116 450.36026395 46.03915977 450.36750507 C41.8682289 450.369415 37.69729804 450.37133533 33.52636719 450.37329102 C32.48969055 450.37377476 31.4530139 450.3742585 30.38492282 450.3747569 C13.59112379 450.38305733 -3.20260401 450.40839399 -19.99637194 450.44087169 C-37.23485098 450.47393784 -54.47329382 450.49195346 -71.71180475 450.49514931 C-81.39191565 450.49731489 -91.07192271 450.50607039 -100.75200272 450.53161049 C-108.9960941 450.55331145 -117.24005642 450.5613709 -125.48417313 450.55164371 C-129.68986326 450.54709717 -133.89528706 450.54900565 -138.1009407 450.56840515 C-141.95402447 450.58602467 -145.80664738 450.58504921 -149.65973596 450.56950786 C-151.05078532 450.56712992 -152.44186649 450.57146512 -153.83286722 450.58333651 C-165.05480948 450.67314738 -172.94349669 448.78700169 -181.26708984 441.078125 C-187.74920167 433.84753403 -189.2064839 426.78024268 -189.23706055 417.34082031 C-189.24363174 416.45885483 -189.25020294 415.57688934 -189.25697327 414.66819763 C-189.27668737 411.74754746 -189.28837081 408.82694893 -189.29833984 405.90625 C-189.30241537 404.9038604 -189.3064909 403.90147079 -189.31068993 402.86870575 C-189.33155246 397.55293485 -189.34584785 392.2371897 -189.35522461 386.92138672 C-189.36622994 381.46809151 -189.40056086 376.01521101 -189.44039631 370.56206131 C-189.46674077 366.33914512 -189.47493262 362.11632454 -189.47850609 357.89333344 C-189.48333392 355.88578268 -189.49483715 353.87823508 -189.51354408 351.87076569 C-189.69770592 330.78034852 -186.58830519 312.33514172 -171.52172852 296.32641602 C-160.41126615 285.14505565 -146.23570337 277.98187133 -131.22558594 273.6105957 C-130.12862931 273.29049388 -130.12862931 273.29049388 -129.00951195 272.96392536 C-120.65645795 270.59194092 -112.18590578 268.93080522 -103.66162109 267.30859375 C-101.96662282 266.98007119 -100.27175008 266.65090038 -98.57699585 266.32112122 C-95.06708293 265.63983571 -91.55621506 264.96382248 -88.04443359 264.29223633 C-83.54288437 263.43128148 -79.04330457 262.56050995 -74.5443058 261.68633556 C-71.06360103 261.01044837 -67.58229226 260.33772111 -64.10074997 259.66616249 C-62.43963688 259.34573077 -60.77862766 259.02476011 -59.11772537 258.70323753 C-56.81210916 258.25779403 -54.50579837 257.81615628 -52.19921875 257.37573242 C-51.51670547 257.24332657 -50.8341922 257.11092072 -50.1309967 256.97450256 C-47.38280577 256.45334603 -44.86598839 256.078125 -42.06005859 256.078125 C-42.06005859 249.808125 -42.06005859 243.538125 -42.06005859 237.078125 C-43.38005859 236.418125 -44.70005859 235.758125 -46.06005859 235.078125 C-60.20541323 225.62307216 -70.52090694 210.60714051 -74.28271484 194.0078125 C-74.47953857 193.14816895 -74.6763623 192.28852539 -74.87915039 191.40283203 C-75.24209971 189.72182038 -75.56706518 188.03203092 -75.84838867 186.33544922 C-76.34337243 183.9524524 -76.7879321 182.15778769 -78.06005859 180.078125 C-80.33085603 178.84109075 -82.38838084 178.21123395 -84.90893555 177.65258789 C-90.31817339 176.20803714 -93.31298779 170.59116989 -96.06005859 166.078125 C-97.04049823 163.13680609 -97.17627061 161.25310835 -97.15771484 158.19140625 C-97.15288086 156.7847168 -97.15288086 156.7847168 -97.14794922 155.34960938 C-97.13538086 153.88491211 -97.13538086 153.88491211 -97.12255859 152.390625 C-97.11804688 151.40255859 -97.11353516 150.41449219 -97.10888672 149.39648438 C-97.09710163 146.95697026 -97.08064871 144.51757811 -97.06005859 142.078125 C-97.82962891 141.80742187 -98.59919922 141.53671875 -99.39208984 141.2578125 C-104.11711101 139.16856449 -107.14390335 134.79612502 -109.06005859 130.078125 C-109.96099681 122.74490693 -109.61347033 116.0981264 -105.06005859 110.078125 C-102.6587964 107.56771453 -100.21850855 105.51825104 -96.92919922 104.26855469 C-94.82621293 103.21852187 -94.82621293 103.21852187 -94.39404297 100.77832031 C-94.31476563 99.83053711 -94.23548828 98.88275391 -94.15380859 97.90625 C-94.05213379 96.85590576 -93.95045898 95.80556152 -93.84570312 94.72338867 C-93.75144043 93.60295166 -93.65717773 92.48251465 -93.56005859 91.328125 C-92.58799905 81.80773882 -91.3488342 73.10752326 -88.06005859 64.078125 C-87.69009766 63.04945312 -87.32013672 62.02078125 -86.93896484 60.9609375 C-77.64782304 37.01720814 -58.36688723 18.28843459 -35.18505859 7.765625 C-23.88519506 3.19489368 -12.17924432 0.46188175 0 0 Z M-7.81005859 16.953125 C-9.65857422 17.19675781 -9.65857422 17.19675781 -11.54443359 17.4453125 C-14.65541245 18.00528869 -17.19537263 18.77698901 -20.06005859 20.078125 C-20.09744141 21.33109375 -20.13482422 22.5840625 -20.17333984 23.875 C-20.23900745 25.52607121 -20.30545452 27.17711155 -20.37255859 28.828125 C-20.39511719 29.653125 -20.41767578 30.478125 -20.44091797 31.328125 C-20.59726158 34.85296278 -20.74326233 37.45314628 -22.35302734 40.62890625 C-24.4114988 42.37648728 -25.38457518 42.59163305 -28.06005859 42.515625 C-29.08099609 42.51369141 -29.08099609 42.51369141 -30.12255859 42.51171875 C-32.70956038 41.93277279 -33.54372801 41.25870916 -35.06005859 39.078125 C-35.57177734 36.16015625 -35.57177734 36.16015625 -35.74755859 32.890625 C-35.81330078 31.80394531 -35.87904297 30.71726562 -35.94677734 29.59765625 C-36.00285156 28.35048828 -36.00285156 28.35048828 -36.06005859 27.078125 C-53.74149661 35.15979238 -66.3801409 52.2370909 -73.06005859 70.078125 C-76.92714733 81.26905703 -77.38437638 90.91584523 -78.06005859 103.078125 C-21.63005859 103.078125 34.79994141 103.078125 92.93994141 103.078125 C92.93994141 79.54264033 88.56545729 61.83737729 72.93994141 44.078125 C72.30185547 43.24796875 71.66376953 42.4178125 71.00634766 41.5625 C65.8746171 35.39278236 59.01272029 30.7682705 51.93994141 27.078125 C51.90255859 27.90957031 51.86517578 28.74101563 51.82666016 29.59765625 C51.72804688 31.22767578 51.72804688 31.22767578 51.62744141 32.890625 C51.56943359 33.96957031 51.51142578 35.04851562 51.45166016 36.16015625 C50.93994141 39.078125 50.93994141 39.078125 49.72119141 40.953125 C47.29707916 42.48414326 45.59515298 42.37638 42.75244141 42.265625 C41.40085937 42.22501953 41.40085937 42.22501953 40.02197266 42.18359375 C39.33490234 42.14878906 38.64783203 42.11398438 37.93994141 42.078125 C37.16039561 39.27065045 36.7689265 36.65782692 36.62353516 33.75 C36.58164062 32.95078125 36.53974609 32.1515625 36.49658203 31.328125 C36.45726562 30.503125 36.41794922 29.678125 36.37744141 28.828125 C36.33425781 27.98765625 36.29107422 27.1471875 36.24658203 26.28125 C36.14085598 24.21371829 36.03992845 22.14594219 35.93994141 20.078125 C34.2968048 19.58979094 32.65022675 19.11303534 31.00244141 18.640625 C30.08591797 18.37378906 29.16939453 18.10695313 28.22509766 17.83203125 C25.51782454 17.21074265 22.98692329 16.82124088 20.23461914 16.53100586 C19.42895004 16.44499619 18.62328094 16.35898651 17.79319763 16.27037048 C17.18162308 16.20692947 16.57004852 16.14348846 15.93994141 16.078125 C15.9305957 17.26889648 15.92125 18.45966797 15.91162109 19.68652344 C15.87172753 24.10747592 15.80597067 28.52773203 15.73242188 32.94824219 C15.70420854 34.86091156 15.68299579 36.7736976 15.66894531 38.68652344 C15.6475206 41.43745673 15.60087401 44.18698675 15.54931641 46.9375 C15.54808777 47.79180603 15.54685913 48.64611206 15.54559326 49.52630615 C15.3997792 55.4459997 15.3997792 55.4459997 13.08935547 58.62207031 C10.16058736 60.60607451 8.41013059 60.58419426 4.93994141 60.078125 C2.79052734 59.12963867 2.79052734 59.12963867 0.93994141 57.078125 C0.30329335 54.002828 0.33493249 50.9483383 0.33056641 47.81640625 C0.31403015 46.91061325 0.2974939 46.00482025 0.28045654 45.07157898 C0.2318627 42.17785948 0.21058056 39.28466587 0.18994141 36.390625 C0.16179122 34.42900984 0.13186513 32.46741929 0.10009766 30.50585938 C0.02610076 25.69665787 -0.0234042 20.88775026 -0.06005859 16.078125 C-2.63428531 16.078125 -5.26920202 16.61047837 -7.81005859 16.953125 Z M-93.06005859 121.078125 C-93.39339193 123.578125 -93.39339193 123.578125 -93.06005859 126.078125 C-90.55444961 128.58373399 -89.04758059 128.31986324 -85.62894344 128.34561181 C-84.8657256 128.34115037 -84.10250776 128.33668892 -83.31616211 128.33209229 C-82.50732102 128.33521227 -81.69847994 128.33833225 -80.86512852 128.34154677 C-78.13966771 128.34955971 -75.41442753 128.34319038 -72.68896484 128.33691406 C-70.74119943 128.33962246 -68.79343504 128.34318254 -66.84567261 128.34753418 C-61.54414755 128.35667841 -56.24270003 128.35310557 -50.94117355 128.34677601 C-45.40340713 128.34172651 -39.86564753 128.34640452 -34.32788086 128.34954834 C-25.02668053 128.35319106 -15.72551192 128.34838088 -6.42431641 128.33886719 C4.34228908 128.32798206 15.10881883 128.33150742 25.87542248 128.34252 C35.10514825 128.35158417 44.33485118 128.35288242 53.56457996 128.34764266 C59.08333898 128.34451816 64.60206234 128.34412672 70.12081909 128.35071564 C75.30819128 128.35647585 80.49546544 128.35251659 85.682827 128.34092712 C87.5912548 128.33827342 89.4996908 128.33905765 91.40811539 128.34345245 C94.00420482 128.34888146 96.59997601 128.34210623 99.19604492 128.33209229 C100.34087168 128.33878445 100.34087168 128.33878445 101.50882626 128.34561181 C105.68089791 128.45179861 105.68089791 128.45179861 108.93994141 126.078125 C109.27327474 123.578125 109.27327474 123.578125 108.93994141 121.078125 C106.43433242 118.57251601 104.9274634 118.83638676 101.50882626 118.81063819 C100.74560842 118.81509963 99.98239058 118.81956108 99.19604492 118.82415771 C98.38720384 118.82103773 97.57836275 118.81791775 96.74501133 118.81470323 C94.01955053 118.80669029 91.29431034 118.81305962 88.56884766 118.81933594 C86.62108224 118.81662754 84.67331785 118.81306746 82.72555542 118.80871582 C77.42403036 118.79957159 72.12258284 118.80314443 66.82105637 118.80947399 C61.28328995 118.81452349 55.74553034 118.80984548 50.20776367 118.80670166 C40.90656334 118.80305894 31.60539474 118.80786912 22.30419922 118.81738281 C11.53759373 118.82826794 0.77106398 118.82474258 -9.99553967 118.81373 C-19.22526544 118.80466583 -28.45496836 118.80336758 -37.68469715 118.80860734 C-43.20345616 118.81173184 -48.72217953 118.81212328 -54.24093628 118.80553436 C-59.42830847 118.79977415 -64.61558263 118.80373341 -69.80294418 118.81532288 C-71.71137199 118.81797658 -73.61980799 118.81719235 -75.52823257 118.81279755 C-78.12432201 118.80736854 -80.7200932 118.81414377 -83.31616211 118.82415771 C-84.46098887 118.81746555 -84.46098887 118.81746555 -85.62894344 118.81063819 C-89.8010151 118.70445139 -89.8010151 118.70445139 -93.06005859 121.078125 Z M-81.06005859 144.078125 C-81.06005859 149.358125 -81.06005859 154.638125 -81.06005859 160.078125 C-76.76345628 164.37472731 -74.30214983 164.27518028 -68.47021484 164.6015625 C-65.60872154 165.16736831 -64.87484539 165.84522401 -63.06005859 168.078125 C-62.5234375 169.95654297 -62.5234375 169.95654297 -62.28662109 172.0703125 C-62.18704102 172.85148437 -62.08746094 173.63265625 -61.98486328 174.4375 C-61.88592773 175.26765625 -61.78699219 176.0978125 -61.68505859 176.953125 C-59.09978236 195.40544699 -51.31660567 209.9083523 -37.06005859 222.078125 C-20.09825001 234.46193301 -0.68004061 239.57232477 20.09423828 236.78955078 C34.03049115 234.23731175 46.48371974 227.47930448 56.93994141 218.078125 C57.56255859 217.54832031 58.18517578 217.01851563 58.82666016 216.47265625 C71.34488862 205.0796618 75.83689363 189.59313964 77.81420898 173.39990234 C77.91886475 172.6105127 78.02352051 171.82112305 78.13134766 171.0078125 C78.21586182 170.29866699 78.30037598 169.58952148 78.38745117 168.85888672 C78.93994141 167.078125 78.93994141 167.078125 81.93994141 165.078125 C84.42324447 164.82137672 86.87418596 164.76444736 89.36962891 164.71484375 C92.77180618 164.10681912 92.77180618 164.10681912 96.93994141 159.078125 C96.93994141 154.128125 96.93994141 149.178125 96.93994141 144.078125 C38.19994141 144.078125 -20.54005859 144.078125 -81.06005859 144.078125 Z M-26.06005859 247.078125 C-26.16907365 249.91251637 -26.24783764 252.74262703 -26.31005859 255.578125 C-26.34357422 256.36960937 -26.37708984 257.16109375 -26.41162109 257.9765625 C-26.5305216 265.22949336 -24.45131459 270.02642687 -20.00927734 275.6953125 C-15.10306992 280.59304634 -10.05431674 284.71091367 -4.31005859 288.578125 C-3.68446045 288.9994873 -3.0588623 289.42084961 -2.41430664 289.85498047 C1.21268925 292.20619464 4.62183485 294.37347315 8.93994141 295.078125 C11.65204609 293.98651824 13.65903764 292.96120651 16.06494141 291.390625 C16.7151123 290.98142822 17.3652832 290.57223145 18.03515625 290.15063477 C27.27163792 284.14680884 38.18751989 276.0514397 41.54711914 265.09863281 C42.20703748 261.70429833 42.04198867 258.27177943 42.00244141 254.828125 C41.99792969 254.08304688 41.99341797 253.33796875 41.98876953 252.5703125 C41.97703387 250.7395486 41.95909991 248.90882627 41.93994141 247.078125 C39.09044842 247.59571933 36.36181613 248.24531802 33.57666016 249.05078125 C15.28422653 254.23959079 -2.93111933 253.32098897 -21.06005859 248.078125 C-22.72254753 247.72454413 -24.38775017 247.38189039 -26.06005859 247.078125 Z M55.93994141 272.078125 C55.01181641 273.83125 54.08369141 275.584375 53.12744141 277.390625 C46.21828348 289.15973169 36.2181144 296.8163443 24.93994141 304.078125 C28.28650383 307.5413432 31.38931401 310.37044722 35.93994141 312.078125 C41.39401903 312.078125 43.96400026 310.65894156 47.93994141 307.078125 C49.84971672 304.6170536 49.84971672 304.6170536 51.56494141 301.828125 C52.57814453 300.25611328 52.57814453 300.25611328 53.61181641 298.65234375 C54.16192383 297.79842041 54.16192383 297.79842041 54.72314453 296.92724609 C56.05906405 294.89709874 57.43872188 292.90235947 58.83056641 290.91015625 C59.32476074 290.20213867 59.81895508 289.49412109 60.328125 288.76464844 C61.30178229 287.37370945 62.27855727 285.98494642 63.25878906 284.59863281 C63.70786621 283.9537793 64.15694336 283.30892578 64.61962891 282.64453125 C65.01907715 282.07677979 65.41852539 281.50902832 65.83007812 280.92407227 C67.26909491 278.64223259 67.26909491 278.64223259 68.93994141 274.078125 C64.64994141 273.418125 60.35994141 272.758125 55.93994141 272.078125 Z M-48.74755859 273.078125 C-50.23835937 273.3565625 -50.23835937 273.3565625 -51.75927734 273.640625 C-52.51853516 273.785 -53.27779297 273.929375 -54.06005859 274.078125 C-49.69718935 281.13804069 -45.1059066 288.03190558 -40.43505859 294.890625 C-39.88503174 295.70249268 -39.33500488 296.51436035 -38.76831055 297.35083008 C-33.02254841 306.73072517 -33.02254841 306.73072517 -24.06005859 312.078125 C-19.9903539 311.59933621 -17.19850664 310.17821911 -13.74755859 308.015625 C-12.86455078 307.46777344 -11.98154297 306.91992188 -11.07177734 306.35546875 C-10.40791016 305.93394531 -9.74404297 305.51242187 -9.06005859 305.078125 C-11.8839684 302.09660162 -14.80159148 299.77124387 -18.18505859 297.453125 C-27.93666168 290.40957724 -34.94062266 283.02456118 -40.06005859 272.078125 C-43.10567142 272.078125 -45.75831261 272.5154434 -48.74755859 273.078125 Z M86.93994141 278.078125 C85.20693726 280.07918374 83.70319443 282.04235969 82.18994141 284.203125 C81.71387451 284.86763672 81.23780762 285.53214844 80.74731445 286.21679688 C75.34055396 293.81576711 70.1262939 301.55066841 64.89306641 309.26953125 C60.97071499 315.04712767 56.99494954 320.78635139 53.00244141 326.515625 C52.34550293 327.45889648 51.68856445 328.40216797 51.01171875 329.37402344 C47.55277612 334.33755126 44.08769049 339.29674669 40.61962891 344.25390625 C39.9092749 345.27105713 39.1989209 346.28820801 38.46704102 347.33618164 C37.12347934 349.25992837 35.77808878 351.18239978 34.43041992 353.10327148 C25.75716394 365.21568155 25.75716394 365.21568155 19.06494141 378.453125 C18.67564453 379.40960938 18.28634766 380.36609375 17.88525391 381.3515625 C12.01490892 398.28338398 15.93994141 417.15753548 15.93994141 435.078125 C52.56994141 435.078125 89.19994141 435.078125 126.93994141 435.078125 C127.26994141 424.518125 127.59994141 413.958125 127.93994141 403.078125 C130.93994141 400.078125 130.93994141 400.078125 134.43994141 399.765625 C137.93994141 400.078125 137.93994141 400.078125 140.93994141 402.078125 C142.08288454 405.50695441 142.14958613 408.31895338 142.25634766 411.93359375 C142.27712875 412.59523026 142.29790985 413.25686676 142.31932068 413.93855286 C142.38458868 416.04747352 142.44359485 418.15651635 142.50244141 420.265625 C142.5456483 421.69727815 142.58926329 423.12891904 142.63330078 424.56054688 C142.74024646 428.06627654 142.84157781 431.57214286 142.93994141 435.078125 C147.22662829 435.12787674 151.51315838 435.1640097 155.80004883 435.18798828 C157.25580781 435.1979935 158.71154697 435.21160196 160.16723633 435.22900391 C162.2699068 435.25349544 164.37230965 435.26466294 166.47509766 435.2734375 C167.73717041 435.28391113 168.99924316 435.29438477 170.29956055 435.30517578 C176.52794063 434.91671133 181.52662491 433.61403362 185.93994141 429.078125 C188.71391422 423.73503908 189.37578419 419.54504363 189.328125 413.5793457 C189.33338196 412.75879196 189.33863892 411.93823822 189.34405518 411.09281921 C189.35719255 408.39631766 189.34853533 405.70041322 189.33837891 403.00390625 C189.34040241 401.11451607 189.34331615 399.22512666 189.34707642 397.33573914 C189.35149213 393.37910514 189.34509656 389.42267472 189.33105469 385.46606445 C189.31402203 380.42388967 189.32377117 375.38219613 189.34177208 370.34003925 C189.35268052 366.43723514 189.34913041 362.53454257 189.3413887 358.63173485 C189.33940309 356.77441538 189.3417876 354.91708541 189.34882736 353.05977821 C189.40140018 335.28188411 187.3282427 320.05898197 174.69775391 306.55078125 C169.60983081 301.98894652 163.8118428 298.5361153 157.93994141 295.078125 C155.51595273 297.50211368 155.22004802 299.10584645 154.35400391 302.40625 C154.06493164 303.50404785 153.77585937 304.6018457 153.47802734 305.73291016 C153.17670898 306.91933105 152.87539063 308.10575195 152.56494141 309.328125 C152.25331055 310.55450684 151.94167969 311.78088867 151.62060547 313.04443359 C147.05539016 331.33617297 144.41711069 349.34937337 142.89013672 368.11181641 C142.8330101 368.80791016 142.77588348 369.50400391 142.71702576 370.22119141 C142.56244352 372.12842083 142.41372589 374.03612297 142.26538086 375.94384766 C142.00609589 378.44099728 141.64443185 380.67816338 140.93994141 383.078125 C136.27527723 383.99276504 133.17399169 384.44421193 128.93994141 382.078125 C118.35985849 360.91795917 134.80405097 315.23153947 141.05712891 294.19140625 C142.03087721 291.29677347 142.03087721 291.29677347 141.93994141 289.078125 C131.19752991 286.26571418 120.42312759 283.87171145 109.5168457 281.78564453 C107.08320818 281.31965529 104.65118939 280.84579819 102.21923828 280.37109375 C100.66138323 280.06985884 99.1034437 279.76906035 97.54541016 279.46875 C96.82363083 279.32818176 96.1018515 279.18761353 95.35820007 279.04278564 C92.49879803 278.49886747 89.85860357 278.078125 86.93994141 278.078125 Z M-79.07226562 278.86669922 C-80.06654572 279.06375458 -81.06082581 279.26080994 -82.0852356 279.46383667 C-83.15200531 279.68459869 -84.21877502 279.90536072 -85.31787109 280.1328125 C-86.4172702 280.35381622 -87.51666931 280.57481995 -88.64938354 280.80252075 C-90.97182769 281.27104191 -93.29343802 281.74371259 -95.61425781 282.22021484 C-99.17646385 282.95136092 -102.74098931 283.67014508 -106.30615234 284.38671875 C-108.56020435 284.8430306 -110.81411565 285.30003814 -113.06787109 285.7578125 C-114.67409836 286.08288284 -114.67409836 286.08288284 -116.31277466 286.41452026 C-117.30075043 286.61787994 -118.2887262 286.82123962 -119.30664062 287.03076172 C-120.17837921 287.20920624 -121.0501178 287.38765076 -121.94827271 287.57150269 C-124.0987152 288.0031951 -124.0987152 288.0031951 -126.06005859 289.078125 C-124.94223464 295.10528902 -123.58778752 301.00712962 -121.95361328 306.91455078 C-119.46537359 315.94271905 -117.36290878 324.96647458 -115.81005859 334.203125 C-115.65939941 335.08178223 -115.50874023 335.96043945 -115.35351562 336.86572266 C-114.86434628 339.93114722 -114.45087868 342.99852335 -114.06005859 346.078125 C-113.97451721 346.73851776 -113.88897583 347.39891052 -113.80084229 348.07931519 C-111.54804581 366.11814372 -111.61876421 384.24164211 -111.43505859 402.390625 C-111.31130859 413.1775 -111.18755859 423.964375 -111.06005859 435.078125 C-74.43005859 435.078125 -37.80005859 435.078125 -0.06005859 435.078125 C0.39758778 387.61204456 0.39758778 387.61204456 -19.51953125 352.22314453 C-21.87753119 348.93988186 -24.15720812 345.60476106 -26.43505859 342.265625 C-30.56073046 336.23648919 -34.73728676 330.24475824 -38.93505859 324.265625 C-43.57935026 317.64679511 -48.18580491 311.00411145 -52.74755859 304.328125 C-53.27841064 303.55380127 -53.8092627 302.77947754 -54.35620117 301.98168945 C-56.99346728 298.12947109 -59.60524352 294.26332515 -62.17724609 290.3671875 C-62.67393799 289.62307617 -63.17062988 288.87896484 -63.68237305 288.11230469 C-64.61746765 286.71037612 -65.54365251 285.30244837 -66.45922852 283.88769531 C-68.61202364 280.48002342 -68.61202364 280.48002342 -71.89303589 278.34573364 C-74.49084685 278.02492636 -76.50577058 278.34697206 -79.07226562 278.86669922 Z M-160.49755859 307.765625 C-169.74613525 317.71033109 -173.37679521 330.8162605 -173.3347168 344.08276367 C-173.33982773 344.93275436 -173.34493866 345.78274506 -173.35020447 346.65849304 C-173.36398283 349.43776701 -173.36315352 352.21678993 -173.36083984 354.99609375 C-173.36473146 356.94183951 -173.36906708 358.88758442 -173.37382507 360.83332825 C-173.38126063 364.89729579 -173.38101408 368.96117639 -173.37573242 373.02514648 C-173.36992211 378.22700879 -173.38691936 383.42851684 -173.4100771 388.63032055 C-173.42481664 392.64266531 -173.42568616 396.6549246 -173.42256737 400.66729164 C-173.42307983 402.58539854 -173.42830353 404.50351031 -173.43837929 406.42159081 C-173.45073928 409.10185167 -173.44395622 411.78141985 -173.43237305 414.46166992 C-173.44001678 415.24882385 -173.44766052 416.03597778 -173.45553589 416.84698486 C-173.39889124 422.78808533 -172.13839892 426.99978468 -167.81005859 431.328125 C-162.37315455 434.78797303 -156.92929355 435.32600247 -150.59521484 435.2734375 C-149.91704208 435.2706076 -149.23886932 435.26777771 -148.54014587 435.26486206 C-146.40076094 435.25377916 -144.26181429 435.2286986 -142.12255859 435.203125 C-140.66097615 435.19307976 -139.19938707 435.18395663 -137.73779297 435.17578125 C-134.1784088 435.15387925 -130.61927657 435.11943366 -127.06005859 435.078125 C-126.98935727 426.93913599 -126.9366572 418.80028322 -126.90462208 410.66105938 C-126.88921742 406.87833715 -126.86846593 403.09583054 -126.83374023 399.31323242 C-126.5149276 363.59496814 -130.47856672 329.33161414 -141.06005859 295.078125 C-146.5684037 295.078125 -156.56479403 304.18261222 -160.49755859 307.765625 Z M1.37744141 316.66796875 C0.49830078 317.20486328 -0.38083984 317.74175781 -1.28662109 318.29492188 C-2.20185547 318.86275391 -3.11708984 319.43058594 -4.06005859 320.015625 C-5.87096328 321.13149937 -7.68339876 322.24489436 -9.49755859 323.35546875 C-10.30064453 323.85296631 -11.10373047 324.35046387 -11.93115234 324.86303711 C-14.06005859 326.078125 -14.06005859 326.078125 -17.06005859 327.078125 C-15.57833569 330.23239533 -13.80815567 333.02801555 -11.82958984 335.89453125 C-10.87149414 337.28961914 -10.87149414 337.28961914 -9.89404297 338.71289062 C-9.22695313 339.67904297 -8.55986328 340.64519531 -7.87255859 341.640625 C-2.77809324 349.02633248 2.1734083 356.47593532 6.93994141 364.078125 C9.3317275 361.76053953 11.48530045 359.51043604 13.35009766 356.75 C13.77766357 356.12222656 14.20522949 355.49445313 14.64575195 354.84765625 C15.09345947 354.18121094 15.54116699 353.51476562 16.00244141 352.828125 C16.96845659 351.40616124 17.93460669 349.98428911 18.90087891 348.5625 C19.3968457 347.82966797 19.8928125 347.09683594 20.40380859 346.34179688 C22.96014975 342.57472835 25.54506869 338.8273727 28.12744141 335.078125 C29.05856322 333.72404925 29.98956521 332.36989109 30.92041016 331.015625 C31.58685547 330.04625 32.25330078 329.076875 32.93994141 328.078125 C30.75006217 326.61820551 28.61307434 325.29742932 26.32275391 324.01953125 C25.63310547 323.63345703 24.94345703 323.24738281 24.23291016 322.84960938 C23.51748047 322.45064453 22.80205078 322.05167969 22.06494141 321.640625 C20.6504911 320.85095465 19.2364198 320.06060499 17.82275391 319.26953125 C17.15276367 318.89586426 16.48277344 318.52219727 15.79248047 318.13720703 C14.20944895 317.23220034 12.6603844 316.26821149 11.11962891 315.29296875 C7.10128361 313.05335336 4.9917449 314.43404782 1.37744141 316.66796875 Z " fill="#000000" transform="translate(295.06005859375,61.921875)"/>
<path d="M0 0 C0.91280228 -0.00807175 1.82560455 -0.01614349 2.7660675 -0.02445984 C4.70201719 -0.03830642 6.63799135 -0.049026 8.57397461 -0.05688477 C11.52179974 -0.07404999 14.46848942 -0.11792487 17.41601562 -0.16210938 C19.29816885 -0.1722406 21.1803316 -0.18075536 23.0625 -0.1875 C24.37694344 -0.21376213 24.37694344 -0.21376213 25.71794128 -0.24055481 C31.61597831 -0.21986244 35.03304577 0.80021014 39.86328125 4.23828125 C43.8197902 9.23597677 44.99908315 12.96676915 44.9609375 19.22265625 C44.95771484 20.15722656 44.95449219 21.09179688 44.95117188 22.0546875 C44.94279297 23.02277344 44.93441406 23.99085937 44.92578125 24.98828125 C44.92126953 25.97183594 44.91675781 26.95539062 44.91210938 27.96875 C44.90034608 30.39198916 44.88390809 32.81510398 44.86328125 35.23828125 C45.58443115 35.41713867 46.30558105 35.59599609 47.04858398 35.78027344 C55.95225413 38.02123525 64.31331981 41.25502321 72.36328125 45.67578125 C75.54093832 47.54424204 75.54093832 47.54424204 77.70703125 46.7109375 C80.80296954 44.59650138 83.28934238 41.93964284 85.86328125 39.23828125 C93.17525092 31.56433288 93.17525092 31.56433288 98.6328125 30.90234375 C106.92978718 30.79583573 111.1813508 31.74516775 117.30078125 37.55078125 C119.34975228 41.07501142 119.44714487 43.22421886 118.86328125 47.23828125 C116.83519088 50.20241332 115.37137699 51.0615523 111.98828125 52.23828125 C107.89114441 52.23828125 106.02830179 50.7250831 102.86328125 48.23828125 C98.3051648 50.04231329 95.42009975 53.62894473 92.19335938 57.16210938 C87.67958196 61.89295671 83.50749703 63.93974076 76.98828125 64.67578125 C72.0668296 64.45976333 68.22246747 62.36885802 63.86328125 60.23828125 C57.11890853 57.21744844 50.43336992 54.3451128 43.36328125 52.17578125 C37.38935583 50.24280671 33.77397882 48.14827828 30.25 42.78125 C28.31361637 37.8339262 28.33390036 33.19507707 28.23828125 27.92578125 C28.18751971 25.9295838 28.13304189 23.93347616 28.07421875 21.9375 C28.05665527 21.05924561 28.0390918 20.18099121 28.02099609 19.27612305 C28.08597405 17.24416186 28.08597405 17.24416186 26.86328125 16.23828125 C24.57176708 16.1503715 22.27755601 16.13134087 19.984375 16.140625 C19.29771255 16.14203995 18.61105011 16.1434549 17.90357971 16.14491272 C15.70260324 16.15052646 13.50172716 16.16308118 11.30078125 16.17578125 C9.81185042 16.18079449 8.32291801 16.1853577 6.83398438 16.18945312 C3.1770505 16.20050032 -0.47982433 16.21777412 -4.13671875 16.23828125 C-4.11577148 16.83253906 -4.09482422 17.42679688 -4.07324219 18.0390625 C-3.98930021 20.7719583 -3.93781594 23.50458182 -3.88671875 26.23828125 C-3.85320312 27.17285156 -3.8196875 28.10742188 -3.78515625 29.0703125 C-3.67278844 37.10461107 -5.21125982 42.20667359 -10.828125 48.02734375 C-14.77296555 50.66344735 -18.59608507 52.12826441 -23.07421875 53.61328125 C-29.35933306 55.78712131 -35.31993207 58.19185431 -41.26171875 61.17578125 C-46.84855333 63.91104835 -50.90060149 65.22814113 -57.13671875 64.23828125 C-63.37468131 61.77751257 -67.0507549 57.4678429 -71.45703125 52.625 C-72.00359375 52.04878906 -72.55015625 51.47257812 -73.11328125 50.87890625 C-73.59877441 50.34813477 -74.08426758 49.81736328 -74.58447266 49.27050781 C-76.0905582 48.0498396 -76.0905582 48.0498396 -78.03930664 48.31616211 C-82.82101223 50.41842052 -86.31334705 54.90422367 -89.94921875 58.55078125 C-91.2940332 59.85305664 -91.2940332 59.85305664 -92.66601562 61.18164062 C-93.50841797 62.02146484 -94.35082031 62.86128906 -95.21875 63.7265625 C-95.99452393 64.49524658 -96.77029785 65.26393066 -97.56958008 66.0559082 C-99.35630685 68.07401814 -99.35630685 68.07401814 -99.06103516 70.32910156 C-98.03506638 72.44824468 -96.98404519 73.69201723 -95.265625 75.296875 C-94.69134766 75.84794922 -94.11707031 76.39902344 -93.52539062 76.96679688 C-92.31197401 78.10234718 -91.09843316 79.23776475 -89.88476562 80.37304688 C-85.33481257 84.73957517 -83.14455272 87.95564515 -82.71484375 94.375 C-82.85540356 100.23367819 -85.31621587 104.88777084 -87.88671875 110.05078125 C-90.75249559 116.02579651 -93.51753901 121.81090198 -95.38671875 128.17578125 C-97.38337207 134.62079242 -100.22870561 138.62606671 -106.15234375 141.91015625 C-111.00621586 143.87769998 -115.91823278 143.56322722 -121.07421875 143.42578125 C-122.04423828 143.41224609 -123.01425781 143.39871094 -124.01367188 143.38476562 C-126.38861004 143.34966802 -128.76236253 143.300504 -131.13671875 143.23828125 C-131.16137379 147.63484298 -131.17955717 152.03136845 -131.19165039 156.42797852 C-131.19668996 157.92473043 -131.20352162 159.42147741 -131.2121582 160.91821289 C-131.22424034 163.06527932 -131.22995066 165.21228087 -131.234375 167.359375 C-131.23961182 168.65286865 -131.24484863 169.9463623 -131.25024414 171.27905273 C-131.47668807 174.12480529 -131.47668807 174.12480529 -130.13671875 175.23828125 C-128.58474169 175.34715576 -127.0283192 175.39408124 -125.47265625 175.4140625 C-124.51488281 175.43791016 -123.55710937 175.46175781 -122.5703125 175.48632812 C-120.5548927 175.52879866 -118.53920786 175.56031567 -116.5234375 175.58007812 C-108.88919142 175.7992187 -104.41869121 176.96197714 -98.875 182.49609375 C-96.73831777 185.86676999 -95.52184587 189.33829201 -94.32421875 193.11328125 C-91.88467479 200.43271064 -88.92361559 207.32744607 -85.5546875 214.26171875 C-82.5895077 220.48614578 -82.22631406 225.50706718 -84.38671875 231.98828125 C-86.97598773 236.80374827 -91.13408665 240.40585232 -95.15917969 244.02636719 C-96.95527712 245.64296038 -96.95527712 245.64296038 -99.13671875 248.23828125 C-98.92638997 252.04127932 -96.8138067 253.93512267 -94.20703125 256.53125 C-93.41167969 257.32595703 -92.61632812 258.12066406 -91.796875 258.93945312 C-90.96027344 259.75994141 -90.12367187 260.58042969 -89.26171875 261.42578125 C-88.43285156 262.25787109 -87.60398438 263.08996094 -86.75 263.94726562 C-82.49199013 268.43925398 -82.49199013 268.43925398 -77.13671875 271.23828125 C-76.5319873 270.61783936 -76.5319873 270.61783936 -75.91503906 269.98486328 C-74.077582 268.10571779 -72.23227565 266.23447089 -70.38671875 264.36328125 C-69.7525 263.71230469 -69.11828125 263.06132812 -68.46484375 262.390625 C-67.53671875 261.45283203 -67.53671875 261.45283203 -66.58984375 260.49609375 C-66.02426758 259.92004395 -65.45869141 259.34399414 -64.87597656 258.75048828 C-60.87870997 255.2750434 -56.38391214 254.19126339 -51.13671875 254.23828125 C-44.77146573 255.39900386 -38.93904805 258.68172042 -33.16040039 261.47631836 C-29.75184256 263.10257927 -26.35407442 264.56518974 -22.7890625 265.81640625 C-22.07435791 266.06737061 -21.35965332 266.31833496 -20.62329102 266.5769043 C-19.2557362 267.04572151 -17.88264147 267.49879719 -16.50366211 267.93286133 C-11.53262577 269.63614328 -9.06481836 271.92012713 -6.13671875 276.23828125 C-3.51073491 281.66321792 -3.90872653 287.22085034 -4.01171875 293.11328125 C-4.05296875 296.45453125 -4.09421875 299.79578125 -4.13671875 303.23828125 C11.70328125 302.74328125 11.70328125 302.74328125 27.86328125 302.23828125 C28.0333543 294.93959227 28.0333543 294.93959227 28.16113281 287.64013672 C28.43115608 279.53517517 29.92486679 276.17669571 35.67578125 270.42578125 C39.28437749 267.94929363 41.5111889 267.31887555 45.86328125 267.23828125 C48.51144136 268.02557209 49.49212654 268.76108234 51.17578125 270.92578125 C52.20596371 274.39094043 51.79323337 276.76646001 50.86328125 280.23828125 C50.03183594 280.769375 49.20039063 281.30046875 48.34375 281.84765625 C45.55118945 284.53906894 45.48550198 285.04118089 45.26171875 288.72265625 C45.2299072 290.47759367 45.22293001 292.23312266 45.23828125 293.98828125 C45.23828125 308.41140353 45.23828125 308.41140353 40.51757812 313.76416016 C34.86309449 318.75245463 29.66109987 319.55334752 22.34375 319.57421875 C21.52634842 319.58087555 20.70894684 319.58753235 19.86677551 319.59439087 C18.14126831 319.60449003 16.41572227 319.60920874 14.69018555 319.60888672 C12.06948385 319.61325011 9.45048116 319.64956955 6.83007812 319.6875 C5.14714112 319.69337098 3.46419619 319.69733849 1.78125 319.69921875 C1.00702194 319.71358978 0.23279388 319.72796082 -0.56489563 319.74276733 C-6.98059035 319.68970954 -12.22801774 317.94583845 -16.9831543 313.51953125 C-20.65204713 307.59342054 -20.9105723 302.10017352 -20.94921875 295.23828125 C-20.97435547 294.17738281 -20.99949219 293.11648438 -21.02539062 292.0234375 C-21.08384616 289.4280117 -21.12043003 286.83425622 -21.13671875 284.23828125 C-22.18988281 283.88636719 -23.24304688 283.53445313 -24.328125 283.171875 C-34.26194658 279.79226775 -43.72336412 275.86959692 -53.13671875 271.23828125 C-53.5241626 271.64667236 -53.91160645 272.05506348 -54.31079102 272.47583008 C-56.09602435 274.34492453 -57.89731434 276.19775899 -59.69921875 278.05078125 C-60.30830078 278.69337891 -60.91738281 279.33597656 -61.54492188 279.99804688 C-66.60619096 285.16643276 -70.71014505 287.85755084 -78.07421875 288.67578125 C-87.77266948 288.16139973 -94.03537243 280.93698263 -100.40209961 274.43945312 C-101.95101619 272.86145005 -103.51789971 271.30310143 -105.08789062 269.74609375 C-116.56254971 258.20010375 -116.56254971 258.20010375 -116.57421875 249.23828125 C-116.59355469 248.24828125 -116.61289063 247.25828125 -116.6328125 246.23828125 C-115.54533945 239.66206626 -110.48350531 235.31710554 -105.88671875 230.86328125 C-105.33242187 230.31800781 -104.778125 229.77273437 -104.20703125 229.2109375 C-102.85483144 227.88205148 -101.49641525 226.55949577 -100.13671875 225.23828125 C-101.61681492 220.48871892 -103.51637849 216.06552512 -105.57421875 211.55078125 C-108.40790949 205.2293023 -110.56162526 198.99725712 -112.13671875 192.23828125 C-113.03596069 192.26184692 -113.03596069 192.26184692 -113.95336914 192.28588867 C-116.70188752 192.34872255 -119.45025417 192.3874236 -122.19921875 192.42578125 C-123.14216797 192.45091797 -124.08511719 192.47605469 -125.05664062 192.50195312 C-132.39164258 192.57862562 -137.24984889 191.74023513 -142.94921875 186.80078125 C-145.95882117 183.27524698 -147.37790585 180.67826817 -147.42724609 176.02392578 C-147.44638565 174.79212082 -147.44638565 174.79212082 -147.46591187 173.53543091 C-147.46813751 172.65619965 -147.47036316 171.77696838 -147.47265625 170.87109375 C-147.47931305 169.95874969 -147.48596985 169.04640564 -147.49282837 168.10641479 C-147.50294325 166.17822279 -147.50764575 164.24999585 -147.50732422 162.32177734 C-147.51169303 159.38059417 -147.54801242 156.44091736 -147.5859375 153.5 C-147.59180688 151.62370303 -147.59577546 149.74739896 -147.59765625 147.87109375 C-147.61202728 146.99591095 -147.62639832 146.12072815 -147.64120483 145.21902466 C-147.60033833 139.72318193 -146.79269199 136.59948461 -143.13671875 132.23828125 C-138.84269827 128.3631896 -135.74625369 127.15311792 -130.03125 126.921875 C-129.04833984 126.87998047 -128.06542969 126.83808594 -127.05273438 126.79492188 C-126.02857422 126.75560547 -125.00441406 126.71628906 -123.94921875 126.67578125 C-122.91345703 126.63259766 -121.87769531 126.58941406 -120.81054688 126.54492188 C-118.25273685 126.43883759 -115.6948303 126.33677979 -113.13671875 126.23828125 C-112.72550781 125.11808594 -112.31429687 123.99789062 -111.890625 122.84375 C-110.08264737 118.0228302 -108.0895033 113.28800856 -106.07421875 108.55078125 C-103.04193173 101.42073447 -103.04193173 101.42073447 -100.13671875 94.23828125 C-101.04035156 93.36945313 -101.94398437 92.500625 -102.875 91.60546875 C-104.06680606 90.44181559 -105.2581901 89.27773009 -106.44921875 88.11328125 C-107.34157227 87.25863281 -107.34157227 87.25863281 -108.25195312 86.38671875 C-112.55456091 82.15622171 -115.67820483 78.41070186 -116.5703125 72.23828125 C-116.57160156 71.24828125 -116.57289062 70.25828125 -116.57421875 69.23828125 C-116.60322266 67.75328125 -116.60322266 67.75328125 -116.6328125 66.23828125 C-115.61071422 60.05740347 -110.94546095 55.74592756 -106.63671875 51.47265625 C-106.11916016 50.9531842 -105.60160156 50.43371216 -105.06835938 49.89849854 C-103.98162155 48.81040884 -102.89239057 47.72480394 -101.80078125 46.64160156 C-100.13434053 44.98591838 -98.47890096 43.31976936 -96.82421875 41.65234375 C-95.76235978 40.5918057 -94.69988094 39.53188785 -93.63671875 38.47265625 C-92.89905273 37.72891754 -92.89905273 37.72891754 -92.14648438 36.97015381 C-87.63418525 32.51873183 -84.65314964 30.94452555 -78.32421875 30.86328125 C-77.32777344 30.83492187 -76.33132812 30.8065625 -75.3046875 30.77734375 C-68.11834463 31.82295221 -63.50860399 36.44355595 -58.69921875 41.48828125 C-58.15845703 42.04257812 -57.61769531 42.596875 -57.06054688 43.16796875 C-55.74553666 44.51789074 -54.44009339 45.87712153 -53.13671875 47.23828125 C-47.49455661 45.02048635 -41.92772953 42.62105932 -36.34960938 40.24804688 C-31.31926878 38.11967169 -26.26437998 36.12058727 -21.13671875 34.23828125 C-21.12213623 33.60325684 -21.10755371 32.96823242 -21.0925293 32.31396484 C-21.01766786 29.41315044 -20.92113449 26.51343919 -20.82421875 23.61328125 C-20.80166016 22.61425781 -20.77910156 21.61523438 -20.75585938 20.5859375 C-20.52740642 14.31386556 -20.07711858 9.38817522 -15.6015625 4.59375 C-10.12364793 0.40475651 -6.78872482 0.05657367 0 0 Z " fill="#000000" transform="translate(160.13671875,-0.23828125)"/>
<path d="M0 0 C1.18088423 3.98548426 1.42601594 6.06682223 -0.3125 9.875 C-2 12 -2 12 -4 13 C-8.58039449 13.39829517 -12.14005059 12.75174803 -16.5625 11.5 C-31.674518 7.53804772 -45.59130063 10.40962724 -58.95703125 18.05859375 C-71.2984253 25.93237147 -79.47672028 38.05721802 -83.25 52.1875 C-85.94913609 66.34569567 -83.79911741 81.55014079 -75.75 93.6640625 C-66.52552368 105.97709116 -54.599551 115.54409401 -39 118 C-35.19882009 118.22311273 -31.39868216 118.37885008 -27.59375 118.5234375 C-23.90441456 119.01267546 -21.94169424 119.77177638 -19 122 C-17.57337781 124.85324437 -17.68966132 126.83454549 -18 130 C-19.46875 132.6640625 -19.46875 132.6640625 -22 135 C-24.94913392 135.73333358 -27.78828902 135.66245908 -30.8125 135.5625 C-32.07912476 135.53760498 -32.07912476 135.53760498 -33.37133789 135.51220703 C-53.47938326 134.7804539 -70.0516745 125.66608949 -83.8671875 111.44140625 C-96.84042042 96.59109384 -102.22612576 77.47860356 -101.1640625 58.06054688 C-99.57111516 38.05388687 -89.86181504 21.26574026 -74.88671875 8.25390625 C-56.23010178 -6.31289753 -21.11829754 -15.76050724 0 0 Z " fill="#000000" transform="translate(202,95)"/>
</svg>
